<?xml version="1.0" encoding="utf-8"?>
<!-- Generator: Adobe Illustrator 16.0.0, SVG Export Plug-In . SVG Version: 6.00 Build 0)  -->
<!DOCTYPE svg PUBLIC "-//W3C//DTD SVG 1.1//EN" "http://www.w3.org/Graphics/SVG/1.1/DTD/svg11.dtd">
<svg version="1.1" id="Layer_1" xmlns="http://www.w3.org/2000/svg" xmlns:xlink="http://www.w3.org/1999/xlink" x="0px" y="0px"
	 width="1440px" height="600px" viewBox="0 0 1440 600" enable-background="new 0 0 1440 600" xml:space="preserve">
<rect x="-0.809" fill="#AF7277" width="1440.809" height="600"/>
<path opacity="0.5" fill="#EAD6CA" d="M235.977-93.443c0,0-44.964,7.301-123,127.943c-64,98.943,73.597,100.635,122,217.717
	c52,125.783-200.563,171.497-116,307.34c79.023,126.943,240,34,202,162s-438,216-508,90s-256-318-40-620
	S-8.023-153.443,235.977-93.443z"/>
<path opacity="0.5" fill="#EAD6CA" d="M193.977-93.443c0,0-44.964,7.301-123,127.943c-64,98.943,73.597,100.635,122,217.717
	c52,125.783-200.563,171.497-116,307.34c79.023,126.943,240,34,202,162s-438,216-508,90s-256-318-40-620
	S-50.023-153.443,193.977-93.443z"/>
<path opacity="0.1" fill="#454545" d="M1371.449,613.312c2.415,7.396-1.623,15.348-9.018,17.763l-148.955,48.637
	c-7.396,2.415-15.347-1.623-17.763-9.018l-70.277-215.233c-2.415-7.395,1.622-15.347,9.017-17.762l148.956-48.638
	c7.396-2.414,15.348,1.623,17.762,9.018L1371.449,613.312z"/>
<path opacity="0.1" fill="#454545" d="M1545.783,55.358c4.106-10.253-0.876-21.895-11.131-26.001L1237.604-89.602
	c-10.253-4.106-21.896,0.877-26.002,11.131l-68.02,169.851c-4.106,10.255,0.878,21.896,11.131,26.002l297.049,118.958
	c10.255,4.107,21.896-0.877,26.002-11.131L1545.783,55.358z"/>
<g>
	<path fill="#5B3C3E" d="M331.564,325.508l-1.296-2.424h-0.096l0.24,2.424V336.5h-1.872v-17.064h1.056l8.04,11.208l1.248,2.305h0.12
		l-0.264-2.305V319.7h1.872v17.063h-1.056L331.564,325.508z"/>
	<path fill="#5B3C3E" d="M353.26,335.54c-0.48,0.384-1.084,0.688-1.812,0.912s-1.5,0.336-2.316,0.336
		c-0.912,0-1.704-0.148-2.376-0.444s-1.224-0.72-1.656-1.271c-0.432-0.553-0.752-1.212-0.96-1.98
		c-0.208-0.768-0.312-1.632-0.312-2.592c0-2.048,0.456-3.607,1.368-4.68s2.216-1.608,3.912-1.608c0.543,0,1.088,0.061,1.632,0.18
		c0.544,0.12,1.032,0.349,1.464,0.685c0.432,0.336,0.784,0.812,1.056,1.428c0.272,0.616,0.408,1.428,0.408,2.437
		c0,0.527-0.048,1.112-0.144,1.752h-7.704c0,0.704,0.072,1.328,0.216,1.872c0.144,0.544,0.368,1.004,0.672,1.38
		c0.304,0.376,0.7,0.664,1.188,0.863c0.488,0.2,1.083,0.301,1.788,0.301c0.543,0,1.088-0.097,1.632-0.288
		c0.543-0.192,0.952-0.416,1.224-0.672L353.26,335.54z M349.132,325.892c-0.944,0-1.7,0.249-2.268,0.744
		c-0.568,0.496-0.908,1.345-1.02,2.544h5.952c0-1.216-0.232-2.067-0.696-2.556C350.636,326.136,349.979,325.892,349.132,325.892z"/>
	<path fill="#5B3C3E" d="M355.108,324.5h1.872v-2.376l1.92-0.552v2.928h3.264v1.68H358.9v6.648c0,0.832,0.104,1.42,0.312,1.764
		c0.208,0.345,0.56,0.517,1.056,0.517c0.416,0,0.768-0.044,1.056-0.133c0.288-0.087,0.608-0.203,0.96-0.348l0.432,1.464
		c-0.432,0.208-0.904,0.376-1.416,0.504c-0.512,0.128-1.064,0.192-1.656,0.192c-0.976,0-1.664-0.276-2.064-0.828
		s-0.6-1.476-0.6-2.771v-7.009h-1.872V324.5z"/>
	<path fill="#5B3C3E" d="M372.604,324.5l2.76,7.008l0.6,2.304h0.048l0.456-2.352l2.136-6.96h1.824l-4.032,12.264h-0.936l-3.144-7.92
		l-0.456-1.968h-0.072l-0.48,1.992l-3.024,7.896h-0.936l-4.176-12.264h2.088l2.376,6.984l0.408,2.327h0.024l0.576-2.376l2.568-6.936
		H372.604z"/>
	<path fill="#5B3C3E" d="M381.531,330.5c0-2.032,0.452-3.588,1.356-4.668c0.903-1.08,2.204-1.62,3.9-1.62
		c0.896,0,1.676,0.148,2.34,0.444c0.664,0.296,1.212,0.72,1.644,1.271c0.432,0.553,0.752,1.217,0.96,1.992
		c0.208,0.776,0.312,1.636,0.312,2.58c0,2.032-0.452,3.588-1.356,4.668c-0.904,1.08-2.204,1.62-3.9,1.62
		c-0.896,0-1.676-0.148-2.34-0.444s-1.212-0.72-1.644-1.271c-0.432-0.553-0.752-1.216-0.96-1.992S381.531,331.444,381.531,330.5z
		 M383.523,330.5c0,0.608,0.06,1.192,0.18,1.752c0.12,0.561,0.308,1.048,0.564,1.464c0.256,0.416,0.592,0.752,1.008,1.008
		c0.416,0.257,0.92,0.385,1.512,0.385c2.176,0.016,3.264-1.521,3.264-4.608c0-0.624-0.06-1.216-0.18-1.776
		c-0.12-0.56-0.309-1.048-0.564-1.464c-0.256-0.416-0.592-0.747-1.008-0.996c-0.416-0.247-0.92-0.372-1.512-0.372
		C384.611,325.876,383.523,327.412,383.523,330.5z"/>
	<path fill="#5B3C3E" d="M400.731,326.348c-0.48-0.159-0.936-0.239-1.368-0.239c-0.688,0-1.232,0.188-1.632,0.563
		c-0.4,0.376-0.648,0.853-0.744,1.428v8.4h-1.92v-12h1.344l0.36,1.464h0.096c0.304-0.544,0.668-0.964,1.092-1.26
		c0.423-0.296,0.963-0.444,1.62-0.444c0.464,0,0.984,0.08,1.56,0.24L400.731,326.348z"/>
	<path fill="#5B3C3E" d="M406.251,331.1h-1.104v5.4h-1.92v-16.8h1.92v10.224l0.984-0.336l3.72-5.088h2.232l-3.672,4.824
		l-0.984,0.792l1.2,0.96l4.008,5.424h-2.376L406.251,331.1z"/>
	<path fill="#5B3C3E" d="M414.723,320.852c0-0.367,0.124-0.684,0.372-0.947c0.248-0.265,0.564-0.396,0.948-0.396
		s0.712,0.132,0.984,0.396c0.272,0.264,0.408,0.58,0.408,0.947c0,0.369-0.136,0.673-0.408,0.912c-0.272,0.24-0.6,0.36-0.984,0.36
		s-0.7-0.12-0.948-0.36C414.847,321.524,414.723,321.221,414.723,320.852z M415.131,324.5h1.92v12h-1.92V324.5z"/>
	<path fill="#5B3C3E" d="M428.858,336.5v-6.84c0-1.248-0.18-2.188-0.54-2.82c-0.36-0.632-1.02-0.948-1.98-0.948
		c-0.849,0-1.548,0.229-2.1,0.685c-0.552,0.456-0.94,1.028-1.164,1.716v8.208h-1.92v-12h1.344l0.36,1.464h0.096
		c0.384-0.512,0.9-0.932,1.548-1.26c0.648-0.328,1.42-0.492,2.316-0.492c0.656,0,1.231,0.076,1.728,0.229
		c0.496,0.151,0.908,0.42,1.236,0.804c0.328,0.384,0.576,0.899,0.744,1.548c0.168,0.648,0.252,1.468,0.252,2.46v7.248H428.858z"/>
	<path fill="#5B3C3E" d="M443.475,337.052c0,1.552-0.412,2.696-1.236,3.433c-0.824,0.735-2.044,1.104-3.66,1.104
		c-0.96,0-1.732-0.06-2.316-0.18c-0.584-0.12-1.084-0.276-1.5-0.468l0.504-1.633c0.368,0.145,0.776,0.28,1.224,0.408
		c0.448,0.128,1.032,0.192,1.752,0.192c0.672,0,1.22-0.061,1.644-0.181c0.424-0.119,0.764-0.319,1.02-0.6
		c0.255-0.28,0.432-0.64,0.528-1.08s0.144-0.964,0.144-1.572v-1.151h-0.096c-0.32,0.464-0.728,0.82-1.224,1.067
		c-0.497,0.248-1.145,0.372-1.944,0.372c-1.616,0-2.804-0.504-3.564-1.512c-0.76-1.008-1.14-2.576-1.14-4.704
		c0-2.048,0.488-3.604,1.464-4.668c0.976-1.063,2.416-1.596,4.32-1.596c0.912,0,1.692,0.072,2.34,0.216
		c0.648,0.144,1.228,0.312,1.74,0.504V337.052z M438.65,335.084c0.816,0,1.456-0.204,1.92-0.612
		c0.464-0.407,0.792-1.044,0.984-1.907v-6.145c-0.64-0.304-1.456-0.456-2.448-0.456c-1.088,0-1.944,0.368-2.568,1.104
		c-0.624,0.735-0.936,1.888-0.936,3.456c0,0.672,0.056,1.288,0.168,1.848c0.112,0.561,0.288,1.04,0.528,1.439
		c0.24,0.4,0.552,0.713,0.936,0.937C437.619,334.973,438.09,335.084,438.65,335.084z"/>
	<path fill="#5B3C3E" d="M453.579,324.5h1.32l0.36,1.44h0.096c0.368-0.561,0.844-0.988,1.428-1.284s1.252-0.444,2.004-0.444
		c1.6,0,2.792,0.473,3.576,1.416c0.784,0.944,1.176,2.488,1.176,4.632c0,1.008-0.132,1.916-0.396,2.725
		c-0.264,0.808-0.636,1.492-1.116,2.052c-0.48,0.561-1.06,0.992-1.74,1.296c-0.68,0.304-1.437,0.456-2.268,0.456
		c-0.592,0-1.06-0.036-1.404-0.108c-0.344-0.071-0.716-0.195-1.116-0.372v4.992h-1.92V324.5z M458.426,325.892
		c-0.816,0-1.46,0.213-1.932,0.637c-0.472,0.424-0.804,1.067-0.996,1.932v5.952c0.288,0.225,0.616,0.396,0.984,0.516
		s0.856,0.181,1.464,0.181c1.104,0,1.98-0.412,2.628-1.236c0.648-0.824,0.972-2.036,0.972-3.636c0-0.656-0.056-1.252-0.168-1.788
		c-0.112-0.536-0.292-0.992-0.54-1.368s-0.568-0.668-0.96-0.876S459.002,325.892,458.426,325.892z"/>
	<path fill="#5B3C3E" d="M468.698,333.548c0,0.561,0.096,0.96,0.288,1.2s0.464,0.36,0.816,0.36c0.208,0,0.432-0.017,0.672-0.049
		c0.24-0.031,0.512-0.104,0.816-0.216l0.216,1.513c-0.256,0.128-0.612,0.231-1.068,0.312s-0.852,0.12-1.188,0.12
		c-0.72,0-1.312-0.204-1.776-0.612s-0.696-1.1-0.696-2.076V319.7h1.92V333.548z"/>
	<path fill="#5B3C3E" d="M473.377,325.388c0.608-0.367,1.316-0.64,2.124-0.815s1.652-0.265,2.532-0.265
		c0.832,0,1.5,0.112,2.004,0.336c0.504,0.225,0.888,0.517,1.152,0.876c0.264,0.36,0.44,0.757,0.528,1.188
		c0.088,0.432,0.132,0.864,0.132,1.296c0,0.96-0.024,1.896-0.072,2.808c-0.048,0.912-0.072,1.776-0.072,2.593
		c0,0.592,0.024,1.151,0.072,1.68c0.048,0.528,0.136,1.017,0.264,1.464h-1.416l-0.504-1.68h-0.12
		c-0.144,0.224-0.324,0.443-0.54,0.66c-0.216,0.216-0.477,0.407-0.78,0.575c-0.304,0.169-0.656,0.309-1.056,0.421
		c-0.4,0.111-0.856,0.168-1.368,0.168c-0.512,0-0.988-0.081-1.428-0.24c-0.44-0.16-0.82-0.388-1.14-0.685
		c-0.32-0.296-0.572-0.651-0.756-1.067c-0.184-0.416-0.276-0.889-0.276-1.416c0-0.704,0.144-1.292,0.432-1.765
		c0.288-0.472,0.692-0.848,1.212-1.128c0.52-0.279,1.144-0.479,1.872-0.6c0.728-0.12,1.532-0.18,2.412-0.18c0.224,0,0.444,0,0.66,0
		c0.216,0,0.436,0.016,0.66,0.048c0.048-0.48,0.072-0.912,0.072-1.296c0-0.88-0.176-1.496-0.528-1.849
		c-0.352-0.352-0.992-0.527-1.92-0.527c-0.272,0-0.564,0.021-0.876,0.062s-0.632,0.099-0.96,0.173
		c-0.328,0.074-0.64,0.165-0.936,0.271c-0.296,0.107-0.556,0.227-0.78,0.357L473.377,325.388z M476.786,335.012
		c0.448,0,0.848-0.06,1.2-0.18c0.352-0.12,0.656-0.271,0.912-0.456c0.256-0.184,0.468-0.388,0.636-0.612
		c0.168-0.224,0.292-0.439,0.372-0.647v-1.992c-0.224-0.016-0.452-0.027-0.684-0.036c-0.232-0.008-0.46-0.012-0.684-0.012
		c-0.496,0-0.98,0.028-1.452,0.084c-0.472,0.056-0.888,0.16-1.248,0.312c-0.36,0.152-0.648,0.36-0.864,0.624
		c-0.216,0.265-0.324,0.597-0.324,0.996c0,0.561,0.2,1.021,0.6,1.38C475.649,334.832,476.162,335.012,476.786,335.012z"/>
	<path fill="#5B3C3E" d="M483.89,324.5h1.872v-2.376l1.92-0.552v2.928h3.264v1.68h-3.264v6.648c0,0.832,0.104,1.42,0.312,1.764
		c0.208,0.345,0.56,0.517,1.056,0.517c0.416,0,0.768-0.044,1.056-0.133c0.288-0.087,0.608-0.203,0.96-0.348l0.432,1.464
		c-0.432,0.208-0.904,0.376-1.416,0.504c-0.512,0.128-1.064,0.192-1.656,0.192c-0.976,0-1.664-0.276-2.064-0.828
		s-0.6-1.476-0.6-2.771v-7.009h-1.872V324.5z"/>
	<path fill="#5B3C3E" d="M492.289,324.5h1.872v-0.672c0-0.736,0.06-1.376,0.18-1.92s0.315-0.988,0.588-1.332
		c0.272-0.344,0.624-0.601,1.056-0.769c0.432-0.168,0.968-0.252,1.608-0.252c0.512,0,0.964,0.032,1.356,0.097
		c0.392,0.063,0.804,0.184,1.236,0.359l-0.432,1.608c-0.369-0.16-0.716-0.264-1.044-0.312c-0.328-0.048-0.636-0.071-0.924-0.071
		c-0.416,0-0.74,0.063-0.972,0.191c-0.232,0.129-0.4,0.316-0.504,0.564s-0.168,0.552-0.192,0.912
		c-0.024,0.359-0.036,0.779-0.036,1.26v0.336h3.192v1.68h-3.192v10.32h-1.92v-10.32h-1.872V324.5z"/>
	<path fill="#5B3C3E" d="M500.329,330.5c0-2.032,0.452-3.588,1.356-4.668c0.903-1.08,2.204-1.62,3.9-1.62
		c0.896,0,1.676,0.148,2.34,0.444c0.664,0.296,1.212,0.72,1.644,1.271c0.432,0.553,0.752,1.217,0.96,1.992
		c0.208,0.776,0.312,1.636,0.312,2.58c0,2.032-0.452,3.588-1.356,4.668c-0.904,1.08-2.204,1.62-3.9,1.62
		c-0.896,0-1.676-0.148-2.34-0.444s-1.212-0.72-1.644-1.271c-0.432-0.553-0.752-1.216-0.96-1.992S500.329,331.444,500.329,330.5z
		 M502.321,330.5c0,0.608,0.06,1.192,0.18,1.752c0.12,0.561,0.308,1.048,0.564,1.464c0.256,0.416,0.592,0.752,1.008,1.008
		c0.416,0.257,0.92,0.385,1.512,0.385c2.176,0.016,3.264-1.521,3.264-4.608c0-0.624-0.06-1.216-0.18-1.776
		c-0.12-0.56-0.309-1.048-0.564-1.464c-0.256-0.416-0.592-0.747-1.008-0.996c-0.416-0.247-0.92-0.372-1.512-0.372
		C503.409,325.876,502.321,327.412,502.321,330.5z"/>
	<path fill="#5B3C3E" d="M519.529,326.348c-0.48-0.159-0.936-0.239-1.368-0.239c-0.688,0-1.232,0.188-1.632,0.563
		c-0.4,0.376-0.648,0.853-0.744,1.428v8.4h-1.92v-12h1.344l0.36,1.464h0.096c0.304-0.544,0.668-0.964,1.092-1.26
		c0.423-0.296,0.963-0.444,1.62-0.444c0.464,0,0.984,0.08,1.56,0.24L519.529,326.348z"/>
	<path fill="#5B3C3E" d="M529.057,336.5v-6.792c0-0.64-0.028-1.196-0.084-1.668s-0.164-0.868-0.324-1.188
		c-0.16-0.319-0.388-0.56-0.684-0.72c-0.296-0.159-0.684-0.24-1.164-0.24c-0.736,0-1.348,0.225-1.836,0.673
		c-0.488,0.447-0.828,1.008-1.02,1.68v8.256h-1.92v-12h1.344l0.36,1.464h0.096c0.432-0.512,0.932-0.932,1.5-1.26
		s1.308-0.492,2.22-0.492c0.768,0,1.396,0.148,1.884,0.444c0.488,0.296,0.868,0.812,1.14,1.548c0.368-0.624,0.876-1.112,1.524-1.464
		s1.38-0.528,2.196-0.528c0.672,0,1.24,0.076,1.704,0.229c0.464,0.151,0.848,0.42,1.152,0.804c0.304,0.384,0.524,0.904,0.66,1.56
		c0.136,0.656,0.204,1.488,0.204,2.496v7.2h-1.92v-7.224c0-0.576-0.028-1.076-0.084-1.5c-0.056-0.424-0.168-0.776-0.336-1.057
		c-0.168-0.279-0.4-0.487-0.696-0.624c-0.296-0.136-0.684-0.204-1.164-0.204c-0.8,0-1.424,0.225-1.872,0.673
		c-0.448,0.447-0.768,1.088-0.96,1.92v8.016H529.057z"/>
	<path fill="#5B3C3E" d="M547.249,330.5c0-2.032,0.452-3.588,1.356-4.668c0.903-1.08,2.204-1.62,3.9-1.62
		c0.896,0,1.676,0.148,2.34,0.444c0.664,0.296,1.212,0.72,1.644,1.271c0.432,0.553,0.752,1.217,0.96,1.992
		c0.208,0.776,0.312,1.636,0.312,2.58c0,2.032-0.452,3.588-1.356,4.668c-0.904,1.08-2.204,1.62-3.9,1.62
		c-0.896,0-1.676-0.148-2.34-0.444s-1.212-0.72-1.644-1.271c-0.432-0.553-0.752-1.216-0.96-1.992S547.249,331.444,547.249,330.5z
		 M549.241,330.5c0,0.608,0.06,1.192,0.18,1.752c0.12,0.561,0.308,1.048,0.564,1.464c0.256,0.416,0.592,0.752,1.008,1.008
		c0.416,0.257,0.92,0.385,1.512,0.385c2.176,0.016,3.264-1.521,3.264-4.608c0-0.624-0.06-1.216-0.18-1.776
		c-0.12-0.56-0.309-1.048-0.564-1.464c-0.256-0.416-0.592-0.747-1.008-0.996c-0.416-0.247-0.92-0.372-1.512-0.372
		C550.329,325.876,549.241,327.412,549.241,330.5z"/>
	<path fill="#5B3C3E" d="M559.177,324.5h1.872v-0.672c0-0.736,0.06-1.376,0.18-1.92s0.315-0.988,0.588-1.332
		c0.272-0.344,0.624-0.601,1.056-0.769c0.432-0.168,0.968-0.252,1.608-0.252c0.512,0,0.964,0.032,1.356,0.097
		c0.392,0.063,0.804,0.184,1.236,0.359l-0.432,1.608c-0.369-0.16-0.716-0.264-1.044-0.312c-0.328-0.048-0.636-0.071-0.924-0.071
		c-0.416,0-0.74,0.063-0.972,0.191c-0.232,0.129-0.4,0.316-0.504,0.564s-0.168,0.552-0.192,0.912
		c-0.024,0.359-0.036,0.779-0.036,1.26v0.336h3.192v1.68h-3.192v10.32h-1.92v-10.32h-1.872V324.5z"/>
	<path fill="#5B3C3E" d="M572.977,324.5h1.872v-2.376l1.92-0.552v2.928h3.264v1.68h-3.264v6.648c0,0.832,0.104,1.42,0.312,1.764
		c0.208,0.345,0.56,0.517,1.056,0.517c0.416,0,0.768-0.044,1.056-0.133c0.288-0.087,0.608-0.203,0.96-0.348l0.432,1.464
		c-0.432,0.208-0.904,0.376-1.416,0.504c-0.512,0.128-1.064,0.192-1.656,0.192c-0.976,0-1.664-0.276-2.064-0.828
		s-0.6-1.476-0.6-2.771v-7.009h-1.872V324.5z"/>
	<path fill="#5B3C3E" d="M590.4,336.5v-6.84c0-0.624-0.036-1.172-0.108-1.645c-0.072-0.472-0.204-0.863-0.396-1.176
		c-0.192-0.312-0.452-0.548-0.78-0.708c-0.328-0.159-0.756-0.24-1.284-0.24c-0.752,0-1.432,0.244-2.04,0.732s-1,1.116-1.176,1.884
		v7.992h-1.92v-16.8h1.92v6.144h0.096c0.416-0.495,0.916-0.892,1.5-1.188s1.308-0.444,2.172-0.444c0.672,0,1.256,0.076,1.752,0.229
		c0.496,0.151,0.908,0.42,1.236,0.804c0.328,0.384,0.568,0.899,0.72,1.548c0.152,0.648,0.228,1.468,0.228,2.46v7.248H590.4z"/>
	<path fill="#5B3C3E" d="M604.584,335.54c-0.48,0.384-1.084,0.688-1.812,0.912s-1.5,0.336-2.316,0.336
		c-0.912,0-1.704-0.148-2.376-0.444s-1.224-0.72-1.656-1.271c-0.432-0.553-0.752-1.212-0.96-1.98
		c-0.208-0.768-0.312-1.632-0.312-2.592c0-2.048,0.456-3.607,1.368-4.68s2.216-1.608,3.912-1.608c0.543,0,1.088,0.061,1.632,0.18
		c0.544,0.12,1.032,0.349,1.464,0.685c0.432,0.336,0.784,0.812,1.056,1.428c0.272,0.616,0.408,1.428,0.408,2.437
		c0,0.527-0.048,1.112-0.144,1.752h-7.704c0,0.704,0.072,1.328,0.216,1.872c0.144,0.544,0.368,1.004,0.672,1.38
		c0.304,0.376,0.7,0.664,1.188,0.863c0.488,0.2,1.083,0.301,1.788,0.301c0.543,0,1.088-0.097,1.632-0.288
		c0.543-0.192,0.952-0.416,1.224-0.672L604.584,335.54z M600.456,325.892c-0.944,0-1.7,0.249-2.268,0.744
		c-0.568,0.496-0.908,1.345-1.02,2.544h5.952c0-1.216-0.232-2.067-0.696-2.556C601.96,326.136,601.304,325.892,600.456,325.892z"/>
	<path fill="#5B3C3E" d="M622.2,324.5l2.76,7.008l0.6,2.304h0.048l0.456-2.352l2.136-6.96h1.824l-4.032,12.264h-0.936l-3.144-7.92
		l-0.456-1.968h-0.072l-0.48,1.992l-3.024,7.896h-0.936l-4.176-12.264h2.088l2.376,6.984l0.408,2.327h0.024l0.576-2.376l2.568-6.936
		H622.2z"/>
	<path fill="#5B3C3E" d="M631.128,330.5c0-2.032,0.452-3.588,1.356-4.668c0.903-1.08,2.204-1.62,3.9-1.62
		c0.896,0,1.676,0.148,2.34,0.444c0.664,0.296,1.212,0.72,1.644,1.271c0.432,0.553,0.752,1.217,0.96,1.992
		c0.208,0.776,0.312,1.636,0.312,2.58c0,2.032-0.452,3.588-1.356,4.668c-0.904,1.08-2.204,1.62-3.9,1.62
		c-0.896,0-1.676-0.148-2.34-0.444s-1.212-0.72-1.644-1.271c-0.432-0.553-0.752-1.216-0.96-1.992S631.128,331.444,631.128,330.5z
		 M633.12,330.5c0,0.608,0.06,1.192,0.18,1.752c0.12,0.561,0.308,1.048,0.564,1.464c0.256,0.416,0.592,0.752,1.008,1.008
		c0.416,0.257,0.92,0.385,1.512,0.385c2.176,0.016,3.264-1.521,3.264-4.608c0-0.624-0.06-1.216-0.18-1.776
		c-0.12-0.56-0.309-1.048-0.564-1.464c-0.256-0.416-0.592-0.747-1.008-0.996c-0.416-0.247-0.92-0.372-1.512-0.372
		C634.208,325.876,633.12,327.412,633.12,330.5z"/>
	<path fill="#5B3C3E" d="M651.696,336.5v-6.792c0-0.64-0.028-1.196-0.084-1.668s-0.164-0.868-0.324-1.188
		c-0.16-0.319-0.388-0.56-0.684-0.72c-0.296-0.159-0.684-0.24-1.164-0.24c-0.736,0-1.348,0.225-1.836,0.673
		c-0.488,0.447-0.828,1.008-1.02,1.68v8.256h-1.92v-12h1.344l0.36,1.464h0.096c0.432-0.512,0.932-0.932,1.5-1.26
		s1.308-0.492,2.22-0.492c0.768,0,1.396,0.148,1.884,0.444c0.488,0.296,0.868,0.812,1.14,1.548c0.368-0.624,0.876-1.112,1.524-1.464
		s1.38-0.528,2.196-0.528c0.672,0,1.24,0.076,1.704,0.229c0.464,0.151,0.848,0.42,1.152,0.804c0.304,0.384,0.524,0.904,0.66,1.56
		c0.136,0.656,0.204,1.488,0.204,2.496v7.2h-1.92v-7.224c0-0.576-0.028-1.076-0.084-1.5c-0.056-0.424-0.168-0.776-0.336-1.057
		c-0.168-0.279-0.4-0.487-0.696-0.624c-0.296-0.136-0.684-0.204-1.164-0.204c-0.8,0-1.424,0.225-1.872,0.673
		c-0.448,0.447-0.768,1.088-0.96,1.92v8.016H651.696z"/>
	<path fill="#5B3C3E" d="M672.912,335.54c-0.48,0.384-1.084,0.688-1.812,0.912s-1.5,0.336-2.316,0.336
		c-0.912,0-1.704-0.148-2.376-0.444s-1.224-0.72-1.656-1.271c-0.432-0.553-0.752-1.212-0.96-1.98
		c-0.208-0.768-0.312-1.632-0.312-2.592c0-2.048,0.456-3.607,1.368-4.68s2.216-1.608,3.912-1.608c0.543,0,1.088,0.061,1.632,0.18
		c0.544,0.12,1.032,0.349,1.464,0.685c0.432,0.336,0.784,0.812,1.056,1.428c0.272,0.616,0.408,1.428,0.408,2.437
		c0,0.527-0.048,1.112-0.144,1.752h-7.704c0,0.704,0.072,1.328,0.216,1.872c0.144,0.544,0.368,1.004,0.672,1.38
		c0.304,0.376,0.7,0.664,1.188,0.863c0.488,0.2,1.083,0.301,1.788,0.301c0.543,0,1.088-0.097,1.632-0.288
		c0.543-0.192,0.952-0.416,1.224-0.672L672.912,335.54z M668.784,325.892c-0.944,0-1.7,0.249-2.268,0.744
		c-0.568,0.496-0.908,1.345-1.02,2.544h5.952c0-1.216-0.232-2.067-0.696-2.556C670.288,326.136,669.631,325.892,668.784,325.892z"/>
	<path fill="#5B3C3E" d="M684.047,336.5v-6.84c0-1.248-0.18-2.188-0.54-2.82c-0.36-0.632-1.02-0.948-1.98-0.948
		c-0.849,0-1.548,0.229-2.1,0.685c-0.552,0.456-0.94,1.028-1.164,1.716v8.208h-1.92v-12h1.344l0.36,1.464h0.096
		c0.384-0.512,0.9-0.932,1.548-1.26c0.648-0.328,1.42-0.492,2.316-0.492c0.656,0,1.231,0.076,1.728,0.229
		c0.496,0.151,0.908,0.42,1.236,0.804c0.328,0.384,0.576,0.899,0.744,1.548c0.168,0.648,0.252,1.468,0.252,2.46v7.248H684.047z"/>
	<path fill="#5B3C3E" d="M688.799,335.468c0-0.384,0.128-0.695,0.384-0.936c0.256-0.24,0.584-0.36,0.984-0.36
		c0.496,0,0.9,0.177,1.212,0.528s0.468,0.864,0.468,1.536c0,0.575-0.081,1.08-0.24,1.512c-0.16,0.432-0.368,0.804-0.624,1.116
		c-0.256,0.312-0.536,0.567-0.84,0.768c-0.304,0.2-0.608,0.349-0.912,0.444l-0.6-0.937c0.576-0.224,1.004-0.572,1.284-1.044
		c0.28-0.472,0.42-0.947,0.42-1.428c-0.144,0.048-0.28,0.072-0.408,0.072c-0.32,0-0.588-0.108-0.804-0.324
		S688.799,335.884,688.799,335.468z"/>
	<path fill="#5B3C3E" d="M328.348,349.7h1.92v5.976h0.096c0.368-0.464,0.836-0.823,1.404-1.08c0.568-0.256,1.188-0.384,1.86-0.384
		c1.552,0,2.716,0.496,3.492,1.488c0.776,0.992,1.164,2.528,1.164,4.607c0,2.097-0.512,3.688-1.536,4.776
		c-1.024,1.088-2.464,1.632-4.32,1.632c-0.896,0-1.708-0.096-2.436-0.288c-0.729-0.191-1.276-0.399-1.644-0.624V349.7z
		 M333.292,355.892c-0.8,0-1.448,0.225-1.944,0.673c-0.496,0.447-0.856,1.079-1.08,1.896v6.048c0.304,0.177,0.672,0.309,1.104,0.396
		s0.88,0.132,1.344,0.132c1.088,0,1.956-0.384,2.604-1.152c0.648-0.768,0.972-1.968,0.972-3.6c0-0.624-0.056-1.208-0.168-1.752
		c-0.112-0.544-0.288-1.008-0.528-1.393c-0.24-0.384-0.548-0.688-0.924-0.912C334.296,356.004,333.836,355.892,333.292,355.892z"/>
	<path fill="#5B3C3E" d="M344.559,362.276l0.674,2.304h0.121l0.53-2.328l2.336-7.752h1.92l-3.552,10.776
		c-0.272,0.784-0.54,1.544-0.804,2.279c-0.264,0.736-0.556,1.393-0.876,1.969c-0.32,0.575-0.68,1.035-1.08,1.38
		c-0.4,0.344-0.864,0.516-1.392,0.516c-0.576,0-1.048-0.08-1.416-0.24l0.336-1.655c0.208,0.079,0.408,0.119,0.6,0.119
		c0.448,0,0.879-0.235,1.296-0.708c0.416-0.472,0.76-1.283,1.032-2.436l-4.824-12h2.208L344.559,362.276z"/>
	<path fill="#5B3C3E" d="M356.164,354.5h1.872v-2.376l1.92-0.552v2.928h3.264v1.68h-3.264v6.648c0,0.832,0.104,1.42,0.312,1.764
		c0.208,0.345,0.56,0.517,1.056,0.517c0.416,0,0.768-0.044,1.056-0.133c0.288-0.087,0.608-0.203,0.96-0.348l0.432,1.464
		c-0.432,0.208-0.904,0.376-1.416,0.504c-0.512,0.128-1.064,0.192-1.656,0.192c-0.976,0-1.664-0.276-2.064-0.828
		s-0.6-1.476-0.6-2.771v-7.009h-1.872V354.5z"/>
	<path fill="#5B3C3E" d="M373.587,366.5v-6.84c0-0.624-0.036-1.172-0.108-1.645c-0.072-0.472-0.204-0.863-0.396-1.176
		c-0.192-0.312-0.452-0.548-0.78-0.708c-0.328-0.159-0.756-0.24-1.284-0.24c-0.752,0-1.432,0.244-2.04,0.732s-1,1.116-1.176,1.884
		v7.992h-1.92v-16.8h1.92v6.144h0.096c0.416-0.495,0.916-0.892,1.5-1.188s1.308-0.444,2.172-0.444c0.672,0,1.256,0.076,1.752,0.229
		c0.496,0.151,0.908,0.42,1.236,0.804c0.328,0.384,0.568,0.899,0.72,1.548c0.152,0.648,0.228,1.468,0.228,2.46v7.248H373.587z"/>
	<path fill="#5B3C3E" d="M387.771,365.54c-0.48,0.384-1.084,0.688-1.812,0.912s-1.5,0.336-2.316,0.336
		c-0.912,0-1.704-0.148-2.376-0.444s-1.224-0.72-1.656-1.271c-0.432-0.553-0.752-1.212-0.96-1.98
		c-0.208-0.768-0.312-1.632-0.312-2.592c0-2.048,0.456-3.607,1.368-4.68s2.216-1.608,3.912-1.608c0.543,0,1.088,0.061,1.632,0.18
		c0.544,0.12,1.032,0.349,1.464,0.685c0.432,0.336,0.784,0.812,1.056,1.428c0.272,0.616,0.408,1.428,0.408,2.437
		c0,0.527-0.048,1.112-0.144,1.752h-7.704c0,0.704,0.072,1.328,0.216,1.872c0.144,0.544,0.368,1.004,0.672,1.38
		c0.304,0.376,0.7,0.664,1.188,0.863c0.488,0.2,1.083,0.301,1.788,0.301c0.543,0,1.088-0.097,1.632-0.288
		c0.543-0.192,0.952-0.416,1.224-0.672L387.771,365.54z M383.644,355.892c-0.944,0-1.7,0.249-2.268,0.744
		c-0.568,0.496-0.908,1.345-1.02,2.544h5.952c0-1.216-0.232-2.067-0.696-2.556C385.147,356.136,384.491,355.892,383.644,355.892z"/>
	<path fill="#5B3C3E" d="M405.387,354.5l2.76,7.008l0.6,2.304h0.048l0.456-2.352l2.136-6.96h1.824l-4.032,12.264h-0.936l-3.144-7.92
		l-0.456-1.968h-0.072l-0.48,1.992l-3.024,7.896h-0.936l-4.176-12.264h2.088l2.376,6.984l0.408,2.327h0.024l0.576-2.376l2.568-6.936
		H405.387z"/>
	<path fill="#5B3C3E" d="M414.315,360.5c0-2.032,0.452-3.588,1.356-4.668c0.903-1.08,2.204-1.62,3.9-1.62
		c0.896,0,1.676,0.148,2.34,0.444c0.664,0.296,1.212,0.72,1.644,1.271c0.432,0.553,0.752,1.217,0.96,1.992
		c0.208,0.776,0.312,1.636,0.312,2.58c0,2.032-0.452,3.588-1.356,4.668c-0.904,1.08-2.204,1.62-3.9,1.62
		c-0.896,0-1.676-0.148-2.34-0.444s-1.212-0.72-1.644-1.271c-0.432-0.553-0.752-1.216-0.96-1.992S414.315,361.444,414.315,360.5z
		 M416.307,360.5c0,0.608,0.06,1.192,0.18,1.752c0.12,0.561,0.308,1.048,0.564,1.464c0.256,0.416,0.592,0.752,1.008,1.008
		c0.416,0.257,0.92,0.385,1.512,0.385c2.176,0.016,3.264-1.521,3.264-4.608c0-0.624-0.06-1.216-0.18-1.776
		c-0.12-0.56-0.309-1.048-0.564-1.464c-0.256-0.416-0.592-0.747-1.008-0.996c-0.416-0.247-0.92-0.372-1.512-0.372
		C417.395,355.876,416.307,357.412,416.307,360.5z"/>
	<path fill="#5B3C3E" d="M434.883,366.5v-6.792c0-0.64-0.028-1.196-0.084-1.668s-0.164-0.868-0.324-1.188
		c-0.16-0.319-0.388-0.56-0.684-0.72c-0.296-0.159-0.684-0.24-1.164-0.24c-0.736,0-1.348,0.225-1.836,0.673
		c-0.488,0.447-0.828,1.008-1.02,1.68v8.256h-1.92v-12h1.344l0.36,1.464h0.096c0.432-0.512,0.932-0.932,1.5-1.26
		s1.308-0.492,2.22-0.492c0.768,0,1.396,0.148,1.884,0.444c0.488,0.296,0.868,0.812,1.14,1.548c0.368-0.624,0.876-1.112,1.524-1.464
		s1.38-0.528,2.196-0.528c0.672,0,1.24,0.076,1.704,0.229c0.464,0.151,0.848,0.42,1.152,0.804c0.304,0.384,0.524,0.904,0.66,1.56
		c0.136,0.656,0.204,1.488,0.204,2.496v7.2h-1.92v-7.224c0-0.576-0.028-1.076-0.084-1.5c-0.056-0.424-0.168-0.776-0.336-1.057
		c-0.168-0.279-0.4-0.487-0.696-0.624c-0.296-0.136-0.684-0.204-1.164-0.204c-0.8,0-1.424,0.225-1.872,0.673
		c-0.448,0.447-0.768,1.088-0.96,1.92v8.016H434.883z"/>
	<path fill="#5B3C3E" d="M456.099,365.54c-0.48,0.384-1.084,0.688-1.812,0.912s-1.5,0.336-2.316,0.336
		c-0.912,0-1.704-0.148-2.376-0.444s-1.224-0.72-1.656-1.271c-0.432-0.553-0.752-1.212-0.96-1.98
		c-0.208-0.768-0.312-1.632-0.312-2.592c0-2.048,0.456-3.607,1.368-4.68s2.216-1.608,3.912-1.608c0.543,0,1.088,0.061,1.632,0.18
		c0.544,0.12,1.032,0.349,1.464,0.685c0.432,0.336,0.784,0.812,1.056,1.428c0.272,0.616,0.408,1.428,0.408,2.437
		c0,0.527-0.048,1.112-0.144,1.752h-7.704c0,0.704,0.072,1.328,0.216,1.872c0.144,0.544,0.368,1.004,0.672,1.38
		c0.304,0.376,0.7,0.664,1.188,0.863c0.488,0.2,1.083,0.301,1.788,0.301c0.543,0,1.088-0.097,1.632-0.288
		c0.543-0.192,0.952-0.416,1.224-0.672L456.099,365.54z M451.971,355.892c-0.944,0-1.7,0.249-2.268,0.744
		c-0.568,0.496-0.908,1.345-1.02,2.544h5.952c0-1.216-0.232-2.067-0.696-2.556C453.475,356.136,452.819,355.892,451.971,355.892z"/>
	<path fill="#5B3C3E" d="M467.235,366.5v-6.84c0-1.248-0.18-2.188-0.54-2.82c-0.36-0.632-1.02-0.948-1.98-0.948
		c-0.849,0-1.548,0.229-2.1,0.685c-0.552,0.456-0.94,1.028-1.164,1.716v8.208h-1.92v-12h1.344l0.36,1.464h0.096
		c0.384-0.512,0.9-0.932,1.548-1.26c0.648-0.328,1.42-0.492,2.316-0.492c0.656,0,1.231,0.076,1.728,0.229
		c0.496,0.151,0.908,0.42,1.236,0.804c0.328,0.384,0.576,0.899,0.744,1.548c0.168,0.648,0.252,1.468,0.252,2.46v7.248H467.235z"/>
	<path fill="#5B3C3E" d="M471.987,365.468c0-0.384,0.128-0.695,0.384-0.936c0.256-0.24,0.584-0.36,0.984-0.36
		c0.496,0,0.9,0.177,1.212,0.528s0.468,0.864,0.468,1.536c0,0.575-0.081,1.08-0.24,1.512c-0.16,0.432-0.368,0.804-0.624,1.116
		c-0.256,0.312-0.536,0.567-0.84,0.768c-0.304,0.2-0.608,0.349-0.912,0.444l-0.6-0.937c0.576-0.224,1.004-0.572,1.284-1.044
		c0.28-0.472,0.42-0.947,0.42-1.428c-0.144,0.048-0.28,0.072-0.408,0.072c-0.32,0-0.588-0.108-0.804-0.324
		S471.987,365.884,471.987,365.468z"/>
	<path fill="#5B3C3E" d="M480.555,354.5h1.872v-0.672c0-0.736,0.06-1.376,0.18-1.92s0.315-0.988,0.588-1.332
		c0.272-0.344,0.624-0.601,1.056-0.769c0.432-0.168,0.968-0.252,1.608-0.252c0.512,0,0.964,0.032,1.356,0.097
		c0.392,0.063,0.804,0.184,1.236,0.359l-0.432,1.608c-0.369-0.16-0.716-0.264-1.044-0.312c-0.328-0.048-0.636-0.071-0.924-0.071
		c-0.416,0-0.74,0.063-0.972,0.191c-0.232,0.129-0.4,0.316-0.504,0.564s-0.168,0.552-0.192,0.912
		c-0.024,0.359-0.036,0.779-0.036,1.26v0.336h3.192v1.68h-3.192v10.32h-1.92v-10.32h-1.872V354.5z"/>
	<path fill="#5B3C3E" d="M488.595,360.5c0-2.032,0.452-3.588,1.356-4.668c0.903-1.08,2.204-1.62,3.9-1.62
		c0.896,0,1.676,0.148,2.34,0.444c0.664,0.296,1.212,0.72,1.644,1.271c0.432,0.553,0.752,1.217,0.96,1.992
		c0.208,0.776,0.312,1.636,0.312,2.58c0,2.032-0.452,3.588-1.356,4.668c-0.904,1.08-2.204,1.62-3.9,1.62
		c-0.896,0-1.676-0.148-2.34-0.444s-1.212-0.72-1.644-1.271c-0.432-0.553-0.752-1.216-0.96-1.992S488.595,361.444,488.595,360.5z
		 M490.587,360.5c0,0.608,0.06,1.192,0.18,1.752c0.12,0.561,0.308,1.048,0.564,1.464c0.256,0.416,0.592,0.752,1.008,1.008
		c0.416,0.257,0.92,0.385,1.512,0.385c2.176,0.016,3.264-1.521,3.264-4.608c0-0.624-0.06-1.216-0.18-1.776
		c-0.12-0.56-0.309-1.048-0.564-1.464c-0.256-0.416-0.592-0.747-1.008-0.996c-0.416-0.247-0.92-0.372-1.512-0.372
		C491.675,355.876,490.587,357.412,490.587,360.5z"/>
	<path fill="#5B3C3E" d="M507.795,356.348c-0.48-0.159-0.936-0.239-1.368-0.239c-0.688,0-1.232,0.188-1.632,0.563
		c-0.4,0.376-0.648,0.853-0.744,1.428v8.4h-1.92v-12h1.344l0.36,1.464h0.096c0.304-0.544,0.668-0.964,1.092-1.26
		c0.423-0.296,0.963-0.444,1.62-0.444c0.464,0,0.984,0.08,1.56,0.24L507.795,356.348z"/>
	<path fill="#5B3C3E" d="M515.115,354.5h1.872v-2.376l1.92-0.552v2.928h3.264v1.68h-3.264v6.648c0,0.832,0.104,1.42,0.312,1.764
		c0.208,0.345,0.56,0.517,1.056,0.517c0.416,0,0.768-0.044,1.056-0.133c0.288-0.087,0.608-0.203,0.96-0.348l0.432,1.464
		c-0.432,0.208-0.904,0.376-1.416,0.504c-0.512,0.128-1.064,0.192-1.656,0.192c-0.976,0-1.664-0.276-2.064-0.828
		s-0.6-1.476-0.6-2.771v-7.009h-1.872V354.5z"/>
	<path fill="#5B3C3E" d="M532.538,366.5v-6.84c0-0.624-0.036-1.172-0.108-1.645c-0.072-0.472-0.204-0.863-0.396-1.176
		c-0.192-0.312-0.452-0.548-0.78-0.708c-0.328-0.159-0.756-0.24-1.284-0.24c-0.752,0-1.432,0.244-2.04,0.732s-1,1.116-1.176,1.884
		v7.992h-1.92v-16.8h1.92v6.144h0.096c0.416-0.495,0.916-0.892,1.5-1.188s1.308-0.444,2.172-0.444c0.672,0,1.256,0.076,1.752,0.229
		c0.496,0.151,0.908,0.42,1.236,0.804c0.328,0.384,0.568,0.899,0.72,1.548c0.152,0.648,0.228,1.468,0.228,2.46v7.248H532.538z"/>
	<path fill="#5B3C3E" d="M546.722,365.54c-0.48,0.384-1.084,0.688-1.812,0.912s-1.5,0.336-2.316,0.336
		c-0.912,0-1.704-0.148-2.376-0.444s-1.224-0.72-1.656-1.271c-0.432-0.553-0.752-1.212-0.96-1.98
		c-0.208-0.768-0.312-1.632-0.312-2.592c0-2.048,0.456-3.607,1.368-4.68s2.216-1.608,3.912-1.608c0.543,0,1.088,0.061,1.632,0.18
		c0.544,0.12,1.032,0.349,1.464,0.685c0.432,0.336,0.784,0.812,1.056,1.428c0.272,0.616,0.408,1.428,0.408,2.437
		c0,0.527-0.048,1.112-0.144,1.752h-7.704c0,0.704,0.072,1.328,0.216,1.872c0.144,0.544,0.368,1.004,0.672,1.38
		c0.304,0.376,0.7,0.664,1.188,0.863c0.488,0.2,1.083,0.301,1.788,0.301c0.543,0,1.088-0.097,1.632-0.288
		c0.543-0.192,0.952-0.416,1.224-0.672L546.722,365.54z M542.594,355.892c-0.944,0-1.7,0.249-2.268,0.744
		c-0.568,0.496-0.908,1.345-1.02,2.544h5.952c0-1.216-0.232-2.067-0.696-2.556C544.098,356.136,543.442,355.892,542.594,355.892z"/>
	<path fill="#5B3C3E" d="M564.338,354.5l2.76,7.008l0.6,2.304h0.048l0.456-2.352l2.136-6.96h1.824l-4.032,12.264h-0.936l-3.144-7.92
		l-0.456-1.968h-0.072l-0.48,1.992l-3.024,7.896h-0.936l-4.176-12.264h2.088l2.376,6.984l0.408,2.327h0.024l0.576-2.376l2.568-6.936
		H564.338z"/>
	<path fill="#5B3C3E" d="M573.266,360.5c0-2.032,0.452-3.588,1.356-4.668c0.903-1.08,2.204-1.62,3.9-1.62
		c0.896,0,1.676,0.148,2.34,0.444c0.664,0.296,1.212,0.72,1.644,1.271c0.432,0.553,0.752,1.217,0.96,1.992
		c0.208,0.776,0.312,1.636,0.312,2.58c0,2.032-0.452,3.588-1.356,4.668c-0.904,1.08-2.204,1.62-3.9,1.62
		c-0.896,0-1.676-0.148-2.34-0.444s-1.212-0.72-1.644-1.271c-0.432-0.553-0.752-1.216-0.96-1.992S573.266,361.444,573.266,360.5z
		 M575.258,360.5c0,0.608,0.06,1.192,0.18,1.752c0.12,0.561,0.308,1.048,0.564,1.464c0.256,0.416,0.592,0.752,1.008,1.008
		c0.416,0.257,0.92,0.385,1.512,0.385c2.176,0.016,3.264-1.521,3.264-4.608c0-0.624-0.06-1.216-0.18-1.776
		c-0.12-0.56-0.309-1.048-0.564-1.464c-0.256-0.416-0.592-0.747-1.008-0.996c-0.416-0.247-0.92-0.372-1.512-0.372
		C576.346,355.876,575.258,357.412,575.258,360.5z"/>
	<path fill="#5B3C3E" d="M593.834,366.5v-6.792c0-0.64-0.028-1.196-0.084-1.668s-0.164-0.868-0.324-1.188
		c-0.16-0.319-0.388-0.56-0.684-0.72c-0.296-0.159-0.684-0.24-1.164-0.24c-0.736,0-1.348,0.225-1.836,0.673
		c-0.488,0.447-0.828,1.008-1.02,1.68v8.256h-1.92v-12h1.344l0.36,1.464h0.096c0.432-0.512,0.932-0.932,1.5-1.26
		s1.308-0.492,2.22-0.492c0.768,0,1.396,0.148,1.884,0.444c0.488,0.296,0.868,0.812,1.14,1.548c0.368-0.624,0.876-1.112,1.524-1.464
		s1.38-0.528,2.196-0.528c0.672,0,1.24,0.076,1.704,0.229c0.464,0.151,0.848,0.42,1.152,0.804c0.304,0.384,0.524,0.904,0.66,1.56
		c0.136,0.656,0.204,1.488,0.204,2.496v7.2h-1.92v-7.224c0-0.576-0.028-1.076-0.084-1.5c-0.056-0.424-0.168-0.776-0.336-1.057
		c-0.168-0.279-0.4-0.487-0.696-0.624c-0.296-0.136-0.684-0.204-1.164-0.204c-0.8,0-1.424,0.225-1.872,0.673
		c-0.448,0.447-0.768,1.088-0.96,1.92v8.016H593.834z"/>
	<path fill="#5B3C3E" d="M615.05,365.54c-0.48,0.384-1.084,0.688-1.812,0.912s-1.5,0.336-2.316,0.336
		c-0.912,0-1.704-0.148-2.376-0.444s-1.224-0.72-1.656-1.271c-0.432-0.553-0.752-1.212-0.96-1.98
		c-0.208-0.768-0.312-1.632-0.312-2.592c0-2.048,0.456-3.607,1.368-4.68s2.216-1.608,3.912-1.608c0.543,0,1.088,0.061,1.632,0.18
		c0.544,0.12,1.032,0.349,1.464,0.685c0.432,0.336,0.784,0.812,1.056,1.428c0.272,0.616,0.408,1.428,0.408,2.437
		c0,0.527-0.048,1.112-0.144,1.752h-7.704c0,0.704,0.072,1.328,0.216,1.872c0.144,0.544,0.368,1.004,0.672,1.38
		c0.304,0.376,0.7,0.664,1.188,0.863c0.488,0.2,1.083,0.301,1.788,0.301c0.543,0,1.088-0.097,1.632-0.288
		c0.543-0.192,0.952-0.416,1.224-0.672L615.05,365.54z M610.922,355.892c-0.944,0-1.7,0.249-2.268,0.744
		c-0.568,0.496-0.908,1.345-1.02,2.544h5.952c0-1.216-0.232-2.067-0.696-2.556C612.426,356.136,611.77,355.892,610.922,355.892z"/>
	<path fill="#5B3C3E" d="M626.186,366.5v-6.84c0-1.248-0.18-2.188-0.54-2.82c-0.36-0.632-1.02-0.948-1.98-0.948
		c-0.849,0-1.548,0.229-2.1,0.685c-0.552,0.456-0.94,1.028-1.164,1.716v8.208h-1.92v-12h1.344l0.36,1.464h0.096
		c0.384-0.512,0.9-0.932,1.548-1.26c0.648-0.328,1.42-0.492,2.316-0.492c0.656,0,1.231,0.076,1.728,0.229
		c0.496,0.151,0.908,0.42,1.236,0.804c0.328,0.384,0.576,0.899,0.744,1.548c0.168,0.648,0.252,1.468,0.252,2.46v7.248H626.186z"/>
	<path fill="#5B3C3E" d="M637.346,360.5c0-2.032,0.452-3.588,1.356-4.668c0.903-1.08,2.204-1.62,3.9-1.62
		c0.896,0,1.676,0.148,2.34,0.444c0.664,0.296,1.212,0.72,1.644,1.271c0.432,0.553,0.752,1.217,0.96,1.992
		c0.208,0.776,0.312,1.636,0.312,2.58c0,2.032-0.452,3.588-1.356,4.668c-0.904,1.08-2.204,1.62-3.9,1.62
		c-0.896,0-1.676-0.148-2.34-0.444s-1.212-0.72-1.644-1.271c-0.432-0.553-0.752-1.216-0.96-1.992S637.346,361.444,637.346,360.5z
		 M639.338,360.5c0,0.608,0.06,1.192,0.18,1.752c0.12,0.561,0.308,1.048,0.564,1.464c0.256,0.416,0.592,0.752,1.008,1.008
		c0.416,0.257,0.92,0.385,1.512,0.385c2.176,0.016,3.264-1.521,3.264-4.608c0-0.624-0.06-1.216-0.18-1.776
		c-0.12-0.56-0.309-1.048-0.564-1.464c-0.256-0.416-0.592-0.747-1.008-0.996c-0.416-0.247-0.92-0.372-1.512-0.372
		C640.426,355.876,639.338,357.412,639.338,360.5z"/>
	<path fill="#5B3C3E" d="M649.274,354.5h1.872v-0.672c0-0.736,0.06-1.376,0.18-1.92s0.315-0.988,0.588-1.332
		c0.272-0.344,0.624-0.601,1.056-0.769c0.432-0.168,0.968-0.252,1.608-0.252c0.512,0,0.964,0.032,1.356,0.097
		c0.392,0.063,0.804,0.184,1.236,0.359l-0.432,1.608c-0.369-0.16-0.716-0.264-1.044-0.312c-0.328-0.048-0.636-0.071-0.924-0.071
		c-0.416,0-0.74,0.063-0.972,0.191c-0.232,0.129-0.4,0.316-0.504,0.564s-0.168,0.552-0.192,0.912
		c-0.024,0.359-0.036,0.779-0.036,1.26v0.336h3.192v1.68h-3.192v10.32h-1.92v-10.32h-1.872V354.5z"/>
	<path fill="#5B3C3E" d="M663.074,354.5h1.872v-2.376l1.92-0.552v2.928h3.264v1.68h-3.264v6.648c0,0.832,0.104,1.42,0.312,1.764
		c0.208,0.345,0.56,0.517,1.056,0.517c0.416,0,0.768-0.044,1.056-0.133c0.288-0.087,0.608-0.203,0.96-0.348l0.432,1.464
		c-0.432,0.208-0.904,0.376-1.416,0.504c-0.512,0.128-1.064,0.192-1.656,0.192c-0.976,0-1.664-0.276-2.064-0.828
		s-0.6-1.476-0.6-2.771v-7.009h-1.872V354.5z"/>
	<path fill="#5B3C3E" d="M681.29,365.54c-0.48,0.384-1.084,0.688-1.812,0.912s-1.5,0.336-2.316,0.336
		c-0.912,0-1.704-0.148-2.376-0.444s-1.224-0.72-1.656-1.271c-0.432-0.553-0.752-1.212-0.96-1.98
		c-0.208-0.768-0.312-1.632-0.312-2.592c0-2.048,0.456-3.607,1.368-4.68s2.216-1.608,3.912-1.608c0.543,0,1.088,0.061,1.632,0.18
		c0.544,0.12,1.032,0.349,1.464,0.685c0.432,0.336,0.784,0.812,1.056,1.428c0.272,0.616,0.408,1.428,0.408,2.437
		c0,0.527-0.048,1.112-0.144,1.752h-7.704c0,0.704,0.072,1.328,0.216,1.872c0.144,0.544,0.368,1.004,0.672,1.38
		c0.304,0.376,0.7,0.664,1.188,0.863c0.488,0.2,1.083,0.301,1.788,0.301c0.543,0,1.088-0.097,1.632-0.288
		c0.543-0.192,0.952-0.416,1.224-0.672L681.29,365.54z M677.162,355.892c-0.944,0-1.7,0.249-2.268,0.744
		c-0.568,0.496-0.908,1.345-1.02,2.544h5.952c0-1.216-0.232-2.067-0.696-2.556C678.666,356.136,678.009,355.892,677.162,355.892z"/>
	<path fill="#5B3C3E" d="M692.642,365.708c-0.48,0.353-1.048,0.62-1.704,0.804c-0.656,0.184-1.344,0.276-2.064,0.276
		c-0.928,0-1.712-0.148-2.352-0.444c-0.64-0.296-1.164-0.72-1.572-1.271c-0.408-0.553-0.704-1.216-0.888-1.992
		c-0.184-0.776-0.276-1.636-0.276-2.58c0-2.032,0.448-3.588,1.344-4.668c0.896-1.08,2.184-1.62,3.864-1.62
		c0.768,0,1.42,0.061,1.956,0.18c0.536,0.12,1.02,0.293,1.452,0.517l-0.552,1.656c-0.369-0.208-0.776-0.372-1.224-0.492
		c-0.448-0.12-0.928-0.181-1.44-0.181c-2.272,0-3.408,1.536-3.408,4.608c0,0.608,0.06,1.188,0.18,1.74
		c0.12,0.552,0.32,1.04,0.6,1.464c0.279,0.424,0.648,0.764,1.104,1.02c0.456,0.257,1.02,0.385,1.692,0.385
		c0.576,0,1.092-0.088,1.548-0.265c0.456-0.176,0.828-0.376,1.116-0.6L692.642,365.708z"/>
	<path fill="#5B3C3E" d="M702.985,366.5v-6.84c0-0.624-0.036-1.172-0.108-1.645c-0.072-0.472-0.204-0.863-0.396-1.176
		c-0.192-0.312-0.452-0.548-0.78-0.708c-0.328-0.159-0.756-0.24-1.284-0.24c-0.752,0-1.432,0.244-2.04,0.732s-1,1.116-1.176,1.884
		v7.992h-1.92v-16.8h1.92v6.144h0.096c0.416-0.495,0.916-0.892,1.5-1.188s1.308-0.444,2.172-0.444c0.672,0,1.256,0.076,1.752,0.229
		c0.496,0.151,0.908,0.42,1.236,0.804c0.328,0.384,0.568,0.899,0.72,1.548c0.152,0.648,0.228,1.468,0.228,2.46v7.248H702.985z"/>
	<path fill="#5B3C3E" d="M707.737,365.396c0-0.433,0.124-0.772,0.372-1.021s0.58-0.372,0.996-0.372c0.432,0,0.776,0.124,1.032,0.372
		c0.255,0.248,0.384,0.588,0.384,1.021c0,0.416-0.128,0.752-0.384,1.008c-0.256,0.256-0.6,0.384-1.032,0.384
		c-0.416,0-0.748-0.128-0.996-0.384S707.737,365.812,707.737,365.396z"/>
</g>
<g>
	<path fill="#ECE2D0" d="M350.74,238.82c0,0.774-0.147,1.347-0.44,1.72c-0.293,0.374-0.76,0.747-1.4,1.12
		c-0.374,0.213-0.827,0.414-1.36,0.6c-0.534,0.187-1.127,0.347-1.78,0.48c-0.653,0.133-1.333,0.24-2.04,0.32
		c-0.707,0.08-1.407,0.12-2.1,0.12c-1.92,0-3.7-0.247-5.34-0.74c-1.64-0.493-3.074-1.26-4.3-2.3c-1.227-1.04-2.187-2.36-2.88-3.96
		c-0.694-1.6-1.04-3.52-1.04-5.76c0-2.106,0.353-3.966,1.06-5.58c0.706-1.613,1.666-2.96,2.88-4.04c1.213-1.08,2.64-1.893,4.28-2.44
		c1.64-0.546,3.406-0.82,5.3-0.82c2.48,0,4.453,0.387,5.92,1.16c1.466,0.773,2.2,1.76,2.2,2.96c0,0.614-0.16,1.154-0.48,1.62
		c-0.32,0.467-0.694,0.834-1.12,1.1c-0.667-0.426-1.5-0.826-2.5-1.2s-2.18-0.56-3.54-0.56c-1.12,0-2.14,0.18-3.06,0.54
		c-0.92,0.36-1.714,0.874-2.38,1.54c-0.667,0.667-1.187,1.48-1.56,2.44c-0.374,0.96-0.56,2.04-0.56,3.24
		c0,1.307,0.18,2.447,0.54,3.42c0.36,0.974,0.86,1.78,1.5,2.42c0.64,0.64,1.406,1.12,2.3,1.44c0.893,0.32,1.86,0.48,2.9,0.48
		c0.64,0,1.22-0.066,1.74-0.2c0.52-0.133,0.926-0.266,1.22-0.4v-4.52h-4.6c-0.16-0.266-0.307-0.613-0.44-1.04
		c-0.134-0.426-0.2-0.88-0.2-1.36c0-0.853,0.2-1.48,0.6-1.88c0.4-0.4,0.92-0.6,1.56-0.6h6.72c0.747,0,1.333,0.207,1.76,0.62
		c0.426,0.414,0.64,0.994,0.64,1.74V238.82z"/>
	<path fill="#ECE2D0" d="M361.22,242.46c-0.267,0.08-0.64,0.153-1.12,0.22c-0.48,0.066-1.014,0.1-1.6,0.1
		c-1.2,0-2.067-0.193-2.6-0.58c-0.534-0.386-0.8-1.14-0.8-2.26v-12.2c0-0.747,0.186-1.387,0.56-1.92c0.374-0.533,0.894-1,1.56-1.4
		c0.88-0.533,1.94-0.953,3.18-1.26c1.24-0.307,2.54-0.46,3.9-0.46c2.773,0,4.16,0.934,4.16,2.8c0,0.454-0.067,0.867-0.2,1.24
		c-0.134,0.374-0.28,0.693-0.44,0.96c-0.614-0.133-1.36-0.2-2.24-0.2c-0.774,0-1.547,0.094-2.32,0.28
		c-0.773,0.187-1.454,0.44-2.04,0.76V242.46z"/>
	<path fill="#ECE2D0" d="M378.541,222.66c1.386,0,2.646,0.14,3.78,0.42c1.133,0.28,2.1,0.714,2.9,1.3
		c0.8,0.587,1.42,1.334,1.86,2.24c0.44,0.907,0.66,1.974,0.66,3.2v9.04c0,0.694-0.18,1.247-0.54,1.66
		c-0.36,0.414-0.794,0.767-1.3,1.06c-0.827,0.507-1.84,0.894-3.04,1.16c-1.2,0.266-2.56,0.4-4.08,0.4
		c-2.747,0-4.934-0.527-6.56-1.58c-1.627-1.053-2.44-2.66-2.44-4.82c0-1.84,0.546-3.24,1.64-4.2c1.093-0.96,2.773-1.56,5.04-1.8
		l5.32-0.56v-0.44c0-0.854-0.347-1.48-1.04-1.88c-0.694-0.4-1.694-0.6-3-0.6c-1.014,0-2.007,0.12-2.98,0.36
		c-0.974,0.24-1.847,0.52-2.62,0.84c-0.32-0.213-0.594-0.54-0.82-0.98s-0.34-0.913-0.34-1.42c0-1.173,0.613-2.013,1.84-2.52
		c0.773-0.293,1.673-0.513,2.7-0.66C376.547,222.734,377.554,222.66,378.541,222.66z M378.781,238.62c0.586,0,1.166-0.06,1.74-0.18
		c0.573-0.12,1.006-0.273,1.3-0.46v-3.68l-3.28,0.28c-0.854,0.08-1.54,0.273-2.06,0.58s-0.78,0.767-0.78,1.38
		c0,0.64,0.24,1.147,0.72,1.52C376.9,238.434,377.687,238.62,378.781,238.62z"/>
	<path fill="#ECE2D0" d="M402.5,222.66c1.306,0,2.533,0.213,3.68,0.64c1.146,0.427,2.14,1.067,2.98,1.92
		c0.84,0.854,1.5,1.914,1.98,3.18c0.48,1.267,0.72,2.74,0.72,4.42c0,1.68-0.254,3.16-0.76,4.44c-0.507,1.28-1.22,2.354-2.14,3.22
		c-0.92,0.867-2.027,1.52-3.32,1.96c-1.294,0.44-2.74,0.66-4.34,0.66c-1.68,0-3.12-0.2-4.32-0.6s-2.2-0.88-3-1.44
		c-1.147-0.773-1.72-1.786-1.72-3.04v-21.56c0.293-0.08,0.68-0.16,1.16-0.24c0.48-0.08,1.013-0.12,1.6-0.12c1.2,0,2.06,0.2,2.58,0.6
		c0.52,0.4,0.78,1.16,0.78,2.28v4.56c0.533-0.24,1.146-0.446,1.84-0.62C400.913,222.747,401.673,222.66,402.5,222.66z
		 M401.38,227.46c-0.614,0-1.167,0.087-1.66,0.26c-0.494,0.173-0.954,0.394-1.38,0.66v9.16c0.32,0.214,0.72,0.387,1.2,0.52
		c0.48,0.134,1.04,0.2,1.68,0.2c1.333,0,2.394-0.453,3.18-1.36c0.786-0.906,1.18-2.266,1.18-4.08c0-1.866-0.38-3.226-1.14-4.08
		S402.66,227.46,401.38,227.46z"/>
	<path fill="#ECE2D0" d="M431.219,222.66c1.386,0,2.646,0.14,3.78,0.42c1.133,0.28,2.1,0.714,2.9,1.3
		c0.8,0.587,1.42,1.334,1.86,2.24c0.44,0.907,0.66,1.974,0.66,3.2v9.04c0,0.694-0.18,1.247-0.54,1.66
		c-0.36,0.414-0.794,0.767-1.3,1.06c-0.827,0.507-1.84,0.894-3.04,1.16c-1.2,0.266-2.56,0.4-4.08,0.4
		c-2.747,0-4.934-0.527-6.56-1.58c-1.627-1.053-2.44-2.66-2.44-4.82c0-1.84,0.546-3.24,1.64-4.2c1.093-0.96,2.773-1.56,5.04-1.8
		l5.32-0.56v-0.44c0-0.854-0.347-1.48-1.04-1.88c-0.694-0.4-1.694-0.6-3-0.6c-1.014,0-2.007,0.12-2.98,0.36
		c-0.974,0.24-1.847,0.52-2.62,0.84c-0.32-0.213-0.594-0.54-0.82-0.98s-0.34-0.913-0.34-1.42c0-1.173,0.613-2.013,1.84-2.52
		c0.773-0.293,1.673-0.513,2.7-0.66C429.226,222.734,430.232,222.66,431.219,222.66z M431.459,238.62c0.586,0,1.166-0.06,1.74-0.18
		c0.573-0.12,1.006-0.273,1.3-0.46v-3.68l-3.28,0.28c-0.854,0.08-1.54,0.273-2.06,0.58s-0.78,0.767-0.78,1.38
		c0,0.64,0.24,1.147,0.72,1.52C429.579,238.434,430.366,238.62,431.459,238.62z"/>
	<path fill="#ECE2D0" d="M468.019,222.86c0.826,0,1.526,0.187,2.1,0.56c0.573,0.374,0.86,1,0.86,1.88c0,0.4-0.1,1-0.3,1.8
		c-0.2,0.8-0.46,1.707-0.78,2.72c-0.32,1.014-0.687,2.1-1.1,3.26c-0.414,1.16-0.84,2.293-1.28,3.4c-0.44,1.107-0.874,2.14-1.3,3.1
		c-0.427,0.96-0.814,1.76-1.16,2.4c-0.32,0.24-0.807,0.447-1.46,0.62c-0.654,0.173-1.38,0.26-2.18,0.26
		c-0.934,0-1.733-0.12-2.4-0.36c-0.667-0.24-1.147-0.626-1.44-1.16c-0.24-0.453-0.527-1.08-0.86-1.88c-0.334-0.8-0.694-1.7-1.08-2.7
		c-0.387-1-0.78-2.066-1.18-3.2c-0.4-1.133-0.787-2.266-1.16-3.4c-0.374-1.133-0.72-2.213-1.04-3.24
		c-0.32-1.026-0.574-1.953-0.76-2.78c0.32-0.346,0.767-0.646,1.34-0.9c0.573-0.253,1.193-0.38,1.86-0.38
		c0.853,0,1.546,0.18,2.08,0.54c0.533,0.36,0.933,1.02,1.2,1.98l1.76,6.32c0.32,1.12,0.64,2.22,0.96,3.3
		c0.32,1.08,0.56,1.927,0.72,2.54h0.2c0.613-2.08,1.226-4.346,1.84-6.8c0.613-2.453,1.187-4.854,1.72-7.2
		C466.005,223.087,466.952,222.86,468.019,222.86z"/>
	<path fill="#ECE2D0" d="M474.098,217.74c0-0.906,0.313-1.68,0.94-2.32c0.626-0.64,1.446-0.96,2.46-0.96
		c1.013,0,1.833,0.32,2.46,0.96c0.626,0.64,0.94,1.414,0.94,2.32c0,0.934-0.313,1.72-0.94,2.36c-0.627,0.64-1.447,0.96-2.46,0.96
		c-1.014,0-1.833-0.32-2.46-0.96C474.411,219.46,474.098,218.674,474.098,217.74z M480.538,242.46c-0.267,0.08-0.64,0.153-1.12,0.22
		c-0.48,0.066-1.014,0.1-1.6,0.1c-1.2,0-2.06-0.193-2.58-0.58s-0.78-1.14-0.78-2.26V223.5c0.266-0.08,0.64-0.16,1.12-0.24
		c0.48-0.08,1.013-0.12,1.6-0.12c1.2,0,2.06,0.2,2.58,0.6c0.52,0.4,0.78,1.16,0.78,2.28V242.46z"/>
	<path fill="#ECE2D0" d="M491.337,242.46c-0.267,0.08-0.64,0.153-1.12,0.22c-0.48,0.066-1.014,0.1-1.6,0.1
		c-1.2,0-2.067-0.193-2.6-0.58c-0.534-0.386-0.8-1.14-0.8-2.26v-12.2c0-0.747,0.186-1.387,0.56-1.92c0.374-0.533,0.894-1,1.56-1.4
		c0.88-0.533,1.94-0.953,3.18-1.26c1.24-0.307,2.54-0.46,3.9-0.46c2.773,0,4.16,0.934,4.16,2.8c0,0.454-0.067,0.867-0.2,1.24
		c-0.134,0.374-0.28,0.693-0.44,0.96c-0.614-0.133-1.36-0.2-2.24-0.2c-0.774,0-1.547,0.094-2.32,0.28
		c-0.773,0.187-1.454,0.44-2.04,0.76V242.46z"/>
	<path fill="#ECE2D0" d="M508.258,237.76c0.48,0.334,1.146,0.5,2,0.5c0.4,0,0.826-0.046,1.28-0.14c0.453-0.093,0.84-0.207,1.16-0.34
		c0.24,0.267,0.44,0.574,0.6,0.92c0.16,0.347,0.24,0.747,0.24,1.2c0,0.934-0.367,1.7-1.1,2.3c-0.733,0.6-2.007,0.9-3.82,0.9
		c-2.24,0-3.987-0.514-5.24-1.54c-1.254-1.026-1.88-2.7-1.88-5.02v-17.96c0.293-0.08,0.68-0.167,1.16-0.26
		c0.48-0.093,1-0.14,1.56-0.14c1.173,0,2.02,0.207,2.54,0.62c0.52,0.414,0.78,1.167,0.78,2.26v2.6h5.52
		c0.133,0.267,0.267,0.607,0.4,1.02c0.133,0.414,0.2,0.847,0.2,1.3c0,0.854-0.194,1.467-0.58,1.84c-0.387,0.374-0.887,0.56-1.5,0.56
		h-4.04v7.76C507.538,236.887,507.778,237.427,508.258,237.76z"/>
	<path fill="#ECE2D0" d="M533.978,241.38c-0.854,0.534-1.907,0.954-3.16,1.26c-1.254,0.306-2.64,0.46-4.16,0.46
		c-1.44,0-2.747-0.154-3.92-0.46c-1.174-0.306-2.18-0.793-3.02-1.46c-0.84-0.667-1.494-1.506-1.96-2.52
		c-0.467-1.013-0.7-2.24-0.7-3.68v-11.64c0.293-0.08,0.68-0.16,1.16-0.24s1.013-0.12,1.6-0.12c1.2,0,2.06,0.2,2.58,0.6
		s0.78,1.16,0.78,2.28v9.08c0,1.2,0.306,2.06,0.92,2.58c0.613,0.52,1.48,0.78,2.6,0.78c0.693,0,1.273-0.06,1.74-0.18
		c0.466-0.12,0.82-0.247,1.06-0.38v-14.4c0.266-0.08,0.64-0.16,1.12-0.24s1.013-0.12,1.6-0.12c1.2,0,2.066,0.2,2.6,0.6
		c0.533,0.4,0.8,1.16,0.8,2.28v12.64C535.618,239.754,535.071,240.714,533.978,241.38z"/>
	<path fill="#ECE2D0" d="M547.857,222.66c1.386,0,2.646,0.14,3.78,0.42c1.133,0.28,2.1,0.714,2.9,1.3
		c0.8,0.587,1.42,1.334,1.86,2.24c0.44,0.907,0.66,1.974,0.66,3.2v9.04c0,0.694-0.18,1.247-0.54,1.66
		c-0.36,0.414-0.794,0.767-1.3,1.06c-0.827,0.507-1.84,0.894-3.04,1.16c-1.2,0.266-2.56,0.4-4.08,0.4
		c-2.747,0-4.934-0.527-6.56-1.58c-1.627-1.053-2.44-2.66-2.44-4.82c0-1.84,0.546-3.24,1.64-4.2c1.093-0.96,2.773-1.56,5.04-1.8
		l5.32-0.56v-0.44c0-0.854-0.347-1.48-1.04-1.88c-0.694-0.4-1.694-0.6-3-0.6c-1.014,0-2.007,0.12-2.98,0.36
		c-0.974,0.24-1.847,0.52-2.62,0.84c-0.32-0.213-0.594-0.54-0.82-0.98s-0.34-0.913-0.34-1.42c0-1.173,0.613-2.013,1.84-2.52
		c0.773-0.293,1.673-0.513,2.7-0.66C545.864,222.734,546.871,222.66,547.857,222.66z M548.098,238.62c0.586,0,1.166-0.06,1.74-0.18
		c0.573-0.12,1.006-0.273,1.3-0.46v-3.68l-3.28,0.28c-0.854,0.08-1.54,0.273-2.06,0.58s-0.78,0.767-0.78,1.38
		c0,0.64,0.24,1.147,0.72,1.52C546.217,238.434,547.004,238.62,548.098,238.62z"/>
	<path fill="#ECE2D0" d="M565.097,242.78c-1.2,0-2.06-0.193-2.58-0.58c-0.52-0.386-0.78-1.14-0.78-2.26v-23.48
		c0.266-0.08,0.646-0.16,1.14-0.24c0.493-0.08,1.033-0.12,1.62-0.12c1.173,0,2.026,0.2,2.56,0.6c0.533,0.4,0.8,1.16,0.8,2.28v23.48
		c-0.294,0.08-0.68,0.153-1.16,0.22C566.217,242.746,565.683,242.78,565.097,242.78z"/>
	<path fill="#ECE2D0" d="M591.096,227.5c-1.44,0-2.667,0.46-3.68,1.38c-1.014,0.92-1.52,2.274-1.52,4.06c0,1.787,0.486,3.12,1.46,4
		c0.973,0.88,2.206,1.32,3.7,1.32c0.853,0,1.606-0.113,2.26-0.34c0.653-0.226,1.206-0.46,1.66-0.7c0.453,0.347,0.806,0.713,1.06,1.1
		c0.253,0.387,0.38,0.86,0.38,1.42c0,1.014-0.534,1.827-1.6,2.44c-1.067,0.613-2.547,0.92-4.44,0.92c-1.6,0-3.06-0.214-4.38-0.64
		c-1.32-0.426-2.447-1.066-3.38-1.92c-0.934-0.853-1.653-1.913-2.16-3.18c-0.507-1.266-0.76-2.74-0.76-4.42
		c0-1.733,0.28-3.24,0.84-4.52c0.56-1.28,1.32-2.346,2.28-3.2s2.08-1.493,3.36-1.92c1.28-0.426,2.626-0.64,4.04-0.64
		c1.84,0,3.286,0.333,4.34,1c1.053,0.667,1.58,1.507,1.58,2.52c0,0.48-0.114,0.92-0.34,1.32c-0.227,0.4-0.5,0.747-0.82,1.04
		c-0.48-0.266-1.047-0.506-1.7-0.72C592.623,227.607,591.896,227.5,591.096,227.5z"/>
	<path fill="#ECE2D0" d="M619.057,232.86c0,1.574-0.24,2.994-0.72,4.26s-1.167,2.34-2.06,3.22c-0.894,0.88-1.967,1.56-3.22,2.04
		s-2.653,0.72-4.2,0.72c-1.547,0-2.954-0.234-4.22-0.7s-2.347-1.14-3.24-2.02c-0.894-0.88-1.58-1.953-2.06-3.22s-0.72-2.7-0.72-4.3
		c0-1.546,0.247-2.953,0.74-4.22c0.493-1.267,1.186-2.34,2.08-3.22c0.893-0.88,1.973-1.56,3.24-2.04c1.266-0.48,2.66-0.72,4.18-0.72
		s2.906,0.24,4.16,0.72s2.327,1.167,3.22,2.06c0.893,0.894,1.586,1.967,2.08,3.22C618.81,229.914,619.057,231.314,619.057,232.86z
		 M608.857,227.46c-1.254,0-2.227,0.467-2.92,1.4c-0.694,0.934-1.04,2.267-1.04,4c0,1.787,0.34,3.14,1.02,4.06
		c0.68,0.92,1.66,1.38,2.94,1.38c1.28,0,2.26-0.466,2.94-1.4c0.68-0.933,1.02-2.28,1.02-4.04c0-1.706-0.347-3.033-1.04-3.98
		C611.083,227.934,610.11,227.46,608.857,227.46z"/>
	<path fill="#ECE2D0" d="M628.616,224.66h6.8c0.133,0.267,0.273,0.6,0.42,1c0.146,0.4,0.22,0.84,0.22,1.32
		c0,0.854-0.194,1.467-0.58,1.84c-0.387,0.374-0.887,0.56-1.5,0.56h-5.08v13.08c-0.267,0.08-0.64,0.153-1.12,0.22
		c-0.48,0.066-1.014,0.1-1.6,0.1c-1.2,0-2.067-0.193-2.6-0.58c-0.534-0.386-0.8-1.14-0.8-2.26v-17c0-1.306,0.22-2.44,0.66-3.4
		s1.046-1.74,1.82-2.34c0.773-0.6,1.68-1.046,2.72-1.34c1.04-0.293,2.16-0.44,3.36-0.44c1.893,0,3.3,0.247,4.22,0.74
		c0.92,0.494,1.38,1.3,1.38,2.42c0,0.507-0.1,0.954-0.3,1.34c-0.2,0.387-0.434,0.687-0.7,0.9c-0.507-0.16-1.047-0.293-1.62-0.4
		c-0.574-0.106-1.22-0.16-1.94-0.16c-1.227,0-2.16,0.22-2.8,0.66c-0.64,0.44-0.96,1.18-0.96,2.22V224.66z M644.976,224.66h6.8
		c0.133,0.267,0.273,0.6,0.42,1c0.146,0.4,0.22,0.84,0.22,1.32c0,0.854-0.194,1.467-0.58,1.84c-0.387,0.374-0.887,0.56-1.5,0.56
		h-5.08v13.08c-0.267,0.08-0.64,0.153-1.12,0.22c-0.48,0.066-1.014,0.1-1.6,0.1c-1.2,0-2.067-0.193-2.6-0.58
		c-0.534-0.386-0.8-1.14-0.8-2.26v-17c0-1.306,0.22-2.44,0.66-3.4s1.046-1.74,1.82-2.34c0.773-0.6,1.68-1.046,2.72-1.34
		c1.04-0.293,2.16-0.44,3.36-0.44c1.893,0,3.3,0.247,4.22,0.74c0.92,0.494,1.38,1.3,1.38,2.42c0,0.507-0.1,0.954-0.3,1.34
		c-0.2,0.387-0.434,0.687-0.7,0.9c-0.507-0.16-1.047-0.293-1.62-0.4c-0.574-0.106-1.22-0.16-1.94-0.16c-1.227,0-2.16,0.22-2.8,0.66
		s-0.96,1.18-0.96,2.22V224.66z"/>
	<path fill="#ECE2D0" d="M661.216,235.42c0.373,1.12,1.026,1.914,1.96,2.38c0.933,0.467,2.013,0.7,3.24,0.7
		c1.12,0,2.173-0.153,3.16-0.46c0.986-0.306,1.787-0.646,2.4-1.02c0.4,0.267,0.733,0.614,1,1.04c0.266,0.427,0.4,0.894,0.4,1.4
		c0,0.614-0.187,1.147-0.56,1.6c-0.374,0.454-0.887,0.833-1.54,1.14c-0.654,0.306-1.427,0.533-2.32,0.68
		c-0.894,0.146-1.874,0.22-2.94,0.22c-1.574,0-3.027-0.22-4.36-0.66c-1.333-0.44-2.48-1.093-3.44-1.96
		c-0.96-0.866-1.714-1.953-2.26-3.26c-0.547-1.307-0.82-2.84-0.82-4.6c0-1.707,0.273-3.187,0.82-4.44
		c0.546-1.253,1.28-2.293,2.2-3.12c0.92-0.826,1.973-1.433,3.16-1.82c1.186-0.387,2.406-0.58,3.66-0.58
		c1.36,0,2.606,0.207,3.74,0.62c1.133,0.414,2.106,0.994,2.92,1.74c0.813,0.747,1.446,1.64,1.9,2.68c0.453,1.04,0.68,2.173,0.68,3.4
		c0,0.854-0.227,1.494-0.68,1.92c-0.454,0.427-1.094,0.707-1.92,0.84L661.216,235.42z M665.016,227.18c-1.147,0-2.1,0.354-2.86,1.06
		c-0.76,0.707-1.207,1.727-1.34,3.06l7.64-1.24c-0.054-0.693-0.36-1.346-0.92-1.96C666.976,227.487,666.136,227.18,665.016,227.18z"
		/>
	<path fill="#ECE2D0" d="M682.936,235.42c0.373,1.12,1.026,1.914,1.96,2.38c0.933,0.467,2.013,0.7,3.24,0.7
		c1.12,0,2.173-0.153,3.16-0.46c0.986-0.306,1.787-0.646,2.4-1.02c0.4,0.267,0.733,0.614,1,1.04c0.266,0.427,0.4,0.894,0.4,1.4
		c0,0.614-0.187,1.147-0.56,1.6c-0.374,0.454-0.887,0.833-1.54,1.14c-0.654,0.306-1.427,0.533-2.32,0.68
		c-0.894,0.146-1.874,0.22-2.94,0.22c-1.574,0-3.027-0.22-4.36-0.66c-1.333-0.44-2.48-1.093-3.44-1.96
		c-0.96-0.866-1.714-1.953-2.26-3.26c-0.547-1.307-0.82-2.84-0.82-4.6c0-1.707,0.273-3.187,0.82-4.44
		c0.546-1.253,1.28-2.293,2.2-3.12c0.92-0.826,1.973-1.433,3.16-1.82c1.186-0.387,2.406-0.58,3.66-0.58
		c1.36,0,2.606,0.207,3.74,0.62c1.133,0.414,2.106,0.994,2.92,1.74c0.813,0.747,1.446,1.64,1.9,2.68c0.453,1.04,0.68,2.173,0.68,3.4
		c0,0.854-0.227,1.494-0.68,1.92c-0.454,0.427-1.094,0.707-1.92,0.84L682.936,235.42z M686.736,227.18c-1.147,0-2.1,0.354-2.86,1.06
		c-0.76,0.707-1.207,1.727-1.34,3.06l7.64-1.24c-0.054-0.693-0.36-1.346-0.92-1.96C688.696,227.487,687.856,227.18,686.736,227.18z"
		/>
	<path fill="#ECE2D0" d="M717.976,227.5c-1.439,0-2.667,0.46-3.68,1.38c-1.014,0.92-1.521,2.274-1.521,4.06
		c0,1.787,0.486,3.12,1.46,4s2.207,1.32,3.7,1.32c0.854,0,1.606-0.113,2.261-0.34c0.652-0.226,1.206-0.46,1.659-0.7
		c0.453,0.347,0.807,0.713,1.061,1.1c0.253,0.387,0.38,0.86,0.38,1.42c0,1.014-0.534,1.827-1.6,2.44
		c-1.067,0.613-2.547,0.92-4.44,0.92c-1.6,0-3.06-0.214-4.38-0.64s-2.447-1.066-3.38-1.92c-0.934-0.853-1.654-1.913-2.16-3.18
		c-0.507-1.266-0.76-2.74-0.76-4.42c0-1.733,0.28-3.24,0.84-4.52c0.56-1.28,1.32-2.346,2.28-3.2s2.079-1.493,3.359-1.92
		c1.28-0.426,2.626-0.64,4.04-0.64c1.84,0,3.286,0.333,4.34,1s1.58,1.507,1.58,2.52c0,0.48-0.113,0.92-0.34,1.32
		s-0.5,0.747-0.82,1.04c-0.479-0.266-1.047-0.506-1.699-0.72C719.502,227.607,718.775,227.5,717.976,227.5z"/>
	<path fill="#ECE2D0" d="M732.016,242.68c-0.48,0.066-1.014,0.1-1.601,0.1c-1.2,0-2.066-0.193-2.6-0.58
		c-0.534-0.386-0.8-1.14-0.8-2.26v-23.48c0.293-0.08,0.68-0.16,1.16-0.24c0.479-0.08,1.013-0.12,1.6-0.12c1.2,0,2.06,0.2,2.58,0.6
		c0.52,0.4,0.78,1.16,0.78,2.28v4.6c0.56-0.266,1.192-0.486,1.899-0.66c0.706-0.173,1.474-0.26,2.3-0.26
		c2.561,0,4.566,0.646,6.021,1.94c1.453,1.293,2.18,3.234,2.18,5.82v12.04c-0.267,0.08-0.64,0.153-1.12,0.22
		c-0.479,0.066-1.014,0.1-1.6,0.1c-1.2,0-2.067-0.193-2.601-0.58s-0.8-1.14-0.8-2.26v-9.16c0-1.2-0.3-2.053-0.899-2.56
		c-0.601-0.506-1.367-0.76-2.301-0.76c-0.613,0-1.173,0.087-1.68,0.26s-0.974,0.38-1.399,0.62v14.12
		C732.868,242.54,732.495,242.613,732.016,242.68z"/>
	<path fill="#ECE2D0" d="M757.855,222.66c1.387,0,2.646,0.14,3.78,0.42c1.133,0.28,2.1,0.714,2.899,1.3
		c0.801,0.587,1.42,1.334,1.86,2.24c0.44,0.907,0.66,1.974,0.66,3.2v9.04c0,0.694-0.181,1.247-0.54,1.66
		c-0.36,0.414-0.794,0.767-1.3,1.06c-0.827,0.507-1.841,0.894-3.04,1.16c-1.2,0.266-2.561,0.4-4.08,0.4
		c-2.747,0-4.934-0.527-6.561-1.58s-2.439-2.66-2.439-4.82c0-1.84,0.546-3.24,1.64-4.2c1.093-0.96,2.773-1.56,5.04-1.8l5.32-0.56
		v-0.44c0-0.854-0.347-1.48-1.04-1.88c-0.694-0.4-1.694-0.6-3-0.6c-1.014,0-2.007,0.12-2.98,0.36c-0.974,0.24-1.847,0.52-2.62,0.84
		c-0.319-0.213-0.594-0.54-0.819-0.98c-0.228-0.44-0.34-0.913-0.34-1.42c0-1.173,0.612-2.013,1.84-2.52
		c0.772-0.293,1.673-0.513,2.7-0.66C755.861,222.734,756.868,222.66,757.855,222.66z M758.096,238.62c0.586,0,1.166-0.06,1.74-0.18
		c0.572-0.12,1.006-0.273,1.3-0.46v-3.68l-3.28,0.28c-0.854,0.08-1.54,0.273-2.06,0.58c-0.521,0.307-0.78,0.767-0.78,1.38
		c0,0.64,0.24,1.147,0.72,1.52C756.216,238.434,757.002,238.62,758.096,238.62z"/>
	<path fill="#ECE2D0" d="M778.335,237.76c0.479,0.334,1.146,0.5,2,0.5c0.4,0,0.826-0.046,1.28-0.14
		c0.453-0.093,0.84-0.207,1.159-0.34c0.24,0.267,0.44,0.574,0.601,0.92s0.24,0.747,0.24,1.2c0,0.934-0.367,1.7-1.101,2.3
		c-0.733,0.6-2.007,0.9-3.819,0.9c-2.24,0-3.987-0.514-5.24-1.54c-1.254-1.026-1.88-2.7-1.88-5.02v-17.96
		c0.293-0.08,0.68-0.167,1.16-0.26c0.479-0.093,1-0.14,1.56-0.14c1.173,0,2.02,0.207,2.54,0.62c0.52,0.414,0.78,1.167,0.78,2.26v2.6
		h5.52c0.133,0.267,0.267,0.607,0.4,1.02c0.133,0.414,0.2,0.847,0.2,1.3c0,0.854-0.194,1.467-0.58,1.84
		c-0.388,0.374-0.888,0.56-1.5,0.56h-4.04v7.76C777.615,236.887,777.854,237.427,778.335,237.76z"/>
	<path fill="#ECE2D0" d="M342.26,279.06c-0.24,0.987-0.507,2-0.8,3.04c-0.294,1.04-0.587,2.054-0.88,3.04
		c-0.294,0.987-0.574,1.894-0.84,2.72c-0.267,0.827-0.48,1.507-0.64,2.04c-0.72,0.64-1.867,0.96-3.44,0.96
		c-0.96,0-1.8-0.134-2.52-0.4c-0.72-0.266-1.2-0.666-1.44-1.2c-0.294-0.64-0.64-1.653-1.04-3.04c-0.4-1.386-0.794-2.906-1.18-4.56
		c-0.387-1.653-0.754-3.333-1.1-5.04c-0.347-1.707-0.627-3.2-0.84-4.48c0.32-0.346,0.766-0.646,1.34-0.9
		c0.573-0.253,1.193-0.38,1.86-0.38c0.853,0,1.546,0.194,2.08,0.58c0.533,0.387,0.866,1.047,1,1.98c0.267,1.867,0.5,3.467,0.7,4.8
		s0.38,2.467,0.54,3.4c0.16,0.934,0.3,1.687,0.42,2.26c0.12,0.574,0.206,1.02,0.26,1.34h0.16c0.106-0.426,0.266-1.066,0.48-1.92
		c0.213-0.853,0.466-1.82,0.76-2.9c0.293-1.08,0.606-2.24,0.94-3.48c0.333-1.24,0.66-2.486,0.98-3.74
		c0.453-0.267,0.926-0.473,1.42-0.62c0.493-0.146,1.086-0.22,1.78-0.22c0.854,0,1.58,0.14,2.18,0.42c0.6,0.28,0.98,0.7,1.14,1.26
		c0.346,1.2,0.68,2.38,1,3.54c0.32,1.16,0.613,2.234,0.88,3.22c0.266,0.987,0.5,1.867,0.7,2.64c0.2,0.774,0.353,1.374,0.46,1.8h0.2
		c0.374-2.106,0.733-4.313,1.08-6.62c0.346-2.306,0.667-4.646,0.96-7.02c0.426-0.24,0.88-0.42,1.36-0.54s0.96-0.18,1.44-0.18
		c0.826,0,1.513,0.18,2.06,0.54c0.546,0.36,0.82,0.98,0.82,1.86c0,0.4-0.074,1.027-0.22,1.88c-0.146,0.854-0.333,1.813-0.56,2.88
		c-0.227,1.067-0.487,2.194-0.78,3.38c-0.294,1.187-0.587,2.327-0.88,3.42c-0.294,1.094-0.58,2.094-0.86,3
		c-0.28,0.907-0.514,1.6-0.7,2.08c-0.294,0.294-0.787,0.527-1.48,0.7c-0.694,0.173-1.44,0.26-2.24,0.26
		c-2.027,0-3.213-0.493-3.56-1.48c-0.187-0.533-0.414-1.186-0.68-1.96c-0.267-0.773-0.54-1.62-0.82-2.54
		c-0.28-0.92-0.554-1.88-0.82-2.88C342.673,281,342.446,280.02,342.26,279.06z"/>
	<path fill="#ECE2D0" d="M359.74,265.74c0-0.906,0.313-1.68,0.94-2.32c0.626-0.64,1.446-0.96,2.46-0.96
		c1.013,0,1.833,0.32,2.46,0.96c0.626,0.64,0.94,1.414,0.94,2.32c0,0.934-0.313,1.72-0.94,2.36c-0.627,0.64-1.447,0.96-2.46,0.96
		c-1.014,0-1.833-0.32-2.46-0.96C360.053,267.46,359.74,266.674,359.74,265.74z M366.18,290.46c-0.267,0.08-0.64,0.153-1.12,0.22
		c-0.48,0.066-1.014,0.1-1.6,0.1c-1.2,0-2.06-0.193-2.58-0.58s-0.78-1.14-0.78-2.26V271.5c0.266-0.08,0.64-0.16,1.12-0.24
		c0.48-0.08,1.013-0.12,1.6-0.12c1.2,0,2.06,0.2,2.58,0.6c0.52,0.4,0.78,1.16,0.78,2.28V290.46z"/>
	<path fill="#ECE2D0" d="M377.699,285.76c0.48,0.334,1.146,0.5,2,0.5c0.4,0,0.826-0.046,1.28-0.14c0.453-0.093,0.84-0.207,1.16-0.34
		c0.24,0.267,0.44,0.574,0.6,0.92c0.16,0.347,0.24,0.747,0.24,1.2c0,0.934-0.367,1.7-1.1,2.3c-0.733,0.6-2.007,0.9-3.82,0.9
		c-2.24,0-3.987-0.514-5.24-1.54c-1.254-1.026-1.88-2.7-1.88-5.02v-17.96c0.293-0.08,0.68-0.167,1.16-0.26
		c0.48-0.093,1-0.14,1.56-0.14c1.173,0,2.02,0.207,2.54,0.62c0.52,0.414,0.78,1.167,0.78,2.26v2.6h5.52
		c0.133,0.267,0.267,0.607,0.4,1.02c0.133,0.414,0.2,0.847,0.2,1.3c0,0.854-0.194,1.467-0.58,1.84c-0.387,0.374-0.887,0.56-1.5,0.56
		h-4.04v7.76C376.979,284.887,377.219,285.427,377.699,285.76z"/>
	<path fill="#ECE2D0" d="M391.619,290.68c-0.48,0.066-1.014,0.1-1.6,0.1c-1.2,0-2.067-0.193-2.6-0.58
		c-0.534-0.386-0.8-1.14-0.8-2.26v-23.48c0.293-0.08,0.68-0.16,1.16-0.24c0.48-0.08,1.013-0.12,1.6-0.12c1.2,0,2.06,0.2,2.58,0.6
		c0.52,0.4,0.78,1.16,0.78,2.28v4.6c0.56-0.266,1.193-0.486,1.9-0.66c0.707-0.173,1.473-0.26,2.3-0.26c2.56,0,4.566,0.646,6.02,1.94
		c1.453,1.293,2.18,3.234,2.18,5.82v12.04c-0.267,0.08-0.64,0.153-1.12,0.22c-0.48,0.066-1.014,0.1-1.6,0.1
		c-1.2,0-2.067-0.193-2.6-0.58c-0.534-0.386-0.8-1.14-0.8-2.26v-9.16c0-1.2-0.3-2.053-0.9-2.56c-0.6-0.506-1.367-0.76-2.3-0.76
		c-0.614,0-1.174,0.087-1.68,0.26c-0.507,0.173-0.974,0.38-1.4,0.62v14.12C392.472,290.54,392.099,290.613,391.619,290.68z"/>
	<path fill="#ECE2D0" d="M417.539,265.74c0-0.906,0.313-1.68,0.94-2.32c0.626-0.64,1.446-0.96,2.46-0.96
		c1.013,0,1.833,0.32,2.46,0.96c0.626,0.64,0.94,1.414,0.94,2.32c0,0.934-0.313,1.72-0.94,2.36c-0.627,0.64-1.447,0.96-2.46,0.96
		c-1.014,0-1.833-0.32-2.46-0.96C417.852,267.46,417.539,266.674,417.539,265.74z M423.979,290.46c-0.267,0.08-0.64,0.153-1.12,0.22
		c-0.48,0.066-1.014,0.1-1.6,0.1c-1.2,0-2.06-0.193-2.58-0.58s-0.78-1.14-0.78-2.26V271.5c0.266-0.08,0.64-0.16,1.12-0.24
		c0.48-0.08,1.013-0.12,1.6-0.12c1.2,0,2.06,0.2,2.58,0.6c0.52,0.4,0.78,1.16,0.78,2.28V290.46z"/>
	<path fill="#ECE2D0" d="M440.258,276.14c-0.56-0.453-1.307-0.68-2.24-0.68c-0.64,0-1.227,0.08-1.76,0.24
		c-0.534,0.16-1.027,0.36-1.48,0.6v14.16c-0.267,0.08-0.64,0.153-1.12,0.22c-0.48,0.066-1.014,0.1-1.6,0.1
		c-1.2,0-2.067-0.193-2.6-0.58c-0.534-0.386-0.8-1.14-0.8-2.26v-12.36c0-0.693,0.146-1.253,0.44-1.68
		c0.293-0.426,0.706-0.826,1.24-1.2c0.853-0.613,1.953-1.106,3.3-1.48c1.346-0.374,2.833-0.56,4.46-0.56
		c2.906,0,5.153,0.64,6.74,1.92c1.586,1.28,2.38,3.107,2.38,5.48v12.4c-0.293,0.08-0.68,0.153-1.16,0.22
		c-0.48,0.066-1.014,0.1-1.6,0.1c-1.2,0-2.06-0.193-2.58-0.58s-0.78-1.14-0.78-2.26v-9.72
		C441.098,277.287,440.818,276.594,440.258,276.14z"/>
	<path fill="#ECE2D0" d="M467.498,284.86c0,1.974-0.734,3.514-2.2,4.62c-1.467,1.106-3.626,1.66-6.48,1.66
		c-1.12,0-2.14-0.08-3.06-0.24c-0.92-0.16-1.713-0.4-2.38-0.72c-0.667-0.32-1.187-0.72-1.56-1.2s-0.56-1.04-0.56-1.68
		c0-0.586,0.12-1.086,0.36-1.5c0.24-0.413,0.546-0.753,0.92-1.02c0.773,0.454,1.653,0.854,2.64,1.2
		c0.986,0.347,2.133,0.52,3.44,0.52c1.893,0,2.84-0.533,2.84-1.6c0-0.453-0.167-0.8-0.5-1.04c-0.333-0.24-0.9-0.453-1.7-0.64
		l-1.6-0.36c-2.187-0.453-3.814-1.153-4.88-2.1c-1.067-0.946-1.6-2.273-1.6-3.98c0-1.893,0.766-3.393,2.3-4.5
		c1.533-1.106,3.593-1.66,6.18-1.66c0.96,0,1.866,0.074,2.72,0.22c0.853,0.147,1.586,0.367,2.2,0.66c0.613,0.294,1.1,0.66,1.46,1.1
		s0.54,0.954,0.54,1.54c0,0.534-0.107,1.007-0.32,1.42c-0.213,0.414-0.494,0.754-0.84,1.02c-0.214-0.133-0.527-0.28-0.94-0.44
		c-0.414-0.16-0.86-0.306-1.34-0.44c-0.48-0.133-0.987-0.24-1.52-0.32c-0.534-0.08-1.027-0.12-1.48-0.12
		c-0.934,0-1.66,0.127-2.18,0.38s-0.78,0.634-0.78,1.14c0,0.374,0.146,0.667,0.44,0.88c0.293,0.213,0.826,0.414,1.6,0.6l1.52,0.36
		c2.426,0.534,4.16,1.307,5.2,2.32C466.978,281.954,467.498,283.26,467.498,284.86z"/>
	<path fill="#ECE2D0" d="M480.697,291.1c-0.694,0-1.333-0.06-1.92-0.18c-0.587-0.12-1.12-0.273-1.6-0.46v7.16
		c-0.267,0.08-0.64,0.16-1.12,0.24c-0.48,0.08-1.014,0.12-1.6,0.12c-1.2,0-2.067-0.2-2.6-0.6c-0.534-0.4-0.8-1.16-0.8-2.28v-19.8
		c0-0.693,0.146-1.26,0.44-1.7c0.293-0.44,0.706-0.833,1.24-1.18c0.8-0.506,1.826-0.926,3.08-1.26c1.253-0.333,2.64-0.5,4.16-0.5
		c1.546,0,2.966,0.193,4.26,0.58c1.293,0.387,2.406,0.994,3.34,1.82c0.934,0.827,1.66,1.88,2.18,3.16c0.52,1.28,0.78,2.8,0.78,4.56
		c0,1.68-0.247,3.167-0.74,4.46c-0.494,1.293-1.18,2.374-2.06,3.24c-0.88,0.867-1.92,1.52-3.12,1.96
		C483.417,290.88,482.11,291.1,480.697,291.1z M479.777,286.26c1.44,0,2.553-0.453,3.34-1.36c0.787-0.906,1.18-2.28,1.18-4.12
		c0-1.893-0.38-3.253-1.14-4.08c-0.76-0.827-1.82-1.24-3.18-1.24c-0.614,0-1.147,0.074-1.6,0.22c-0.454,0.146-0.867,0.313-1.24,0.5
		v9.4c0.374,0.214,0.773,0.38,1.2,0.5C478.764,286.2,479.244,286.26,479.777,286.26z"/>
	<path fill="#ECE2D0" d="M494.017,265.74c0-0.906,0.313-1.68,0.94-2.32c0.626-0.64,1.446-0.96,2.46-0.96
		c1.013,0,1.833,0.32,2.46,0.96c0.626,0.64,0.94,1.414,0.94,2.32c0,0.934-0.313,1.72-0.94,2.36c-0.627,0.64-1.447,0.96-2.46,0.96
		c-1.014,0-1.833-0.32-2.46-0.96C494.33,267.46,494.017,266.674,494.017,265.74z M500.457,290.46c-0.267,0.08-0.64,0.153-1.12,0.22
		c-0.48,0.066-1.014,0.1-1.6,0.1c-1.2,0-2.06-0.193-2.58-0.58s-0.78-1.14-0.78-2.26V271.5c0.266-0.08,0.64-0.16,1.12-0.24
		c0.48-0.08,1.013-0.12,1.6-0.12c1.2,0,2.06,0.2,2.58,0.6c0.52,0.4,0.78,1.16,0.78,2.28V290.46z"/>
	<path fill="#ECE2D0" d="M511.256,290.46c-0.267,0.08-0.64,0.153-1.12,0.22c-0.48,0.066-1.014,0.1-1.6,0.1
		c-1.2,0-2.067-0.193-2.6-0.58c-0.534-0.386-0.8-1.14-0.8-2.26v-12.2c0-0.747,0.186-1.387,0.56-1.92c0.374-0.533,0.894-1,1.56-1.4
		c0.88-0.533,1.94-0.953,3.18-1.26c1.24-0.307,2.54-0.46,3.9-0.46c2.773,0,4.16,0.934,4.16,2.8c0,0.454-0.067,0.867-0.2,1.24
		c-0.134,0.374-0.28,0.693-0.44,0.96c-0.614-0.133-1.36-0.2-2.24-0.2c-0.774,0-1.547,0.094-2.32,0.28
		c-0.773,0.187-1.454,0.44-2.04,0.76V290.46z"/>
	<path fill="#ECE2D0" d="M521.177,265.74c0-0.906,0.313-1.68,0.94-2.32c0.626-0.64,1.446-0.96,2.46-0.96
		c1.013,0,1.833,0.32,2.46,0.96c0.626,0.64,0.94,1.414,0.94,2.32c0,0.934-0.313,1.72-0.94,2.36c-0.627,0.64-1.447,0.96-2.46,0.96
		c-1.014,0-1.833-0.32-2.46-0.96C521.49,267.46,521.177,266.674,521.177,265.74z M527.617,290.46c-0.267,0.08-0.64,0.153-1.12,0.22
		c-0.48,0.066-1.014,0.1-1.6,0.1c-1.2,0-2.06-0.193-2.58-0.58s-0.78-1.14-0.78-2.26V271.5c0.266-0.08,0.64-0.16,1.12-0.24
		c0.48-0.08,1.013-0.12,1.6-0.12c1.2,0,2.06,0.2,2.58,0.6c0.52,0.4,0.78,1.16,0.78,2.28V290.46z"/>
	<path fill="#ECE2D0" d="M543.896,276.14c-0.56-0.453-1.307-0.68-2.24-0.68c-0.64,0-1.227,0.08-1.76,0.24
		c-0.534,0.16-1.027,0.36-1.48,0.6v14.16c-0.267,0.08-0.64,0.153-1.12,0.22c-0.48,0.066-1.014,0.1-1.6,0.1
		c-1.2,0-2.067-0.193-2.6-0.58c-0.534-0.386-0.8-1.14-0.8-2.26v-12.36c0-0.693,0.146-1.253,0.44-1.68
		c0.293-0.426,0.706-0.826,1.24-1.2c0.853-0.613,1.953-1.106,3.3-1.48c1.346-0.374,2.833-0.56,4.46-0.56
		c2.906,0,5.153,0.64,6.74,1.92c1.586,1.28,2.38,3.107,2.38,5.48v12.4c-0.293,0.08-0.68,0.153-1.16,0.22
		c-0.48,0.066-1.014,0.1-1.6,0.1c-1.2,0-2.06-0.193-2.58-0.58s-0.78-1.14-0.78-2.26v-9.72
		C544.736,277.287,544.456,276.594,543.896,276.14z"/>
	<path fill="#ECE2D0" d="M567.456,288.94c-0.534,0.24-1.134,0.434-1.8,0.58c-0.667,0.147-1.427,0.22-2.28,0.22
		c-1.2,0-2.34-0.167-3.42-0.5c-1.08-0.333-2.02-0.874-2.82-1.62s-1.44-1.72-1.92-2.92c-0.48-1.2-0.72-2.667-0.72-4.4
		c0-1.573,0.24-2.96,0.72-4.16c0.48-1.2,1.166-2.207,2.06-3.02c0.893-0.813,1.96-1.426,3.2-1.84c1.24-0.413,2.62-0.62,4.14-0.62
		c1.493,0,2.86,0.193,4.1,0.58c1.24,0.387,2.206,0.807,2.9,1.26c0.506,0.347,0.906,0.74,1.2,1.18c0.293,0.44,0.44,0.994,0.44,1.66
		v15.08c0,1.386-0.254,2.586-0.76,3.6c-0.507,1.013-1.207,1.846-2.1,2.5c-0.894,0.653-1.94,1.14-3.14,1.46
		c-1.2,0.32-2.494,0.48-3.88,0.48c-1.44,0-2.687-0.12-3.74-0.36c-1.054-0.24-1.887-0.547-2.5-0.92c-0.907-0.64-1.36-1.494-1.36-2.56
		c0-0.56,0.12-1.074,0.36-1.54c0.24-0.467,0.506-0.807,0.8-1.02c0.747,0.426,1.606,0.793,2.58,1.1c0.973,0.306,2.006,0.46,3.1,0.46
		c1.493,0,2.673-0.26,3.54-0.78c0.866-0.52,1.3-1.38,1.3-2.58V288.94z M564.456,285.14c0.64,0,1.193-0.08,1.66-0.24
		c0.466-0.16,0.886-0.373,1.26-0.64v-8.2c-0.32-0.133-0.674-0.266-1.06-0.4c-0.387-0.133-0.874-0.2-1.46-0.2
		c-1.28,0-2.314,0.394-3.1,1.18c-0.787,0.787-1.18,2.02-1.18,3.7c0,0.907,0.1,1.667,0.3,2.28c0.2,0.614,0.473,1.107,0.82,1.48
		c0.346,0.374,0.753,0.64,1.22,0.8C563.382,285.06,563.896,285.14,564.456,285.14z"/>
	<path fill="#ECE2D0" d="M599.295,279.06c-0.24,0.987-0.507,2-0.8,3.04c-0.294,1.04-0.587,2.054-0.88,3.04
		c-0.294,0.987-0.574,1.894-0.84,2.72c-0.267,0.827-0.48,1.507-0.64,2.04c-0.72,0.64-1.867,0.96-3.44,0.96
		c-0.96,0-1.8-0.134-2.52-0.4c-0.72-0.266-1.2-0.666-1.44-1.2c-0.294-0.64-0.64-1.653-1.04-3.04c-0.4-1.386-0.794-2.906-1.18-4.56
		c-0.387-1.653-0.754-3.333-1.1-5.04c-0.347-1.707-0.627-3.2-0.84-4.48c0.32-0.346,0.766-0.646,1.34-0.9
		c0.573-0.253,1.193-0.38,1.86-0.38c0.853,0,1.546,0.194,2.08,0.58c0.533,0.387,0.866,1.047,1,1.98c0.267,1.867,0.5,3.467,0.7,4.8
		s0.38,2.467,0.54,3.4c0.16,0.934,0.3,1.687,0.42,2.26c0.12,0.574,0.206,1.02,0.26,1.34h0.16c0.106-0.426,0.266-1.066,0.48-1.92
		c0.213-0.853,0.466-1.82,0.76-2.9c0.293-1.08,0.606-2.24,0.94-3.48c0.333-1.24,0.66-2.486,0.98-3.74
		c0.453-0.267,0.926-0.473,1.42-0.62c0.493-0.146,1.086-0.22,1.78-0.22c0.854,0,1.58,0.14,2.18,0.42c0.6,0.28,0.98,0.7,1.14,1.26
		c0.346,1.2,0.68,2.38,1,3.54c0.32,1.16,0.613,2.234,0.88,3.22c0.266,0.987,0.5,1.867,0.7,2.64c0.2,0.774,0.353,1.374,0.46,1.8h0.2
		c0.374-2.106,0.733-4.313,1.08-6.62c0.346-2.306,0.667-4.646,0.96-7.02c0.426-0.24,0.88-0.42,1.36-0.54s0.96-0.18,1.44-0.18
		c0.826,0,1.513,0.18,2.06,0.54c0.546,0.36,0.82,0.98,0.82,1.86c0,0.4-0.074,1.027-0.22,1.88c-0.146,0.854-0.333,1.813-0.56,2.88
		c-0.227,1.067-0.487,2.194-0.78,3.38c-0.294,1.187-0.587,2.327-0.88,3.42c-0.294,1.094-0.58,2.094-0.86,3
		c-0.28,0.907-0.514,1.6-0.7,2.08c-0.294,0.294-0.787,0.527-1.48,0.7c-0.694,0.173-1.44,0.26-2.24,0.26
		c-2.027,0-3.213-0.493-3.56-1.48c-0.187-0.533-0.414-1.186-0.68-1.96c-0.267-0.773-0.54-1.62-0.82-2.54
		c-0.28-0.92-0.554-1.88-0.82-2.88C599.709,281,599.482,280.02,599.295,279.06z"/>
	<path fill="#ECE2D0" d="M636.415,280.86c0,1.574-0.24,2.994-0.72,4.26s-1.167,2.34-2.06,3.22c-0.894,0.88-1.967,1.56-3.22,2.04
		s-2.653,0.72-4.2,0.72c-1.547,0-2.954-0.234-4.22-0.7s-2.347-1.14-3.24-2.02c-0.894-0.88-1.58-1.953-2.06-3.22s-0.72-2.7-0.72-4.3
		c0-1.546,0.247-2.953,0.74-4.22c0.493-1.267,1.186-2.34,2.08-3.22c0.893-0.88,1.973-1.56,3.24-2.04c1.266-0.48,2.66-0.72,4.18-0.72
		s2.906,0.24,4.16,0.72s2.327,1.167,3.22,2.06c0.893,0.894,1.586,1.967,2.08,3.22C636.168,277.914,636.415,279.314,636.415,280.86z
		 M626.215,275.46c-1.254,0-2.227,0.467-2.92,1.4c-0.694,0.934-1.04,2.267-1.04,4c0,1.787,0.34,3.14,1.02,4.06
		c0.68,0.92,1.66,1.38,2.94,1.38c1.28,0,2.26-0.466,2.94-1.4c0.68-0.933,1.02-2.28,1.02-4.04c0-1.706-0.347-3.033-1.04-3.98
		C628.441,275.934,627.468,275.46,626.215,275.46z"/>
	<path fill="#ECE2D0" d="M669.174,290.46c-0.293,0.08-0.68,0.153-1.16,0.22c-0.48,0.066-1.014,0.1-1.6,0.1
		c-1.2,0-2.06-0.193-2.58-0.58s-0.78-1.14-0.78-2.26v-9.92c0-0.88-0.24-1.526-0.72-1.94c-0.48-0.413-1.134-0.62-1.96-0.62
		c-0.534,0-1.034,0.094-1.5,0.28c-0.467,0.187-0.887,0.427-1.26,0.72c0.026,0.134,0.046,0.267,0.06,0.4
		c0.013,0.134,0.02,0.267,0.02,0.4v13.2c-0.293,0.08-0.68,0.153-1.16,0.22c-0.48,0.066-1.014,0.1-1.6,0.1
		c-1.2,0-2.06-0.193-2.58-0.58s-0.78-1.14-0.78-2.26v-9.92c0-0.88-0.267-1.526-0.8-1.94c-0.534-0.413-1.187-0.62-1.96-0.62
		c-0.56,0-1.067,0.087-1.52,0.26c-0.454,0.173-0.827,0.34-1.12,0.5v14.24c-0.267,0.08-0.64,0.153-1.12,0.22
		c-0.48,0.066-1.014,0.1-1.6,0.1c-1.2,0-2.067-0.193-2.6-0.58c-0.534-0.386-0.8-1.14-0.8-2.26v-12.36c0-0.693,0.146-1.253,0.44-1.68
		c0.293-0.426,0.706-0.826,1.24-1.2c0.88-0.613,1.966-1.106,3.26-1.48c1.293-0.374,2.646-0.56,4.06-0.56
		c1.12,0,2.18,0.154,3.18,0.46c1,0.307,1.913,0.78,2.74,1.42c0.8-0.533,1.706-0.98,2.72-1.34c1.013-0.36,2.213-0.54,3.6-0.54
		c1.04,0,2.033,0.127,2.98,0.38c0.946,0.254,1.78,0.667,2.5,1.24c0.72,0.574,1.3,1.32,1.74,2.24c0.44,0.92,0.66,2.034,0.66,3.34
		V290.46z"/>
	<path fill="#ECE2D0" d="M678.894,283.42c0.373,1.12,1.026,1.914,1.96,2.38c0.933,0.467,2.013,0.7,3.24,0.7
		c1.12,0,2.173-0.153,3.16-0.46c0.986-0.306,1.787-0.646,2.4-1.02c0.4,0.267,0.733,0.614,1,1.04c0.266,0.427,0.4,0.894,0.4,1.4
		c0,0.614-0.187,1.147-0.56,1.6c-0.374,0.454-0.887,0.833-1.54,1.14c-0.654,0.306-1.427,0.533-2.32,0.68
		c-0.894,0.146-1.874,0.22-2.94,0.22c-1.574,0-3.027-0.22-4.36-0.66c-1.333-0.44-2.48-1.093-3.44-1.96
		c-0.96-0.866-1.714-1.953-2.26-3.26c-0.547-1.307-0.82-2.84-0.82-4.6c0-1.707,0.273-3.187,0.82-4.44
		c0.546-1.253,1.28-2.293,2.2-3.12c0.92-0.826,1.973-1.433,3.16-1.82c1.186-0.387,2.406-0.58,3.66-0.58
		c1.36,0,2.606,0.207,3.74,0.62c1.133,0.414,2.106,0.994,2.92,1.74c0.813,0.747,1.446,1.64,1.9,2.68c0.453,1.04,0.68,2.173,0.68,3.4
		c0,0.854-0.227,1.494-0.68,1.92c-0.454,0.427-1.094,0.707-1.92,0.84L678.894,283.42z M682.694,275.18c-1.147,0-2.1,0.354-2.86,1.06
		c-0.76,0.707-1.207,1.727-1.34,3.06l7.64-1.24c-0.054-0.693-0.36-1.346-0.92-1.96C684.654,275.487,683.814,275.18,682.694,275.18z"
		/>
	<path fill="#ECE2D0" d="M707.014,276.14c-0.56-0.453-1.307-0.68-2.24-0.68c-0.64,0-1.227,0.08-1.76,0.24
		c-0.534,0.16-1.027,0.36-1.48,0.6v14.16c-0.267,0.08-0.64,0.153-1.12,0.22c-0.48,0.066-1.014,0.1-1.6,0.1
		c-1.2,0-2.067-0.193-2.6-0.58c-0.534-0.386-0.8-1.14-0.8-2.26v-12.36c0-0.693,0.146-1.253,0.44-1.68
		c0.293-0.426,0.706-0.826,1.24-1.2c0.853-0.613,1.953-1.106,3.3-1.48c1.346-0.374,2.833-0.56,4.46-0.56
		c2.906,0,5.153,0.64,6.739,1.92c1.586,1.28,2.381,3.107,2.381,5.48v12.4c-0.295,0.08-0.68,0.153-1.16,0.22
		c-0.48,0.066-1.014,0.1-1.6,0.1c-1.201,0-2.061-0.193-2.58-0.58c-0.521-0.386-0.78-1.14-0.78-2.26v-9.72
		C707.854,277.287,707.574,276.594,707.014,276.14z"/>
	<path fill="#ECE2D0" d="M726.334,265.74c0-0.906,0.313-1.68,0.939-2.32c0.627-0.64,1.446-0.96,2.461-0.96
		c1.013,0,1.833,0.32,2.46,0.96c0.626,0.64,0.939,1.414,0.939,2.32c0,0.934-0.313,1.72-0.939,2.36c-0.627,0.64-1.447,0.96-2.46,0.96
		c-1.015,0-1.834-0.32-2.461-0.96C726.647,267.46,726.334,266.674,726.334,265.74z M732.773,290.46
		c-0.267,0.08-0.64,0.153-1.119,0.22c-0.48,0.066-1.014,0.1-1.601,0.1c-1.2,0-2.06-0.193-2.58-0.58
		c-0.52-0.386-0.779-1.14-0.779-2.26V271.5c0.266-0.08,0.64-0.16,1.119-0.24c0.48-0.08,1.014-0.12,1.601-0.12
		c1.2,0,2.06,0.2,2.58,0.6c0.52,0.4,0.779,1.16,0.779,2.28V290.46z"/>
	<path fill="#ECE2D0" d="M749.053,276.14c-0.56-0.453-1.307-0.68-2.24-0.68c-0.64,0-1.227,0.08-1.76,0.24
		c-0.533,0.16-1.026,0.36-1.479,0.6v14.16c-0.268,0.08-0.641,0.153-1.12,0.22c-0.48,0.066-1.014,0.1-1.601,0.1
		c-1.199,0-2.066-0.193-2.6-0.58c-0.534-0.386-0.8-1.14-0.8-2.26v-12.36c0-0.693,0.146-1.253,0.439-1.68
		c0.293-0.426,0.707-0.826,1.24-1.2c0.854-0.613,1.953-1.106,3.3-1.48s2.833-0.56,4.46-0.56c2.906,0,5.153,0.64,6.74,1.92
		c1.586,1.28,2.38,3.107,2.38,5.48v12.4c-0.294,0.08-0.68,0.153-1.16,0.22c-0.479,0.066-1.014,0.1-1.6,0.1
		c-1.2,0-2.06-0.193-2.58-0.58c-0.52-0.386-0.78-1.14-0.78-2.26v-9.72C749.893,277.287,749.613,276.594,749.053,276.14z"/>
	<path fill="#ECE2D0" d="M775.373,285.76c0.479,0.334,1.146,0.5,2,0.5c0.4,0,0.826-0.046,1.28-0.14
		c0.453-0.093,0.84-0.207,1.159-0.34c0.24,0.267,0.44,0.574,0.601,0.92s0.24,0.747,0.24,1.2c0,0.934-0.367,1.7-1.101,2.3
		c-0.733,0.6-2.007,0.9-3.819,0.9c-2.24,0-3.987-0.514-5.24-1.54c-1.254-1.026-1.88-2.7-1.88-5.02v-17.96
		c0.293-0.08,0.68-0.167,1.16-0.26c0.479-0.093,1-0.14,1.56-0.14c1.173,0,2.02,0.207,2.54,0.62c0.52,0.414,0.78,1.167,0.78,2.26v2.6
		h5.52c0.133,0.267,0.267,0.607,0.4,1.02c0.133,0.414,0.2,0.847,0.2,1.3c0,0.854-0.194,1.467-0.58,1.84
		c-0.388,0.374-0.888,0.56-1.5,0.56h-4.04v7.76C774.653,284.887,774.893,285.427,775.373,285.76z"/>
	<path fill="#ECE2D0" d="M789.174,283.42c0.373,1.12,1.025,1.914,1.96,2.38c0.933,0.467,2.013,0.7,3.239,0.7
		c1.12,0,2.174-0.153,3.16-0.46c0.986-0.306,1.786-0.646,2.4-1.02c0.399,0.267,0.733,0.614,1,1.04
		c0.266,0.427,0.399,0.894,0.399,1.4c0,0.614-0.187,1.147-0.56,1.6c-0.374,0.454-0.887,0.833-1.54,1.14
		c-0.653,0.306-1.427,0.533-2.32,0.68c-0.894,0.146-1.873,0.22-2.939,0.22c-1.574,0-3.027-0.22-4.36-0.66
		c-1.334-0.44-2.479-1.093-3.439-1.96c-0.96-0.866-1.714-1.953-2.261-3.26s-0.819-2.84-0.819-4.6c0-1.707,0.272-3.187,0.819-4.44
		s1.28-2.293,2.2-3.12c0.92-0.826,1.974-1.433,3.16-1.82s2.406-0.58,3.66-0.58c1.359,0,2.606,0.207,3.74,0.62
		c1.133,0.414,2.105,0.994,2.92,1.74c0.812,0.747,1.446,1.64,1.899,2.68s0.681,2.173,0.681,3.4c0,0.854-0.228,1.494-0.681,1.92
		c-0.453,0.427-1.094,0.707-1.92,0.84L789.174,283.42z M792.974,275.18c-1.147,0-2.101,0.354-2.86,1.06s-1.207,1.727-1.34,3.06
		l7.64-1.24c-0.054-0.693-0.359-1.346-0.92-1.96C794.934,275.487,794.094,275.18,792.974,275.18z"/>
	<path fill="#ECE2D0" d="M816.213,275.5c-1.439,0-2.667,0.46-3.68,1.38c-1.014,0.92-1.521,2.274-1.521,4.06
		c0,1.787,0.486,3.12,1.46,4s2.207,1.32,3.7,1.32c0.854,0,1.606-0.113,2.261-0.34c0.652-0.226,1.206-0.46,1.659-0.7
		c0.453,0.347,0.807,0.713,1.061,1.1c0.253,0.387,0.38,0.86,0.38,1.42c0,1.014-0.534,1.827-1.6,2.44
		c-1.067,0.613-2.547,0.92-4.44,0.92c-1.6,0-3.06-0.214-4.38-0.64s-2.447-1.066-3.38-1.92c-0.934-0.853-1.654-1.913-2.16-3.18
		c-0.507-1.266-0.76-2.74-0.76-4.42c0-1.733,0.279-3.24,0.84-4.52c0.56-1.28,1.319-2.346,2.28-3.2
		c0.96-0.854,2.079-1.493,3.359-1.92c1.28-0.426,2.626-0.64,4.04-0.64c1.84,0,3.286,0.333,4.34,1s1.58,1.507,1.58,2.52
		c0,0.48-0.113,0.92-0.34,1.32s-0.5,0.747-0.82,1.04c-0.479-0.266-1.047-0.506-1.699-0.72
		C817.739,275.607,817.013,275.5,816.213,275.5z"/>
	<path fill="#ECE2D0" d="M830.254,290.68c-0.48,0.066-1.014,0.1-1.601,0.1c-1.2,0-2.066-0.193-2.6-0.58
		c-0.534-0.386-0.8-1.14-0.8-2.26v-23.48c0.293-0.08,0.68-0.16,1.16-0.24c0.479-0.08,1.013-0.12,1.6-0.12c1.2,0,2.06,0.2,2.58,0.6
		c0.52,0.4,0.78,1.16,0.78,2.28v4.6c0.56-0.266,1.192-0.486,1.899-0.66c0.706-0.173,1.474-0.26,2.3-0.26
		c2.561,0,4.566,0.646,6.021,1.94c1.453,1.293,2.18,3.234,2.18,5.82v12.04c-0.267,0.08-0.64,0.153-1.12,0.22
		c-0.479,0.066-1.014,0.1-1.6,0.1c-1.2,0-2.067-0.193-2.601-0.58s-0.8-1.14-0.8-2.26v-9.16c0-1.2-0.3-2.053-0.899-2.56
		c-0.601-0.506-1.367-0.76-2.301-0.76c-0.613,0-1.173,0.087-1.68,0.26s-0.974,0.38-1.399,0.62v14.12
		C831.106,290.54,830.733,290.613,830.254,290.68z"/>
</g>
<g>
	<path opacity="0.2" fill="#491B1B" d="M1133.121,199.533l-0.184,11.369c-0.046,2.897-2.438,5.209-5.335,5.163l-32.651-0.527
		c-2.165,14.621-8.702,28.749-19.646,40.289c-28.325,29.859-75.482,31.095-105.341,2.771
		c-29.859-28.325-31.106-75.482-2.783-105.341c28.325-29.859,75.494-31.095,105.353-2.771
		c12.594,11.953,20.093,27.249,22.429,43.186h0.194l32.802,0.527C1130.854,194.243,1133.167,196.625,1133.121,199.533z"/>
	<path fill="#F49687" d="M1083.846,198.508c0.049-2.898,2.435-5.212,5.335-5.164l32.801,0.526c2.898,0.046,5.212,2.433,5.163,5.332
		l-0.181,11.371c-0.047,2.899-2.436,5.211-5.333,5.165l-32.802-0.527c-2.899-0.046-5.211-2.434-5.165-5.333L1083.846,198.508z"/>
	<circle fill="#F8AD9D" cx="1015.269" cy="204.218" r="74.515"/>
	<circle fill="#9D6B53" cx="1015.269" cy="204.218" r="62.688"/>
	<g>
		<defs>
			<circle id="SVGID_1_" cx="1015.27" cy="204.218" r="62.687"/>
		</defs>
		<clipPath id="SVGID_2_">
			<use xlink:href="#SVGID_1_"  overflow="visible"/>
		</clipPath>
		<path opacity="0.5" clip-path="url(#SVGID_2_)" fill="#6B4637" d="M917.24,111.135c0,0,29.892,190.853,150.681,132.247
			c202.666-98.331,30.716,48.16,30.716,48.16l-160.767,6.406L863.828,189.37L917.24,111.135z"/>
	</g>
	<circle opacity="0.5" fill="#FFF1E6" cx="1018.449" cy="151.041" r="6.305"/>
	<circle opacity="0.2" fill="#FFF1E6" cx="1026.796" cy="147.439" r="1.901"/>
	<circle opacity="0.8" fill="#FFF1E6" cx="1026.795" cy="157.345" r="2.455"/>
	<circle opacity="0.7" fill="#FFF1E6" cx="1008.336" cy="148.289" r="2.751"/>
	<circle opacity="0.1" fill="#FFF1E6" cx="1002.802" cy="148.658" r="1.582"/>
	<circle opacity="0.5" fill="#FFF1E6" cx="1004.918" cy="151.041" r="0.533"/>
</g>
<g>
	<path opacity="0.2" fill="#454545" d="M1016.021,419.923c0,41.786-33.881,75.666-75.678,75.666
		c-17.627,0-33.846-6.033-46.717-16.138l-0.14,0.14l-24.532,22.533c-2.163,2-5.534,1.848-7.534-0.313l-7.813-8.512
		c-1.988-2.163-1.849-5.534,0.326-7.521l24.427-22.439c-8.627-12.29-13.684-27.266-13.684-43.415
		c0-41.798,33.88-75.679,75.667-75.679C982.14,344.244,1016.021,378.125,1016.021,419.923z"/>
	<g>
		<path fill="#E5D2C3" d="M898.203,468.047c1.992,2.168,1.849,5.541-0.319,7.532l-24.536,22.539
			c-2.167,1.991-5.539,1.849-7.529-0.319l-7.814-8.506c-1.992-2.167-1.849-5.54,0.319-7.531l24.535-22.539
			c2.167-1.991,5.54-1.849,7.532,0.32L898.203,468.047z"/>
		<circle fill="#FFF1E6" cx="944.737" cy="415.91" r="75.673"/>
		<circle fill="#9D6B53" cx="944.737" cy="415.91" r="63.661"/>
		<g>
			<defs>
				<circle id="SVGID_5_" cx="944.737" cy="415.91" r="63.661"/>
			</defs>
			<clipPath id="SVGID_4_">
				<use xlink:href="#SVGID_5_"  overflow="visible"/>
			</clipPath>
			<path opacity="0.5" clip-path="url(#SVGID_4_)" fill="#6B4637" d="M870.204,295.838c0,0-31.561,193.625,103.544,175.304
				c226.686-30.74,14.396,56.193,14.396,56.193l-157.16-44.703l-37.083-128.206L870.204,295.838z"/>
		</g>
		<circle opacity="0.5" fill="#FFF1E6" cx="977.019" cy="378.073" r="9.309"/>
		<circle opacity="0.8" fill="#FFF1E6" cx="991.208" cy="385.88" r="4.43"/>
		<circle opacity="0.3" fill="#FFF1E6" cx="983.023" cy="390.311" r="2.253"/>
		<circle opacity="0.2" fill="#FFF1E6" cx="997.618" cy="390.311" r="1.712"/>
		<circle opacity="0.2" fill="#FFF1E6" cx="968.849" cy="365.763" r="1.713"/>
	</g>
</g>
<g>
	<path fill="#A1A1A1" d="M1374.614,608.188c2.415,7.396-1.623,15.348-9.018,17.763l-148.955,48.637
		c-7.396,2.415-15.347-1.623-17.763-9.018l-70.277-215.233c-2.415-7.395,1.622-15.347,9.017-17.762l148.956-48.638
		c7.396-2.414,15.348,1.623,17.762,9.018L1374.614,608.188z"/>
	<path fill="#454545" d="M1358.717,595.164c2.124,6.51-1.43,13.51-7.938,15.635l-131.116,42.812
		c-6.51,2.125-13.509-1.43-15.635-7.938l-61.859-189.454c-2.127-6.511,1.427-13.509,7.937-15.635l131.115-42.812
		c6.508-2.126,13.51,1.427,15.635,7.938L1358.717,595.164z"/>
</g>
<g>
	<g>
		<polygon fill="#FFFFFF" points="1334.961,514.368 1445.106,618.502 1435.324,628.807 1325.178,524.672 1325.251,524.594 
			1321.119,515.876 1317.573,507.705 1325.941,510.799 1334.888,514.443 		"/>
	</g>
	<g>
		<defs>
			<polygon id="SVGID_7_" points="1334.961,514.368 1445.106,618.502 1435.324,628.807 1325.178,524.672 1325.251,524.594 
				1321.119,515.876 1317.573,507.705 1325.941,510.799 1334.888,514.443 			"/>
		</defs>
		<clipPath id="SVGID_6_">
			<use xlink:href="#SVGID_7_"  overflow="visible"/>
		</clipPath>
		<path opacity="0.2" clip-path="url(#SVGID_6_)" fill="#454545" d="M1313.38,505.969c0,0,20.217,3.786,93.717,81.113
			c73.501,77.325-6.271-52.713-6.271-52.713l-59.545-64.435L1313.38,505.969z"/>
	</g>
</g>
<g>
	<polygon fill="#FFF1E6" points="1205.566,125.599 1205.566,125.599 1205.566,125.599 1205.566,125.599 1205.566,121.1 
		1205.566,121.1 1205.566,121.1 1205.566,121.1 	"/>
	<path fill="#A1A1A1" d="M1545.192,47.648c4.106-10.254-0.876-21.895-11.131-26.002L1237.013-97.312
		c-10.253-4.106-21.896,0.877-26.002,11.131l-68.02,169.851c-4.106,10.254,0.878,21.896,11.131,26.002l297.049,118.958
		c10.255,4.106,21.896-0.877,26.002-11.132L1545.192,47.648z"/>
	<path fill="#6C6C6C" d="M1380.062,167.481c-4.107,10.255-15.749,15.237-26.002,11.131l-95.146-38.103
		c-10.255-4.107-15.238-15.747-11.131-26.002l18.991-47.424c4.107-10.254,15.747-15.238,26.002-11.131l95.146,38.103
		c10.254,4.106,15.238,15.748,11.131,26.002L1380.062,167.481z"/>
	<path fill="#454545" d="M1500.976,103.592c2.009-5.015-0.429-10.708-5.442-12.716L1217.105-20.625
		c-5.015-2.008-10.707,0.429-12.716,5.444l0,0c-2.008,5.014,0.43,10.707,5.443,12.715l278.428,111.501
		C1493.275,111.043,1498.968,108.606,1500.976,103.592L1500.976,103.592z"/>
	<path fill="#454545" d="M1511.206,78.046c2.009-5.015-0.429-10.708-5.442-12.716L1227.336-46.171
		c-5.015-2.008-10.707,0.429-12.716,5.444l0,0c-2.008,5.014,0.43,10.707,5.443,12.715l278.428,111.501
		C1503.506,85.498,1509.198,83.06,1511.206,78.046L1511.206,78.046z"/>
	<path fill="#454545" d="M1521.437,52.5c2.009-5.015-0.429-10.708-5.442-12.716L1237.566-71.717
		c-5.015-2.008-10.707,0.429-12.716,5.444l0,0c-2.008,5.014,0.43,10.708,5.443,12.715l278.428,111.501
		C1513.736,59.951,1519.429,57.514,1521.437,52.5L1521.437,52.5z"/>
</g>
</svg>
