<?xml version="1.0" encoding="UTF-8"?>
<svg width="351px" height="294px" viewBox="0 0 351 294" version="1.1" xmlns="http://www.w3.org/2000/svg" xmlns:xlink="http://www.w3.org/1999/xlink">
    <title>undraw_Chatting_re_j55r</title>
    <g id="Page-1" stroke="none" stroke-width="1" fill="none" fill-rule="evenodd">
        <g id="A0" transform="translate(-1393.000000, -1732.000000)" fill-rule="nonzero">
            <g id="undraw_Chatting_re_j55r" transform="translate(1393.000000, 1732.000000)">
                <ellipse id="Oval" fill="#F2F2F2" cx="164.677" cy="286.047" rx="138.462" ry="7.08"></ellipse>
                <path d="M245.572,68.03 L243.998,68.03 L243.998,24.94 C243.998,11.1660183 232.831982,-2.84217094e-14 219.058,-2.84217094e-14 L127.766,-2.84217094e-14 C113.992018,-2.84217094e-14 102.826,11.1660183 102.826,24.94 L102.826,261.34 C102.826,275.113982 113.992018,286.28 127.766,286.28 L219.059,286.28 C225.673499,286.28 232.017086,283.6524 236.694243,278.975243 C241.3714,274.298086 243.999,267.954499 243.999,261.34 L243.999,98.702 L245.572,98.702 L245.572,68.03 Z" id="Path" fill="#3F3D56"></path>
                <path d="M238.691,25.114 L238.691,261.164 C238.69153,266.104004 236.729494,270.841859 233.236571,274.335157 C229.743648,277.828454 225.006004,279.791 220.066,279.791 L128.334,279.791 C118.047925,279.791 109.709,271.452075 109.709,261.166 L109.709,25.114 C109.710657,14.8287063 118.048706,6.491 128.334,6.491 L139.463,6.491 C138.352572,9.21964942 138.672193,12.3219025 140.315645,14.7668239 C141.959098,17.2117454 144.711058,18.6790029 147.657,18.681 L199.957,18.681 C202.903296,18.6796681 205.65587,17.2126824 207.299796,14.767653 C208.943722,12.3226237 209.263561,9.21997728 208.153,6.491 L220.068,6.491 C230.354075,6.491 238.693,14.8299253 238.693,25.116 L238.691,25.114 Z" id="Path" fill="#FFFFFF"></path>
                <path d="M209.139,126.897 C208.529,127.215667 207.908667,127.515667 207.278,127.797 C206.703333,128.056333 206.12,128.300333 205.528,128.529 L204.871,128.777 C203.129239,129.40862 201.340354,129.901817 199.521,130.252 C198.620333,130.429333 197.707667,130.568333 196.783,130.669 C196.019667,130.755667 195.248667,130.817333 194.47,130.854 C193.915,130.882 193.361,130.893002 192.802,130.893002 C190.589834,130.893816 188.382479,130.686907 186.209,130.275 C185.642,130.175 185.088,130.051 184.533,129.917 C181.850242,129.273953 179.253135,128.315268 176.796,127.061 C176.576,126.951 176.355,126.833 176.135,126.719 C175.808,126.546 175.49,126.365 175.171,126.176 C175.324,125.964 175.49,125.755 175.659,125.551 C179.381496,120.937597 184.890933,118.125757 190.810876,117.817967 C196.730818,117.510177 202.502148,119.735508 206.683,123.938 C207.400344,124.657994 208.065368,125.428286 208.673,126.243 C208.836,126.461 208.993,126.677 209.139,126.897 Z" id="Path" fill="#9D6B53"></path>
                <circle id="Oval" fill="#2F2E41" cx="193.588" cy="92.346" r="17.272"></circle>
                <circle id="Oval" fill="#A0616A" transform="translate(192.014688, 98.361708) rotate(-28.663000) translate(-192.014688, -98.361708) " cx="192.014688" cy="98.3617079" r="12.855"></circle>
                <path d="M205.524,90.277 C202.586411,92.3016974 199.09972,93.3792494 195.532,93.365 C196.804759,94.2474491 198.253705,94.8434718 199.779,95.112 C195.035693,96.1294267 190.133452,96.1570018 185.379,95.193 C184.322025,95.0236851 183.302113,94.6735662 182.364,94.158 C181.418531,93.6300559 180.741969,92.725187 180.503,91.669 C180.187,89.869 181.594,88.224 183.055,87.119 C187.586516,83.7449522 193.393819,82.5845195 198.874,83.958 C200.67718,84.3209216 202.318047,85.2483531 203.559,86.606 C204.791736,88.0243732 204.951713,90.082148 203.953,91.674 L205.524,90.277 Z" id="Path" fill="#2F2E41"></path>
                <path d="M192.807,60.093 C176.940826,60.0917508 163.011679,70.6474685 158.722367,85.9228495 C154.433054,101.198231 160.831349,117.461875 174.379,125.72 L174.607,125.854 C174.795667,125.968 174.984333,126.078 175.173,126.184 C175.492,126.373 175.81,126.554 176.137,126.727 C176.357,126.841 176.578,126.959 176.798,127.069 C179.255356,128.321553 181.852457,129.278556 184.535,129.92 C185.09,130.054 185.644,130.176 186.211,130.278 C188.38448,130.689902 190.591834,130.89681 192.804,130.896002 C193.363,130.896002 193.917,130.884 194.472,130.857 C195.250667,130.821667 196.021667,130.76 196.785,130.672 C197.709667,130.57 198.622333,130.431 199.523,130.255 C201.342353,129.904813 203.131238,129.411616 204.873,128.78 L205.53,128.532 C206.124,128.304 206.707333,128.06 207.28,127.8 C207.909333,127.516667 208.529667,127.216667 209.141,126.9 C215.264642,123.693126 220.326006,118.77801 223.711,112.751 C223.727,112.72 223.747,112.688 223.762,112.657 C229.838484,101.692845 229.663405,88.3326809 223.301696,77.5315228 C216.939986,66.7303648 205.340404,60.0990504 192.805,60.097 L192.807,60.093 Z M223.119,112.193 C223.088,112.248 223.06,112.303 223.029,112.354 C219.711415,118.291898 214.721125,123.123263 208.679,126.247 C208.079,126.561667 207.466667,126.856667 206.842,127.132 C206.327,127.364 205.8,127.584 205.269,127.789 C205.045,127.876 204.817,127.962 204.588,128.041 C203.083367,128.590743 201.541459,129.03253 199.974,129.363 C198.811083,129.610728 197.635733,129.795993 196.453,129.918 C195.725,129.997 194.986,130.052 194.242,130.079 C193.766,130.099 193.286,130.110023 192.806,130.110023 C190.665411,130.112511 188.529334,129.913635 186.426,129.516 C185.146478,129.28005 183.881694,128.970198 182.638,128.588 C180.744532,128.002579 178.904514,127.256536 177.138,126.358 C176.938,126.252 176.729,126.146 176.528,126.035 C176.241,125.882 175.95,125.724 175.667,125.555 C175.455,125.437 175.242,125.311 175.034,125.185 C174.912,125.114 174.79,125.039 174.668,124.965 C158.541992,115.061284 153.347908,94.0492524 163.002275,77.7727378 C172.656643,61.4962232 193.58625,55.9793838 210.009416,65.3821159 C226.432581,74.784848 232.27087,95.6270733 223.122,112.193 L223.119,112.193 Z" id="Shape" fill="#3F3D56"></path>
                <path d="M184.842,75.312 C184.656,73.358 182.262,72.155 180.39,72.745 C178.528762,73.4850288 177.204484,75.1627781 176.917,77.145 C176.556211,78.7844066 176.862772,80.4999981 177.769,81.913 C178.716454,83.3234675 180.399001,84.052428 182.076,83.779 C183.930827,83.2182137 185.294624,81.6362092 185.576,79.719 C185.820667,77.8366395 185.698071,75.9246973 185.215,74.089 L184.842,75.312 Z" id="Path" fill="#2F2E41"></path>
                <path d="M211.189,78.103 C211.003,76.149 208.609,74.946 206.737,75.536 C204.875762,76.2760288 203.551484,77.9537781 203.264,79.936 C202.903099,81.5754044 203.209668,83.2910392 204.116,84.704 C205.063454,86.1144675 206.746001,86.843428 208.423,86.57 C210.277827,86.0092137 211.641624,84.4272092 211.923,82.51 C212.167794,80.6276437 212.045197,78.715677 211.562,76.88 L211.189,78.103 Z" id="Path" fill="#2F2E41"></path>
                <path d="M131.611,109.644 C131.115943,109.644 130.644038,109.434289 130.311,109.068 L110.792,87.774 C110.344223,87.2865728 109.712883,87.0087976 109.051,87.008 L5.904,87.008 C2.64803073,87.0019465 0.0100535375,84.3639693 0.004,81.108 L0.004,43.908 C0.0100535375,40.6520307 2.64803073,38.0140535 5.904,38.008 L139.537,38.008 C142.792969,38.0140535 145.430946,40.6520307 145.437,43.908 L145.437,81.108 C145.430946,84.3639693 142.792969,87.0019465 139.537,87.008 L135.747,87.008 C134.443189,87.0096528 133.386653,88.0661887 133.385,89.37 L133.385,107.87 C133.387907,108.601111 132.938515,109.257884 132.256,109.52 C132.050547,109.600963 131.831828,109.643012 131.611,109.644 L131.611,109.644 Z" id="Path" fill="#FFFFFF"></path>
                <path d="M131.611,109.644 C131.115943,109.644 130.644038,109.434289 130.311,109.068 L110.792,87.774 C110.344223,87.2865728 109.712883,87.0087976 109.051,87.008 L5.904,87.008 C2.64803073,87.0019465 0.0100535375,84.3639693 0.004,81.108 L0.004,43.908 C0.0100535375,40.6520307 2.64803073,38.0140535 5.904,38.008 L139.537,38.008 C142.792969,38.0140535 145.430946,40.6520307 145.437,43.908 L145.437,81.108 C145.430946,84.3639693 142.792969,87.0019465 139.537,87.008 L135.747,87.008 C134.443189,87.0096528 133.386653,88.0661887 133.385,89.37 L133.385,107.87 C133.387907,108.601111 132.938515,109.257884 132.256,109.52 C132.050547,109.600963 131.831828,109.643012 131.611,109.644 L131.611,109.644 Z M5.904,38.788 C3.07932958,38.7913063 0.790306289,41.0803296 0.787,43.905 L0.787,81.105 C0.790306289,83.9296704 3.07932958,86.2186937 5.904,86.222 L109.047,86.222 C109.929378,86.2229075 110.771081,86.5931698 111.368,87.243 L130.887,108.537 C131.161125,108.836624 131.591158,108.937069 131.969647,108.789879 C132.348137,108.642689 132.597325,108.278102 132.597,107.872 L132.597,89.372 C132.598654,87.6335408 134.007541,86.2246538 135.746,86.223 L139.535,86.223 C142.35967,86.2196937 144.648694,83.9306704 144.652,81.106 L144.652,43.906 C144.648694,41.0813296 142.35967,38.7923063 139.535,38.789 L5.904,38.788 Z" id="Shape" fill="#3F3D56"></path>
                <circle id="Oval" fill="#9D6B53" cx="14.482" cy="49.246" r="5.166"></circle>
                <path d="M133.51,77.832 L11.931,77.832 C10.4091794,77.832 9.1755,76.5983206 9.1755,75.0765 C9.1755,73.5546794 10.4091794,72.321 11.931,72.321 L133.51,72.321 C135.031821,72.321 136.2655,73.5546794 136.2655,75.0765 C136.2655,76.5983206 135.031821,77.832 133.51,77.832 Z" id="Path" fill="#E6E6E6"></path>
                <path d="M93.902,66.121 L11.931,66.121 C10.4091794,66.121 9.1755,64.8873206 9.1755,63.3655 C9.1755,61.8436794 10.4091794,60.61 11.931,60.61 L93.902,60.61 C95.4238206,60.61 96.6575,61.8436794 96.6575,63.3655 C96.6575,64.8873206 95.4238206,66.121 93.902,66.121 Z" id="Path" fill="#E6E6E6"></path>
                <path d="M218.339,235.789 C217.656142,235.526754 217.206677,234.869476 217.21,234.138 L217.21,215.638 C217.208347,214.334189 216.151811,213.277653 214.848,213.276 L211.06,213.276 C207.804031,213.269946 205.166054,210.631969 205.16,207.376 L205.16,170.176 C205.166054,166.920031 207.804031,164.282054 211.06,164.276 L344.693,164.276 C347.948969,164.282054 350.586946,166.920031 350.593,170.176 L350.593,207.376 C350.586946,210.631969 347.948969,213.269946 344.693,213.276 L241.552,213.276 C240.890117,213.276798 240.258777,213.554573 239.811,214.042 L220.287,235.335 C219.953887,235.701186 219.482031,235.910255 218.987,235.911 C218.765625,235.911 218.54621,235.869524 218.34,235.789 L218.339,235.789 Z" id="Path" fill="#FFFFFF"></path>
                <path d="M218.339,235.789 C217.656142,235.526754 217.206677,234.869476 217.21,234.138 L217.21,215.638 C217.208347,214.334189 216.151811,213.277653 214.848,213.276 L211.06,213.276 C207.804031,213.269946 205.166054,210.631969 205.16,207.376 L205.16,170.176 C205.166054,166.920031 207.804031,164.282054 211.06,164.276 L344.693,164.276 C347.948969,164.282054 350.586946,166.920031 350.593,170.176 L350.593,207.376 C350.586946,210.631969 347.948969,213.269946 344.693,213.276 L241.552,213.276 C240.890117,213.276798 240.258777,213.554573 239.811,214.042 L220.287,235.335 C219.953887,235.701186 219.482031,235.910255 218.987,235.911 C218.765625,235.911 218.54621,235.869524 218.34,235.789 L218.339,235.789 Z M211.06,165.055 C208.23533,165.058306 205.946306,167.34733 205.943,170.172 L205.943,207.372 C205.946306,210.19667 208.23533,212.485694 211.06,212.489 L214.852,212.489 C216.590459,212.490654 217.999346,213.899541 218.001,215.638 L218.001,234.138 C218.000675,234.544102 218.249863,234.908689 218.628353,235.055879 C219.006842,235.203069 219.436875,235.102624 219.711,234.803 L239.23,213.509 C239.826919,212.85917 240.668622,212.488907 241.551,212.488 L344.693,212.488 C347.51767,212.484694 349.806694,210.19567 349.81,207.371 L349.81,170.171 C349.806694,167.34633 347.51767,165.057306 344.693,165.054 L211.06,165.055 Z" id="Shape" fill="#3F3D56"></path>
                <path d="M176.687,247.308 C165.509843,254.464977 151.248144,254.691845 139.849,247.894 C140.832893,246.063659 142.079444,244.387217 143.549,242.918 C148.141729,238.3035 154.613636,236.077864 161.073094,236.891608 C167.532551,237.705351 173.250248,241.466598 176.555,247.076 C176.596,247.151 176.643,247.23 176.687,247.308 Z" id="Path" fill="#9D6B53"></path>
                <circle id="Oval" fill="#2F2E41" cx="156.73" cy="211.11" r="17.387"></circle>
                <circle id="Oval" fill="#FFB8B8" transform="translate(158.312400, 217.168081) rotate(-61.337000) translate(-158.312400, -217.168081) " cx="158.3124" cy="217.168081" r="12.941"></circle>
                <path d="M144.715,209.028 C147.672054,211.065901 151.181761,212.150427 154.773,212.136 C153.491886,213.024428 152.033386,213.624545 150.498,213.895 C155.274176,214.920005 160.210537,214.947921 164.998,213.977 C166.061999,213.806536 167.08868,213.454048 168.033,212.935 C168.984435,212.403526 169.665313,211.492903 169.906,210.43 C170.224,208.613 168.806,206.962 167.337,205.85 C162.775098,202.453387 156.928875,201.285244 151.412,202.668 C149.596971,203.033225 147.945267,203.966599 146.696,205.333 C145.455963,206.760196 145.293631,208.82993 146.296,210.433 L144.715,209.028 Z" id="Path" fill="#2F2E41"></path>
                <path d="M157.794,253.229002 C140.190445,253.223309 125.267076,240.280436 122.771795,222.854629 C120.276515,205.428821 130.967963,188.818046 147.862516,183.872415 C164.757069,178.926783 182.718277,187.149915 190.013931,203.170484 C197.309584,219.191053 191.721586,238.138327 176.9,247.636 C171.197678,251.290048 164.566632,253.231189 157.794,253.229002 Z M157.794,183.211 C143.791558,183.209787 131.16723,191.643774 125.80798,204.580034 C120.44873,217.516295 123.410027,232.407114 133.310963,242.308622 C143.211899,252.21013 158.102548,255.172288 171.039118,249.813785 C183.975688,244.455283 192.41,231.831442 192.41,217.829 C192.407239,198.712578 176.910422,183.216656 157.794,183.215 L157.794,183.211 Z" id="Shape" fill="#3F3D56"></path>
                <circle id="Oval" fill="#9D6B53" cx="221.781" cy="175.12" r="5.166"></circle>
                <path d="M340.81,203.707 L219.231,203.707 C217.709179,203.707 216.4755,202.473321 216.4755,200.9515 C216.4755,199.429679 217.709179,198.196 219.231,198.196 L340.81,198.196 C342.331821,198.196 343.5655,199.429679 343.5655,200.9515 C343.5655,202.473321 342.331821,203.707 340.81,203.707 Z" id="Path" fill="#E6E6E6"></path>
                <path d="M301.202,191.995 L219.231,191.995 C217.709179,191.995 216.4755,190.761321 216.4755,189.2395 C216.4755,187.717679 217.709179,186.484 219.231,186.484 L301.202,186.484 C302.723821,186.484 303.9575,187.717679 303.9575,189.2395 C303.9575,190.761321 302.723821,191.995 301.202,191.995 Z" id="Path" fill="#E6E6E6"></path>
                <ellipse id="Oval" fill="#F2F2F2" cx="218.173" cy="238.241" rx="9.639" ry="1.07"></ellipse>
                <ellipse id="Oval" fill="#F2F2F2" cx="132.028" cy="112.367" rx="9.639" ry="1.07"></ellipse>
            </g>
        </g>
    </g>
</svg>