<?xml version="1.0" encoding="utf-8"?>
<!-- Generator: Adobe Illustrator 16.0.0, SVG Export Plug-In . SVG Version: 6.00 Build 0)  -->
<!DOCTYPE svg PUBLIC "-//W3C//DTD SVG 1.1//EN" "http://www.w3.org/Graphics/SVG/1.1/DTD/svg11.dtd">
<svg version="1.1" id="Layer_1" xmlns="http://www.w3.org/2000/svg" xmlns:xlink="http://www.w3.org/1999/xlink" x="0px" y="0px"
	 width="1225.114px" height="367.989px" viewBox="0 0 1225.114 367.989" enable-background="new 0 0 1225.114 367.989"
	 xml:space="preserve">
<g>
	<path fill="#5C3C1E" d="M514.054,167.506c0,2.203-0.574,4.142-1.724,5.815c-1.148,1.677-2.49,2.993-4.021,3.949
		c-2.49-1.627-5.194-3.062-8.113-4.308c-2.921-1.243-6.39-1.867-10.411-1.867c-7.66,0-13.642,2.419-17.949,7.252
		c-4.309,4.835-6.462,11.703-6.462,20.606c0,9.189,2.272,16.107,6.82,20.75c4.546,4.644,10.793,6.964,18.74,6.964
		c4.114,0,7.633-0.55,10.554-1.651c2.919-1.1,5.623-2.416,8.113-3.949c1.437,1.149,2.607,2.61,3.519,4.38
		c0.908,1.772,1.364,3.759,1.364,5.96c0,1.916-0.503,3.711-1.508,5.385c-1.005,1.676-2.753,3.087-5.241,4.236
		c-1.916,0.958-4.501,1.842-7.755,2.656c-3.255,0.812-7.276,1.221-12.062,1.221c-6.415,0-12.399-0.911-17.95-2.729
		c-5.553-1.817-10.389-4.595-14.503-8.329c-4.117-3.733-7.349-8.494-9.693-14.288c-2.347-5.791-3.518-12.658-3.518-20.605
		c0-7.468,1.171-14.073,3.518-19.816c2.345-5.744,5.528-10.555,9.55-14.432c4.021-3.878,8.71-6.821,14.072-8.832
		c5.36-2.01,11.104-3.015,17.231-3.015c8.71,0,15.46,1.389,20.248,4.164C511.659,159.801,514.054,163.295,514.054,167.506z"/>
	<path fill="#5C3C1E" d="M595.185,207.856c0,5.65-0.861,10.748-2.585,15.294c-1.723,4.548-4.188,8.4-7.396,11.56
		c-3.208,3.159-7.061,5.6-11.56,7.323c-4.501,1.723-9.526,2.585-15.077,2.585c-5.554,0-10.604-0.84-15.149-2.514
		c-4.549-1.674-8.426-4.092-11.632-7.251c-3.208-3.159-5.672-7.012-7.396-11.56c-1.723-4.546-2.585-9.693-2.585-15.438
		c0-5.551,0.885-10.602,2.657-15.149c1.771-4.546,4.259-8.4,7.467-11.56c3.206-3.159,7.084-5.6,11.632-7.323
		c4.546-1.724,9.549-2.585,15.006-2.585c5.456,0,10.433,0.861,14.934,2.585c4.499,1.724,8.352,4.189,11.56,7.396
		c3.207,3.208,5.695,7.061,7.468,11.56C594.298,197.28,595.185,202.306,595.185,207.856z M558.567,188.471
		c-4.501,0-7.994,1.677-10.482,5.026c-2.491,3.353-3.734,8.138-3.734,14.359c0,6.415,1.221,11.272,3.662,14.575
		s5.959,4.954,10.555,4.954c4.595,0,8.113-1.674,10.554-5.025c2.441-3.35,3.662-8.186,3.662-14.504
		c0-6.125-1.245-10.889-3.733-14.287C566.56,190.172,563.065,188.471,558.567,188.471z"/>
	<path fill="#5C3C1E" d="M629.503,178.419h24.411c0.479,0.958,0.98,2.154,1.508,3.59c0.525,1.437,0.79,3.016,0.79,4.739
		c0,3.064-0.695,5.266-2.082,6.605c-1.389,1.342-3.184,2.011-5.385,2.011h-18.237v46.956c-0.958,0.287-2.297,0.55-4.021,0.79
		c-1.723,0.237-3.64,0.358-5.744,0.358c-4.308,0-7.42-0.695-9.334-2.082c-1.916-1.387-2.871-4.093-2.871-8.113v-61.029
		c0-4.688,0.789-8.759,2.369-12.205c1.579-3.446,3.756-6.247,6.533-8.4c2.775-2.154,6.031-3.756,9.765-4.811
		c3.733-1.053,7.755-1.58,12.062-1.58c6.796,0,11.847,0.887,15.149,2.657c3.303,1.772,4.954,4.666,4.954,8.688
		c0,1.819-0.358,3.424-1.077,4.811c-0.718,1.389-1.557,2.466-2.513,3.23c-1.819-0.574-3.758-1.052-5.815-1.436
		c-2.06-0.382-4.38-0.574-6.965-0.574c-4.404,0-7.754,0.789-10.052,2.369c-2.298,1.579-3.446,4.236-3.446,7.97V178.419z
		 M688.234,178.419h24.411c0.479,0.958,0.98,2.154,1.508,3.59c0.525,1.437,0.79,3.016,0.79,4.739c0,3.064-0.695,5.266-2.082,6.605
		c-1.389,1.342-3.184,2.011-5.385,2.011h-18.237v46.956c-0.958,0.287-2.297,0.55-4.021,0.79c-1.723,0.237-3.64,0.358-5.744,0.358
		c-4.308,0-7.42-0.695-9.334-2.082c-1.916-1.387-2.871-4.093-2.871-8.113v-61.029c0-4.688,0.789-8.759,2.369-12.205
		c1.579-3.446,3.756-6.247,6.533-8.4c2.775-2.154,6.031-3.756,9.765-4.811c3.733-1.053,7.755-1.58,12.062-1.58
		c6.796,0,11.847,0.887,15.149,2.657c3.303,1.772,4.954,4.666,4.954,8.688c0,1.819-0.358,3.424-1.077,4.811
		c-0.718,1.389-1.557,2.466-2.513,3.23c-1.819-0.574-3.758-1.052-5.815-1.436c-2.06-0.382-4.38-0.574-6.965-0.574
		c-4.404,0-7.754,0.789-10.052,2.369c-2.298,1.579-3.446,4.236-3.446,7.97V178.419z"/>
	<path fill="#5C3C1E" d="M746.533,217.047c1.34,4.021,3.685,6.87,7.036,8.544c3.351,1.677,7.228,2.514,11.632,2.514
		c4.021,0,7.802-0.55,11.344-1.651c3.541-1.1,6.413-2.32,8.616-3.662c1.436,0.958,2.632,2.203,3.59,3.733
		c0.956,1.532,1.437,3.209,1.437,5.026c0,2.203-0.671,4.117-2.011,5.743c-1.342,1.629-3.184,2.993-5.528,4.093
		c-2.348,1.1-5.123,1.914-8.329,2.441c-3.208,0.525-6.727,0.79-10.555,0.79c-5.649,0-10.866-0.79-15.651-2.37
		c-4.788-1.579-8.903-3.924-12.35-7.036c-3.446-3.109-6.152-7.012-8.113-11.703c-1.963-4.689-2.944-10.195-2.944-16.514
		c0-6.125,0.981-11.438,2.944-15.939c1.961-4.498,4.595-8.232,7.897-11.2c3.303-2.967,7.084-5.145,11.345-6.534
		c4.259-1.387,8.638-2.082,13.139-2.082c4.883,0,9.356,0.743,13.427,2.226c4.067,1.485,7.562,3.567,10.482,6.247
		c2.919,2.681,5.192,5.888,6.821,9.621c1.626,3.733,2.44,7.804,2.44,12.205c0,3.065-0.814,5.363-2.44,6.894
		c-1.629,1.532-3.927,2.537-6.893,3.015L746.533,217.047z M760.175,187.466c-4.117,0-7.538,1.271-10.267,3.806
		c-2.729,2.537-4.333,6.199-4.811,10.985l27.427-4.452c-0.192-2.488-1.292-4.833-3.303-7.036
		C767.212,188.567,764.196,187.466,760.175,187.466z"/>
	<path fill="#5C3C1E" d="M824.507,217.047c1.34,4.021,3.685,6.87,7.036,8.544c3.351,1.677,7.228,2.514,11.632,2.514
		c4.021,0,7.802-0.55,11.344-1.651c3.541-1.1,6.413-2.32,8.616-3.662c1.436,0.958,2.632,2.203,3.59,3.733
		c0.956,1.532,1.437,3.209,1.437,5.026c0,2.203-0.671,4.117-2.011,5.743c-1.342,1.629-3.184,2.993-5.528,4.093
		c-2.348,1.1-5.123,1.914-8.329,2.441c-3.208,0.525-6.727,0.79-10.555,0.79c-5.649,0-10.866-0.79-15.651-2.37
		c-4.788-1.579-8.903-3.924-12.35-7.036c-3.446-3.109-6.152-7.012-8.113-11.703c-1.963-4.689-2.944-10.195-2.944-16.514
		c0-6.125,0.981-11.438,2.944-15.939c1.961-4.498,4.595-8.232,7.897-11.2c3.303-2.967,7.084-5.145,11.345-6.534
		c4.259-1.387,8.638-2.082,13.139-2.082c4.883,0,9.356,0.743,13.427,2.226c4.067,1.485,7.562,3.567,10.482,6.247
		c2.919,2.681,5.192,5.888,6.821,9.621c1.626,3.733,2.44,7.804,2.44,12.205c0,3.065-0.814,5.363-2.44,6.894
		c-1.629,1.532-3.927,2.537-6.893,3.015L824.507,217.047z M838.148,187.466c-4.117,0-7.538,1.271-10.267,3.806
		c-2.729,2.537-4.333,6.199-4.811,10.985l27.427-4.452c-0.192-2.488-1.292-4.833-3.303-7.036
		C845.186,188.567,842.17,187.466,838.148,187.466z"/>
	<path fill="#5C3C1E" d="M953.313,167.506c0,2.203-0.574,4.142-1.724,5.815c-1.148,1.677-2.49,2.993-4.021,3.949
		c-2.49-1.627-5.194-3.062-8.113-4.308c-2.921-1.243-6.39-1.867-10.411-1.867c-7.66,0-13.642,2.419-17.949,7.252
		c-4.309,4.835-6.462,11.703-6.462,20.606c0,9.189,2.272,16.107,6.82,20.75c4.546,4.644,10.793,6.964,18.74,6.964
		c4.114,0,7.633-0.55,10.554-1.651c2.919-1.1,5.623-2.416,8.113-3.949c1.437,1.149,2.607,2.61,3.519,4.38
		c0.908,1.772,1.364,3.759,1.364,5.96c0,1.916-0.503,3.711-1.508,5.385c-1.005,1.676-2.753,3.087-5.241,4.236
		c-1.916,0.958-4.501,1.842-7.755,2.656c-3.255,0.812-7.276,1.221-12.062,1.221c-6.415,0-12.399-0.911-17.95-2.729
		c-5.553-1.817-10.389-4.595-14.503-8.329c-4.117-3.733-7.349-8.494-9.693-14.288c-2.347-5.791-3.518-12.658-3.518-20.605
		c0-7.468,1.171-14.073,3.518-19.816c2.345-5.744,5.528-10.555,9.55-14.432c4.021-3.878,8.71-6.821,14.072-8.832
		c5.36-2.01,11.104-3.015,17.231-3.015c8.71,0,15.46,1.389,20.248,4.164C950.919,159.801,953.313,163.295,953.313,167.506z"/>
	<path fill="#5C3C1E" d="M984.615,243.11c-1.723,0.237-3.64,0.358-5.744,0.358c-4.308,0-7.42-0.695-9.334-2.082
		c-1.916-1.387-2.871-4.093-2.871-8.113v-84.292c1.052-0.287,2.44-0.574,4.164-0.861c1.723-0.287,3.637-0.431,5.744-0.431
		c4.308,0,7.395,0.718,9.262,2.154c1.866,1.436,2.8,4.164,2.8,8.185v16.514c2.011-0.956,4.283-1.745,6.821-2.369
		c2.535-0.621,5.288-0.934,8.257-0.934c9.19,0,16.393,2.322,21.611,6.965c5.217,4.645,7.826,11.608,7.826,20.894v43.223
		c-0.958,0.287-2.298,0.55-4.021,0.79c-1.724,0.237-3.64,0.358-5.744,0.358c-4.308,0-7.42-0.695-9.334-2.082
		c-1.916-1.387-2.872-4.093-2.872-8.113V200.39c0-4.308-1.077-7.37-3.23-9.19c-2.154-1.817-4.907-2.729-8.257-2.729
		c-2.204,0-4.214,0.312-6.031,0.934c-1.819,0.624-3.496,1.364-5.026,2.226v50.69C987.678,242.607,986.339,242.87,984.615,243.11z"/>
	<path fill="#5C3C1E" d="M1077.379,171.239c4.977,0,9.5,0.503,13.57,1.508c4.067,1.005,7.538,2.562,10.41,4.667
		c2.872,2.106,5.098,4.788,6.678,8.042c1.579,3.255,2.369,7.085,2.369,11.487v32.453c0,2.49-0.646,4.477-1.938,5.959
		c-1.292,1.485-2.85,2.753-4.667,3.806c-2.969,1.819-6.605,3.209-10.913,4.164c-4.309,0.956-9.19,1.437-14.647,1.437
		c-9.861,0-17.712-1.892-23.55-5.673c-5.841-3.78-8.76-9.549-8.76-17.303c0-6.605,1.961-11.632,5.888-15.078
		c3.925-3.446,9.955-5.601,18.094-6.462l19.099-2.011v-1.579c0-3.062-1.246-5.313-3.734-6.749c-2.49-1.437-6.08-2.154-10.77-2.154
		c-3.64,0-7.204,0.431-10.698,1.293c-3.495,0.861-6.63,1.866-9.405,3.016c-1.148-0.766-2.132-1.939-2.943-3.519
		c-0.814-1.58-1.221-3.278-1.221-5.098c0-4.212,2.201-7.228,6.605-9.047c2.775-1.052,6.006-1.842,9.692-2.369
		C1070.222,171.504,1073.836,171.239,1077.379,171.239z M1078.24,228.535c2.104,0,4.188-0.216,6.247-0.646
		c2.058-0.431,3.612-0.98,4.667-1.651v-13.211l-11.775,1.005c-3.064,0.287-5.528,0.983-7.396,2.082
		c-1.866,1.103-2.8,2.754-2.8,4.954c0,2.298,0.861,4.117,2.585,5.457C1071.491,227.866,1074.314,228.535,1078.24,228.535z"/>
	<path fill="#5C3C1E" d="M1150.899,225.447c1.724,1.198,4.115,1.795,7.18,1.795c1.437,0,2.967-0.166,4.596-0.502
		c1.626-0.335,3.016-0.741,4.164-1.221c0.861,0.958,1.579,2.06,2.154,3.303c0.574,1.245,0.861,2.681,0.861,4.308
		c0,3.353-1.317,6.104-3.949,8.257c-2.634,2.154-7.204,3.231-13.714,3.231c-8.041,0-14.312-1.845-18.811-5.529
		c-4.501-3.684-6.749-9.692-6.749-18.021v-64.475c1.052-0.287,2.44-0.597,4.164-0.934c1.723-0.334,3.59-0.503,5.601-0.503
		c4.211,0,7.251,0.743,9.118,2.226c1.866,1.485,2.8,4.189,2.8,8.113v9.334h19.816c0.479,0.958,0.956,2.179,1.437,3.662
		c0.478,1.485,0.718,3.04,0.718,4.667c0,3.064-0.695,5.266-2.082,6.605c-1.389,1.342-3.184,2.01-5.385,2.01h-14.504v27.858
		C1148.314,222.313,1149.176,224.252,1150.899,225.447z"/>
</g>
<path fill-rule="evenodd" clip-rule="evenodd" fill="#CAA572" d="M380.266,293.945c-0.592,1.17-1.242,2.31-1.963,3.478
	c-0.16,0.318-0.361,0.636-0.562,0.953c-2.857,4.574-6.075,8.541-9.582,11.903c-0.505,0.491-0.98,0.953-1.501,1.386
	c-0.647,0.605-1.298,1.169-1.978,1.702c-1.052,0.866-2.135,1.673-3.245,2.438c-28.094-17.604-42.666-40.53-52.839-65.377
	c-2.223-5.455-4.1-10.981-6.652-16.364c-1.659-3.491-3.91-6.896-6.465-10.101c-10.388-13.014-27.113-17.979-45.755-13.765
	c-2.553,0.577,28.83,2.424,39.22,15.438c2.553,3.205,4.805,6.623,6.463,10.101c2.555,5.383,4.416,10.924,6.652,16.378
	c10.418,25.409,25.41,48.813,54.787,66.547c-10.186,5.671-21.933,7.806-34.385,6.896c-9.176,10.115-20.171,17.1-31.874,22.856
	c-0.2,0.101-0.461,0.072-0.851,0.145c2.382-4.04,4.717-7.864,6.911-11.804c2.627-4.718,5.078-9.537,6.897-14.717
	c-10.649-3.103-21.485-8.109-32.046-14.704c-39.97-24.977-61.137-63.171-38.499-99.431c18.744-29.969,53.504-33.519,88.062-18.57
	c6.088,2.64,12.191,5.858,18.195,9.595c17.4,10.88,31.095,24.53,39.203,39.334c0.822,1.544,1.602,3.089,2.322,4.631
	C388.375,259.389,389.023,277.093,380.266,293.945z"/>
<path fill="#C69C6D" d="M361.435,315.806c-1.485,1.039-3.017,2.006-4.589,2.857c-29.377-17.733-44.369-41.138-54.787-66.547
	c-2.236-5.454-4.098-10.995-6.652-16.378c-1.658-3.478-3.91-6.896-6.463-10.101c-10.39-13.015-41.772-14.861-39.22-15.438
	c18.642-4.214,35.367,0.751,45.755,13.765c2.555,3.205,4.806,6.609,6.465,10.101c2.553,5.383,4.43,10.909,6.652,16.364
	C318.769,275.275,333.341,298.202,361.435,315.806z"/>
<path fill-rule="evenodd" clip-rule="evenodd" fill="#FFFFFF" d="M365.172,318.071c-2.453,0.562-4.848,0.995-7.186,1.284
	c-0.375-0.23-0.766-0.446-1.141-0.692c-29.377-17.733-44.369-41.138-54.787-66.547c-2.236-5.454-4.098-10.995-6.652-16.378
	c-1.658-3.478-3.91-6.896-6.463-10.101c-10.39-13.015-41.772-14.861-39.22-15.438c18.642-4.214,35.367,0.751,45.755,13.765
	c2.555,3.205,4.806,6.609,6.465,10.101c2.553,5.383,4.43,10.909,6.652,16.364c10.173,24.847,24.745,47.773,52.839,65.377
	C362.647,316.571,363.902,317.32,365.172,318.071z"/>
<path fill="#C69C6D" d="M114.307,201.339c-0.461-0.864-0.952-1.789-1.443-2.77c-0.159-1.024-0.316-2.034-0.462-3.03
	c-0.173-1.155-0.303-2.295-0.388-3.435"/>
<path fill="#5C3C1E" d="M114.307,201.339c-4.964-9.263-9.436-14.082-10.475-24.355c-0.318-2.915-0.375-5.931-0.115-9.062
	c1.197-14.645,9.508-25.524,19.693-35.409c-5.323,2.482-10.387,5.426-15.164,8.845c-5.51,3.91-10.647,8.442-15.424,13.578
	c-11.616,12.51-19.264,27.041-22.523,43.749c-0.679,3.492-1.3,6.998-1.848,10.489c-1.789,11.4-2.741,22.771-1.846,34.054
	c0.272,3.404,0.808,6.753,1.398,10.216c0.059,0.375,0.13,0.75,0.188,1.14c0.116,2.452,0.477,4.806,1.154,6.955
	c5.022,15.915,16.104,26.246,16.796,26.881c0.015,0.016,0.015,0.016,0.028,0.029c0.072,3.029,0.217,6.031,0.389,9.047
	c0.477,8.326,1.3,16.579,1.992,25.223c-0.592-0.433-1.023-0.606-1.284-0.939c-11.701-14.962-22.062-30.849-29.42-48.783
	c-1.142-0.881-2.267-1.775-3.362-2.713c-2.251-1.892-4.432-3.896-6.537-6.003c-2.193-2.179-4.285-4.473-6.29-6.896l-0.017-0.015
	c-6.564-7.851-12.278-16.969-17.011-27.443c-10.433-23.059-12.568-45.756-7.966-67.197c9.799-45.784,50.258-85.781,106.055-111.019
	c81.93-37.067,166.209-27.603,198.603,44.024c33.316,73.646-16.161,141.159-98.089,178.214
	c-48.857,22.104-98.132,28.613-137.062,14.501c-0.259-9.841,0.144-19.738,2.106-29.695c1.112-5.713,2.713-11.499,4.948-16.939
	c6.523-15.887,21.905-22.539,34.631-14.472c5.44,3.448,9.711,8.902,14.098,13.88c3.247,3.681,5.599,8.238,8.73,12.035
	c3.708,4.458,7.646,4.443,12.148-0.274c3.03-3.189,5.599-6.998,7.936-10.793c3.521-5.729,7.416-9.942,14.185-10.419
	c4.646-0.332,6.955-3.896,6.595-8.815c-0.203-2.729-0.752-5.369-1.17-8.312c1.963,0.837,3.998,1.804,6.104,2.583
	c6.897,2.583,11.312-0.028,13.404-7.878c0.157-0.634,0.303-1.27,0.477-1.903c1.875-6.826,2.913-7.592,9.35-6.985
	c2.12,0.203,4.243,0.491,6.378,0.477c5.54-0.043,8.541-2.468,9.738-8.383c0.896-4.458,1.386-8.99,1.66-13.462
	c0.635-9.957,3.521-19.133,9.913-27.33c1.76-2.25,3.175-3.217,5.728-1.804c3.623,2.007,7.647,1.746,11.197-0.433
	c-2.928-1.313-6.061-2.713-9.479-4.241c0.591-0.636,1.198-1.27,1.774-1.905c1.011-1.082,2.006-2.164,2.988-3.247
	c17.631-19.493,31.18-39.766,26.866-67.644l-0.592-3.973c0,0-0.391-0.991-0.852-3.963c-30.575,33.895-67.499,49.131-106.732,58.466
	c-8.254,1.963-16.563,3.478-24.759,5.83c-5.312,1.53-10.607,3.766-15.644,6.394c-20.46,10.662-30.199,29.809-26.938,52.362"/>
<path fill="#754C24" d="M69.346,261.538c-0.678-2.149-1.038-4.503-1.154-6.955C68.566,256.834,68.971,259.128,69.346,261.538z"/>
<path fill-rule="evenodd" clip-rule="evenodd" fill="#754C24" d="M69.346,261.538c-0.678-2.149-1.038-4.503-1.154-6.955
	C68.566,256.834,68.971,259.128,69.346,261.538z"/>
</svg>
