<?xml version="1.0" encoding="utf-8"?>
<!-- Generator: Adobe Illustrator 16.0.0, SVG Export Plug-In . SVG Version: 6.00 Build 0)  -->
<!DOCTYPE svg PUBLIC "-//W3C//DTD SVG 1.1//EN" "http://www.w3.org/Graphics/SVG/1.1/DTD/svg11.dtd">
<svg version="1.1" id="Layer_1" xmlns="http://www.w3.org/2000/svg" xmlns:xlink="http://www.w3.org/1999/xlink" x="0px" y="0px"
	 width="1225.114px" height="367.989px" viewBox="0 0 1225.114 367.989" enable-background="new 0 0 1225.114 367.989"
	 xml:space="preserve">
<text transform="matrix(1 0 0 1 436.6543 242.4639)" fill="#5C3C1E" font-family="'BalooTamma2-Bold'" font-size="143.5976">CoffeeChat</text>
<path fill-rule="evenodd" clip-rule="evenodd" fill="#CAA572" d="M380.266,293.945c-0.592,1.17-1.242,2.31-1.963,3.478
	c-0.16,0.318-0.361,0.636-0.562,0.953c-2.857,4.574-6.075,8.541-9.582,11.903c-0.505,0.491-0.98,0.953-1.501,1.386
	c-0.647,0.605-1.298,1.169-1.978,1.702c-1.052,0.866-2.135,1.673-3.245,2.438c-28.094-17.604-42.666-40.53-52.839-65.377
	c-2.223-5.455-4.1-10.981-6.652-16.364c-1.659-3.491-3.91-6.896-6.465-10.101c-10.388-13.014-27.113-17.979-45.755-13.765
	c-2.553,0.577,28.83,2.424,39.22,15.438c2.553,3.205,4.805,6.623,6.463,10.101c2.555,5.383,4.416,10.924,6.652,16.378
	c10.418,25.409,25.41,48.813,54.787,66.547c-10.186,5.671-21.933,7.806-34.385,6.896c-9.176,10.115-20.171,17.1-31.874,22.856
	c-0.2,0.101-0.461,0.072-0.851,0.145c2.382-4.04,4.717-7.864,6.911-11.804c2.627-4.718,5.078-9.537,6.897-14.717
	c-10.649-3.103-21.485-8.109-32.046-14.704c-39.97-24.977-61.137-63.171-38.499-99.431c18.744-29.969,53.504-33.519,88.062-18.57
	c6.088,2.64,12.191,5.858,18.195,9.595c17.4,10.88,31.095,24.53,39.203,39.334c0.822,1.544,1.602,3.089,2.322,4.631
	C388.375,259.389,389.023,277.093,380.266,293.945z"/>
<path fill="#C69C6D" d="M361.435,315.806c-1.485,1.039-3.017,2.006-4.589,2.857c-29.377-17.733-44.369-41.138-54.787-66.547
	c-2.236-5.454-4.098-10.995-6.652-16.378c-1.658-3.478-3.91-6.896-6.463-10.101c-10.39-13.015-41.772-14.861-39.22-15.438
	c18.642-4.214,35.367,0.751,45.755,13.765c2.555,3.205,4.806,6.609,6.465,10.101c2.553,5.383,4.43,10.909,6.652,16.364
	C318.769,275.275,333.341,298.202,361.435,315.806z"/>
<path fill-rule="evenodd" clip-rule="evenodd" fill="#FFFFFF" d="M365.172,318.071c-2.453,0.562-4.848,0.995-7.186,1.284
	c-0.375-0.23-0.766-0.446-1.141-0.692c-29.377-17.733-44.369-41.138-54.787-66.547c-2.236-5.454-4.098-10.995-6.652-16.378
	c-1.658-3.478-3.91-6.896-6.463-10.101c-10.39-13.015-41.772-14.861-39.22-15.438c18.642-4.214,35.367,0.751,45.755,13.765
	c2.555,3.205,4.806,6.609,6.465,10.101c2.553,5.383,4.43,10.909,6.652,16.364c10.173,24.847,24.745,47.773,52.839,65.377
	C362.647,316.571,363.902,317.32,365.172,318.071z"/>
<path fill="#C69C6D" d="M114.307,201.339c-0.461-0.864-0.952-1.789-1.443-2.77c-0.159-1.024-0.316-2.034-0.462-3.03
	c-0.173-1.155-0.303-2.295-0.388-3.435"/>
<path fill="#5C3C1E" d="M114.307,201.339c-4.964-9.263-9.436-14.082-10.475-24.355c-0.318-2.915-0.375-5.931-0.115-9.062
	c1.197-14.645,9.508-25.524,19.693-35.409c-5.323,2.482-10.387,5.426-15.164,8.845c-5.51,3.91-10.647,8.442-15.424,13.578
	c-11.616,12.51-19.264,27.041-22.523,43.749c-0.679,3.492-1.3,6.998-1.848,10.489c-1.789,11.4-2.741,22.771-1.846,34.054
	c0.272,3.404,0.808,6.753,1.398,10.216c0.059,0.375,0.13,0.75,0.188,1.14c0.116,2.452,0.477,4.806,1.154,6.955
	c5.022,15.915,16.104,26.246,16.796,26.881c0.015,0.016,0.015,0.016,0.028,0.029c0.072,3.029,0.217,6.031,0.389,9.047
	c0.477,8.326,1.3,16.579,1.992,25.223c-0.592-0.433-1.023-0.606-1.284-0.939c-11.701-14.962-22.062-30.849-29.42-48.783
	c-1.142-0.881-2.267-1.775-3.362-2.713c-2.251-1.892-4.432-3.896-6.537-6.003c-2.193-2.179-4.285-4.473-6.29-6.896l-0.017-0.015
	c-6.564-7.851-12.278-16.969-17.011-27.443c-10.433-23.059-12.568-45.756-7.966-67.197c9.799-45.784,50.258-85.781,106.055-111.019
	c81.93-37.067,166.209-27.603,198.603,44.024c33.316,73.646-16.161,141.159-98.089,178.214
	c-48.857,22.104-98.132,28.613-137.062,14.501c-0.259-9.841,0.144-19.738,2.106-29.695c1.112-5.713,2.713-11.499,4.948-16.939
	c6.523-15.887,21.905-22.539,34.631-14.472c5.44,3.448,9.711,8.902,14.098,13.88c3.247,3.681,5.599,8.238,8.73,12.035
	c3.708,4.458,7.646,4.443,12.148-0.274c3.03-3.189,5.599-6.998,7.936-10.793c3.521-5.729,7.416-9.942,14.185-10.419
	c4.646-0.332,6.955-3.896,6.595-8.815c-0.203-2.729-0.752-5.369-1.17-8.312c1.963,0.837,3.998,1.804,6.104,2.583
	c6.897,2.583,11.312-0.028,13.404-7.878c0.157-0.634,0.303-1.27,0.477-1.903c1.875-6.826,2.913-7.592,9.35-6.985
	c2.12,0.203,4.243,0.491,6.378,0.477c5.54-0.043,8.541-2.468,9.738-8.383c0.896-4.458,1.386-8.99,1.66-13.462
	c0.635-9.957,3.521-19.133,9.913-27.33c1.76-2.25,3.175-3.217,5.728-1.804c3.623,2.007,7.647,1.746,11.197-0.433
	c-2.928-1.313-6.061-2.713-9.479-4.241c0.591-0.636,1.198-1.27,1.774-1.905c1.011-1.082,2.006-2.164,2.988-3.247
	c17.631-19.493,31.18-39.766,26.866-67.644l-0.592-3.973c0,0-0.391-0.991-0.852-3.963c-30.575,33.895-67.499,49.131-106.732,58.466
	c-8.254,1.963-16.563,3.478-24.759,5.83c-5.312,1.53-10.607,3.766-15.644,6.394c-20.46,10.662-30.199,29.809-26.938,52.362"/>
<path fill="#754C24" d="M69.346,261.538c-0.678-2.149-1.038-4.503-1.154-6.955C68.566,256.834,68.971,259.128,69.346,261.538z"/>
<path fill-rule="evenodd" clip-rule="evenodd" fill="#754C24" d="M69.346,261.538c-0.678-2.149-1.038-4.503-1.154-6.955
	C68.566,256.834,68.971,259.128,69.346,261.538z"/>
</svg>
