<?xml version="1.0" encoding="UTF-8"?>
<svg width="377px" height="280px" viewBox="0 0 377 280" version="1.1" xmlns="http://www.w3.org/2000/svg" xmlns:xlink="http://www.w3.org/1999/xlink">
    <title>undraw_connected_world_wuay</title>
    <g id="Page-1" stroke="none" stroke-width="1" fill="none" fill-rule="evenodd">
        <g id="A0" transform="translate(-615.000000, -1886.000000)">
            <g id="undraw_connected_world_wuay" transform="translate(615.000000, 1886.000000)">
                <path d="M347.275,68.064 C304.491,8.529 214.113,-15.621 125.229,10.389 C78.239,24.14 32.929,51.689 10.478,105.041 C-29.66,200.408 54.614,230.866 109.72,240.574 C135.528364,245.030491 160.636651,252.869686 184.396,263.889 C225.655,283.203 298.686,300.316 353.756,219.867 C393.671,161.554 375.773,107.72 347.275,68.064 Z" id="Path" fill="#F2F2F2" fill-rule="nonzero"></path>
                <path d="M99.23,79.843 C99.1103593,78.8967068 98.8683354,77.9699572 98.51,77.086 C98.417591,76.7482514 98.1875409,76.4648617 97.876,76.305 C97.6700298,76.2514944 97.45411,76.2490915 97.247,76.298 L94.015,76.793 C93.7446943,76.805299 93.4858461,76.9057475 93.278,77.079 C92.857,77.522 93.272,78.234 93.259,78.845 C93.177839,79.546343 92.6619366,80.1196125 91.973,80.274 C91.2975905,80.4105767 90.600867,80.4020551 89.929,80.249 L85.41,79.549 C86.740979,79.1242461 87.9257235,78.3338389 88.829,77.268 C89.424,76.568 89.74,75.248 88.881,74.915 C88.6256058,74.8449219 88.3593016,74.8235497 88.096,74.852 C86.049,74.868 84.438,73.158 82.521,72.439 C80.0044872,71.5545435 77.2046048,72.3891006 75.583,74.507 L77.99,74.623 C78.2163944,74.6105796 78.4408747,74.6704643 78.631,74.794 C79.159,75.227 78.503,76.06 78.577,76.739 C78.677,77.621 79.844,77.809 80.727,77.898 C81.61,77.987 82.727,78.704 82.305,79.483 C77.869,81.011 73.355,76.496 68.696,77.052 C67.5298576,77.2777018 66.3794734,77.5783248 65.252,77.952 C58.22,79.731 50.952,74.984 43.765,75.989 C42.1680442,76.2612852 40.5985109,76.6752538 39.075,77.226 C38.070424,77.4686188 37.1406292,77.9537739 36.367,78.639 C35.5901854,79.3698175 35.4596172,80.5568008 36.059,81.439 C34.2041445,81.5917816 32.3368925,81.4143673 30.544,80.915 C31.5317007,81.463859 32.1410495,82.5080734 32.133,83.638 C29.2367011,84.1102699 26.4170876,84.969978 23.75,86.194 C24.2477815,87.0216388 24.8291584,87.796026 25.485,88.505 L21.818,90.861 C22.4229655,91.0563681 22.9063448,91.5161049 23.1317796,92.1105216 C23.3572145,92.7049382 23.3002664,93.3695963 22.977,93.917 C24.262,93.346 25.058,91.867 26.431,91.568 C27.352394,91.4711596 28.281724,91.6515241 29.1,92.086 C29.9201747,92.5205685 30.8618933,92.6690757 31.776,92.508 C32.66,92.248 33.312,91.103 32.75,90.372 C36.5271159,89.2698159 40.4306997,88.6597759 44.364,88.557 C44.667594,88.5188155 44.9755019,88.577248 45.244,88.724 C45.756,89.079 45.621,89.847 45.594,90.469 C45.567,91.091 46.052,91.91 46.608,91.629 C45.953,92.197 46.508,93.265 47.141,93.862 C47.774,94.459 48.526,95.283 48.141,96.062 C48.041,96.262 47.87,96.427 47.774,96.631 C47.489,97.231 47.942,97.938 48.474,98.339 C49.0586919,98.6611351 49.5853084,99.0789131 50.032,99.575 C50.403,100.13 50.232,101.102 49.571,101.175 L47.686,98.782 C47.0422258,99.4495228 46.6008349,100.285843 46.413,101.194 C48.4242085,102.971101 48.6988651,106.008996 47.039,108.118 C46.0899478,109.03483 45.0391146,109.840066 43.907,110.518 C42.7629417,111.214421 42.0087226,112.404164 41.867,113.736 C41.867,116.015 41.685,118.136 42.539,120.245 C44.113594,124.140643 45.9315119,127.933455 47.982,131.601 C48.521,132.564 49.216,133.62 50.307,133.786 C48.9283333,130.43 47.6873333,127.021667 46.584,123.561 C47.3050684,123.457077 48.0334661,123.694333 48.555,124.203 C48.8063586,124.742638 48.9367341,125.330693 48.937,125.926 C49.0750214,126.49297 49.3050731,127.033474 49.618,127.526 L56.202,139.253 C56.6391543,140.288231 57.4220247,141.139668 58.417,141.662 C59.1158519,141.792422 59.802331,141.982107 60.469,142.229 C60.95,142.513 61.274,143.017 61.769,143.285 C63.156,144.042 65.084,142.591 66.38,143.494 C66.7125373,143.798641 67.0289668,144.120411 67.328,144.458 C68.528,145.495 70.489,144.801 71.87,145.574 C72.6958627,146.182943 73.3298959,147.015827 73.697,147.974 C74.887,150.237 76.812,152.453 79.362,152.633 C80.1629472,152.599743 80.965264,152.62749 81.762,152.716 C82.545,152.894 83.316,153.577 83.19,154.371 C82.975,155.731 83.646,157.219 83.466,158.584 C83.137,161.07 79.611,162.162 79.308,164.652 C79.3092968,165.200324 79.2785779,165.748257 79.216,166.293 C79.057,166.947 78.566,167.479 78.391,168.129 C78.06,169.361 78.943,170.586 79.912,171.415 C80.981334,172.113359 81.8873031,173.034337 82.568,174.115 C83.128,175.341 82.853,176.77 83.035,178.106 C83.435,181.022 85.951,183.183 88.542,184.576 C89.3710433,184.924879 90.1067331,185.463289 90.69,186.148 C91.357,187.109 91.29,188.377 91.513,189.526 C92.059,192.339 94.427,194.658 94.494,197.526 C94.542,199.562 93.41,201.41 92.734,203.331 C91.4512643,207.056295 91.8550594,211.155583 93.84,214.559 C94.4001779,215.378643 94.8915233,216.243263 95.309,217.144 C95.948,218.796 95.74,220.675 96.329,222.344 C97.107,224.553 99.246,226.377 99.041,228.71 C100.012,230.726 102.156,231.717 104.312,232.317 L108.176,233.393 C108.900603,233.65569 109.676414,233.746076 110.442,233.657 C111.226916,233.544476 111.829794,232.904255 111.895,232.114 C109.969256,231.813517 108.126582,231.117578 106.483,230.07 C104.921,228.915 103.851,226.859 104.444,225.009 C104.719,224.151 105.303,223.161 104.744,222.452 C104.426,222.046 103.844,221.94 103.485,221.57 C103.01433,220.891864 103.02841,219.989127 103.52,219.326 C104.011782,218.689023 104.398966,217.97778 104.667,217.219 C104.83442,216.316437 104.42384,215.404791 103.637,214.932 C104.353618,214.661601 105.005381,214.24356 105.55,213.705 C106.096395,213.142244 106.232281,212.297752 105.89,211.592 C107.065,211.741 108.452,211.814 109.223,210.915 C109.760341,210.120267 109.883115,209.115756 109.553,208.215 C109.218708,207.330135 108.994361,206.407562 108.885,205.468 C111.595312,205.596582 114.311592,205.504613 117.007,205.193 C116.617364,203.880245 115.73178,202.770844 114.538,202.1 C115.759,201.893 116.871,200.432 117.257,199.255 C117.585303,198.054739 117.602168,196.790592 117.306,195.582 C117.214339,195.269321 117.201627,194.938795 117.269,194.62 C117.464555,194.200017 117.80867,193.867301 118.235,193.686 L124.295,190.206 C124.656569,190.024927 124.984337,189.783075 125.264,189.491 C125.817194,188.658451 125.898958,187.598544 125.48,186.691 C125.060826,185.806051 124.735388,184.879675 124.509,183.927 C124.134,181.022 127.244,178.938 128.294,176.203 C128.652408,175.109033 128.846521,173.967943 128.87,172.817 C128.956,171.585 128.962,170.155 128.016,169.361 C127.11,168.6 125.693,168.77 124.745,168.061 C123.875,167.412 123.575,166.152 122.625,165.628 C121.762,165.152 120.68,165.455 119.725,165.228 C118.035,164.834 116.972,162.887 115.247,162.706 C114.273,162.606 113.172,163.08 112.374,162.513 C111.674,162.013 111.643,161.013 111.509,160.157 C111.028606,157.444861 108.909589,155.319061 106.199,154.83 C105.181395,154.816963 104.177313,154.595044 103.249,154.178 C102.384,153.619 101.988,152.578 101.309,151.8 C100.214,150.553 98.49,150.11 96.875,149.731 L90.306,148.187 C89.14,147.913 87.637,147.767 87.006,148.787 C86.820688,149.175965 86.6894709,149.588458 86.616,150.013 C86.1339106,151.587585 84.6925029,152.672477 83.046,152.7 C82.4955188,151.760631 81.6034211,151.070241 80.556,150.773 C79.8744146,150.65839 79.2012486,150.498367 78.541,150.294 C77.8418465,149.952639 77.3140701,149.338493 77.0817532,148.595949 C76.8494363,147.853405 76.933073,147.047968 77.313,146.369 C78.0922811,144.983135 77.8464285,143.247007 76.713,142.132 C75.5107995,141.203372 73.9884437,140.79139 72.482,140.987 C72.09,140.131 72.746,139.165 73.453,138.543 C74.16,137.921 75.018,137.309 75.172,136.38 C75.414,134.919 73.55,133.809 72.134,134.244 C70.7553093,134.83597 69.6943086,135.98754 69.217,137.41 C68.9300028,138.21111 68.5346643,138.969151 68.042,139.663 C67.5287469,140.364541 66.6648632,140.718211 65.807,140.578 C64.641,140.278 64.191,138.895 63.933,137.72 C63.5183976,136.157827 63.309301,134.548254 63.311,132.932 C63.3209959,131.298877 63.9687175,129.734297 65.116,128.572 C67.054,126.793 70.027,126.972 72.642,127.251 C72.0612097,126.479668 72.1470225,125.396281 72.842,124.726 C73.5501364,124.097035 74.5229871,123.857938 75.442,124.087 C76.2302425,124.2509 76.9403706,124.675356 77.458,125.292 C78.0598605,126.295544 78.5673664,127.352737 78.974,128.45 C79.536,129.479 80.799,130.356 81.833,129.804 C82.657074,129.172917 82.9842703,128.084948 82.645,127.104 C82.2941772,126.154422 82.0872252,125.157749 82.031,124.147 C82.185,122.222 84.18,121.063 85.942,120.27 C87.704,119.477 89.72,118.411 89.999,116.5 C90.0080719,116.124374 90.0786753,115.752778 90.208,115.4 C90.4033367,115.089361 90.6749635,114.833914 90.997,114.658 C96.137,111.258 101.363,107.823 107.237,105.967 C107.543,105.867 107.579,105.978 107.89,105.902 C108.326,105.65 108.037,104.953 107.619,104.672 C107.201,104.391 106.642,104.172 106.536,103.684 C106.458,103.322 106.671,102.967 106.727,102.601 C106.755865,102.152315 106.559791,101.718636 106.203865,101.443921 C105.847939,101.169206 105.378734,101.089402 104.952,101.231 C104.48,100.606 105.414,99.88 106.169,99.672 C108.436387,99.0480167 110.763908,98.6678628 113.112,98.538 C113.382903,98.4947679 113.660505,98.5418549 113.902,98.672 C114.259707,99.018055 114.287697,99.5822381 113.966,99.962 C113.642953,100.316531 113.287028,100.639643 112.903,100.927 C112.12738,101.682672 111.837393,102.807527 112.151,103.844 C113.314584,104.594158 114.684336,104.960032 116.067,104.89 C117.425,104.67 118.63,103.145 117.991,101.927 C117.397,100.793 115.612,100.537 115.305,99.293 C114.946,97.837 117.005,96.543 116.542,95.117 C116.342,94.492 115.716,94.125 115.242,93.674 C114.087179,92.542469 113.746704,90.8174466 114.385,89.332 C112.80653,89.6094706 111.191546,89.1039494 110.053,87.976 C109.017,86.93 108.19,85.276 106.719,85.327 C105.369,85.37 104.206,86.945 102.943,86.465 C102.632,86.347 102.305,86.106 102.004,86.247 C101.80439,86.3767274 101.675371,86.5908993 101.654,86.828 C101.333,88.362 101.885,90.11 101.054,91.436 C100.144,92.879 98.04,93.079 96.937,94.379 C96.337,95.085 96.106,96.037 95.556,96.779 C95.006,97.521 93.838,97.997 93.177,97.348 C93.8453417,95.9737454 93.4757711,94.3200104 92.286,93.361 C91.6729405,92.9609859 91.0121124,92.6394748 90.319,92.404 C89.5436272,92.0762168 88.8060004,91.6654928 88.119,91.179 C87.7752221,90.9716781 87.4958263,90.6728942 87.312,90.316 C87.1667577,89.8690289 87.1862673,89.3848366 87.367,88.951 C88.0497647,86.9941244 89.7603738,85.5765096 91.81,85.269 C92.689,85.149 93.71,85.192 94.295,84.522 C94.603,84.167 94.764,83.631 95.211,83.487 C95.4964081,83.4282976 95.7931439,83.4633728 96.057,83.587 L99.339,84.742 C99.7051254,84.9073183 100.108165,84.9738596 100.508,84.935 C100.919464,84.8797138 101.218639,84.5164295 101.194,84.102 C101.094,83.557 100.25,83.295 100.327,82.746 C100.369808,82.5677219 100.465698,82.4066268 100.602,82.284 C103.000431,79.7314452 106.413684,78.383674 109.909,78.609 C110.323,79.289 109.668,80.095 109.123,80.676 C108.578,81.257 108.14,82.295 108.799,82.742 C109.06892,82.8809914 109.369495,82.949773 109.673,82.942 C110.481075,83.0515408 111.266369,83.2898975 111.999,83.648 C113.132333,84.1413333 114.244667,84.6813333 115.336,85.268 C115.178436,84.5563886 115.20737,83.8161412 115.42,83.119 C115.665534,82.40747 116.413218,82.0006674 117.144,82.181 C117.796,82.433 118.131,83.297 118.825,83.376 C119.752,83.481 120.117,82.112 119.73,81.264 C119.343,80.416 118.577,79.705 118.513,78.774 C118.47,78.146 118.713,77.368 118.207,76.987 C118.028423,76.8729554 117.825733,76.8020822 117.615,76.78 L105.094,74.48 C104.35,74.343 103.276,74.448 103.243,75.203 C103.225,75.625 103.601,76.042 103.434,76.429 C103.256,76.843 102.671,76.805 102.245,76.951 C101.59132,77.2518438 101.213339,77.946774 101.316,78.659 C101.432111,79.3506497 101.699846,80.0080333 102.1,80.584 C101.278,80.246 100.044,80.184 99.23,79.843 Z" id="Path" fill="#3F3D56" fill-rule="nonzero"></path>
                <path d="M89.239,69.214 C87.6215147,68.6788316 85.8420011,69.2118067 84.785,70.548 C84.538363,70.7940289 84.4575231,71.1611279 84.578,71.488 C84.825,71.909 85.456,71.743 85.921,71.588 C86.6042021,71.343799 87.3478504,71.3259178 88.042,71.537 C88.479,71.687 88.869,71.952 89.307,72.096 C89.742092,72.2782178 90.2422569,72.2051168 90.607,71.906 C90.8654067,71.5573455 90.9799676,71.1227301 90.927,70.692 C90.9685047,70.401459 90.8770613,70.1076648 90.678,69.892 C90.5025572,69.7904655 90.305449,69.73219 90.103,69.722 C89.6491873,69.6379525 89.2389331,69.398166 88.943,69.044" id="Path" fill="#3F3D56" fill-rule="nonzero"></path>
                <path d="M93.755,67.957 C93.3949418,67.935972 93.0500715,68.1046262 92.8455931,68.4017334 C92.6411147,68.6988405 92.6067595,69.0812009 92.755,69.41 C93.2976762,69.5581048 93.8646587,69.595178 94.422,69.519 C94.9902619,69.4306915 95.4497474,69.0094637 95.587,68.451 C94.9305619,68.5705567 94.2531298,68.4411315 93.687,68.088" id="Path" fill="#3F3D56" fill-rule="nonzero"></path>
                <path d="M108.902,65.857 C107.425133,66.1710306 105.990527,66.658407 104.628,67.309 C105.946811,67.8161614 106.779314,69.1255986 106.679,70.535 C106.620804,70.7993044 106.627322,71.0737563 106.698,71.335 C106.855,71.716 107.31,71.858 107.71,71.956 C108.428465,72.1745604 109.178677,72.2702386 109.929,72.239 C110.691703,72.1989571 111.38264,71.7765713 111.766,71.116 C111.874865,70.8084923 112.002436,70.5079312 112.148,70.216 C113.107,68.756 115.954,70.521 116.984,69.11 C117.347,68.61 117.313,67.865 117.784,67.471 C118.028577,67.2991241 118.31211,67.1908662 118.609,67.156 C120.678851,66.7447535 122.769638,66.4469758 124.872,66.264 C125.872,66.177 127.166,65.82 127.172,64.82 C123.420036,64.0832611 119.529779,64.6067198 116.106,66.309 C114.872,66.927 113.241,68.227 112.053,67.409 C111.608,67.102 111.63,66.276 111.018,65.932 C110.342936,65.6612842 109.594537,65.6347577 108.902,65.857 Z" id="Path" fill="#3F3D56" fill-rule="nonzero"></path>
                <path d="M121.173,68.152 L122.934,68.49 C122.278192,68.4608891 121.64161,68.7156091 121.186903,69.1890788 C120.732196,69.6625485 120.50341,70.3089038 120.559,70.963 C122.208,71.514 124.006,70.978 125.744,71.051 C127.482,71.124 129.503,72.365 129.206,74.079 C129.116,74.597 128.817,75.115 128.973,75.617 C129.141143,75.944054 129.340396,76.2541524 129.568,76.543 C129.854709,77.2735172 129.704544,78.1032953 129.18,78.687 C128.719,79.301 128.099,79.787 127.694,80.444 C126.687,82.067 127.259,84.166 127.859,85.979 C128.032238,86.6642342 128.352286,87.3036486 128.797,87.853 C129.685,88.798 131.133,88.88 132.43,88.899 C133.373837,89.0472002 134.334626,88.7671381 135.051,88.135 C135.83,87.18 135.285,85.691 135.798,84.571 C136.414512,83.6213954 137.406962,82.9800136 138.526,82.808 C140.517774,82.3202426 142.469966,81.6831059 144.366,80.902 C146.679,79.838 148.84,78.181 151.382,78.044 C152.095698,78.0731787 152.810427,78.0228693 153.513,77.894 C154.232646,77.743924 154.761028,77.1280946 154.8,76.394 C154.756,75.785 154.241,75.339 153.838,74.88 C153.435,74.421 153.12,73.716 153.489,73.23 L160.152,71.986 C159.68,70.699 159.312,69.004 160.397,68.166 C160.789,67.866 161.313,67.743 161.646,67.377 C162.145607,66.656899 161.98013,65.6698032 161.273,65.152 C160.567774,64.6804861 159.738333,64.4291826 158.89,64.43 C155.962677,64.25446 153.026745,64.2805216 150.103,64.508 L132.938,65.449 C131.747554,65.4003429 130.556248,65.5215612 129.4,65.809 C128.583764,66.2674621 127.729618,66.6548891 126.847,66.967 C124.959,67.36 122.881,67.092 121.173,68.152 Z" id="Path" fill="#3F3D56" fill-rule="nonzero"></path>
                <path d="M152.725,82.073 C152.545452,82.044465 152.361803,82.0859919 152.212,82.189 C152.112067,82.2992098 152.053099,82.4404495 152.045,82.589 C151.931161,83.237502 152.066532,83.9050707 152.424,84.458 C152.795623,85.0090607 153.436816,85.315302 154.099,85.258 C154.892,85.158 155.477,84.48 156.206,84.15 C157.33,83.642 162.106,82.85 158.801,81.066 C157.663,80.451 156.928,80.994 156.032,81.399 C155.01148,81.9202471 153.868117,82.1532761 152.725,82.073 L152.725,82.073 Z" id="Path" fill="#3F3D56" fill-rule="nonzero"></path>
                <path d="M181.639,67.15 C181.253295,67.3079536 180.930816,67.5892874 180.722,67.95 C180.521598,68.3290825 180.653517,68.7987167 181.022,69.018 C181.16609,69.0701837 181.318842,69.0942846 181.472,69.089 L183.039,69.136 C183.705,69.156 184.539,69.298 184.715,69.936 C184.848,70.412 184.551,71.025 184.909,71.365 C185.062904,71.4842585 185.247999,71.5564905 185.442,71.573 C185.95822,71.7056186 186.497298,71.7230303 187.021,71.624 C188.161,71.318 187.562,70.624 187.921,70.002 C188.471,69.054 188.375,69.628 189.344,69.084 C190.059,68.684 190.983,67.955 190.386,66.932 C189.351,65.15 183.17,66.381 181.639,67.15 Z" id="Path" fill="#3F3D56" fill-rule="nonzero"></path>
                <path d="M212.573,66.251 L211.663,66.372 C209.602674,66.5881361 207.564376,66.9785337 205.57,67.539 C206.42551,67.8773299 207.323075,68.0976843 208.238,68.194 C208.741793,68.2185368 209.242247,68.2895043 209.733,68.406 C210.606,68.666 211.486,69.337 212.333,68.993 C212.856,68.78 213.027,68.235 213.46,67.947 C213.76,67.747 214.894,67.425 215.021,67.224 C216.043,65.598 213.362,66.145 212.573,66.251 Z" id="Path" fill="#3F3D56" fill-rule="nonzero"></path>
                <path d="M216.564,70.387 C215.348141,71.0668533 214.220084,71.8929983 213.205,72.847 C212.725317,73.1983446 212.423488,73.7420752 212.379,74.335 C212.431,75.113 213.26,75.565 213.979,75.869 L216.888,77.101 C217.241,76.601 216.918,75.917 216.553,75.428 C216.188,74.939 215.753,74.374 215.916,73.785 C216.1,73.114 216.916,72.885 217.605,72.769 C218.723,72.581 221.74,72.596 221.378,70.793 C220.956,68.665 217.692,69.76 216.564,70.387 Z" id="Path" fill="#3F3D56" fill-rule="nonzero"></path>
                <path d="M215.984,190.568 C215.659501,191.366743 215.724534,192.270918 216.16,193.015 C216.761256,193.782929 217.756921,194.126951 218.704,193.894 C219.63086,193.647245 220.456972,193.115973 221.066,192.375 C221.623162,191.754114 222.08152,191.051231 222.425,190.291 C222.904267,189.106492 223.242265,187.869628 223.432,186.606 L224.332,181.863 C224.532,180.803 224.526,177.553 222.578,178.612 C222.046,178.901 220.813,181.185 220.256,181.833 C219.251,183 219.118,184.133 218.589,185.547 C217.929,187.318 216.597,188.794 215.984,190.568 Z" id="Path" fill="#3F3D56" fill-rule="nonzero"></path>
                <path d="M318.883,214.839 C318.245567,214.590343 317.626953,214.295909 317.032,213.958 C316.435351,215.59851 316.11828,217.327528 316.094,219.073 L320.456,216.605 C321.112,216.234 321.856,215.718 321.842,214.964 C321.854103,214.774417 321.761662,214.59337 321.601,214.492 C321.504013,214.453014 321.398387,214.440588 321.295,214.456 C320.655879,214.571868 320.034848,214.771593 319.448,215.05 C318.851575,215.328219 318.163344,215.331872 317.564,215.06" id="Path" fill="#3F3D56" fill-rule="nonzero"></path>
                <path d="M341.894,216.304 C341.414914,216.433601 340.946796,216.600786 340.494,216.804 C339.574283,217.446293 338.710236,218.164827 337.911,218.952 C337.014613,219.548197 336.029866,219.999398 334.993,220.289 C334.866987,220.443372 334.812741,220.644135 334.84386,220.840964 C334.874978,221.037793 334.988511,221.21203 335.156,221.32 C335.505701,221.51897 335.906788,221.609145 336.308,221.579 C337.365351,221.693354 338.434206,221.528543 339.408,221.101 C339.93043,220.761994 340.419314,220.373901 340.868,219.942 C341.991857,219.084549 343.228053,218.385362 344.542,217.864 C345.011158,217.686884 345.444955,217.427486 345.823,217.098 C346.633,216.298 346.69,215.07 345.523,214.798 C344.579,214.583 342.792,216.014 341.894,216.304 Z" id="Path" fill="#3F3D56" fill-rule="nonzero"></path>
                <path d="M352.062,209.662 C352.168432,208.549848 351.758091,207.450443 350.949,206.68 C351.041959,207.780639 350.811531,208.884472 350.286,209.856 C349.846,210.503 349.156,210.94 348.674,211.556 C348.115478,212.140078 348.060112,213.041993 348.543,213.69 C348.90446,213.965177 349.344754,214.116966 349.799,214.123 C350.925,214.256 352.228,214.329 353.017,213.516 C353.448,213.072 353.658,212.416 354.183,212.088 C354.378895,212.005833 354.553858,211.880761 354.695,211.722 C354.912,211.377 354.567,210.922 354.179,210.798 C353.791,210.674 353.363,210.732 352.973,210.614 C352.583,210.496 352.225,210.057 352.425,209.702" id="Path" fill="#3F3D56" fill-rule="nonzero"></path>
                <path d="M333.991,169.4 C333.400259,169.543559 332.788479,169.579466 332.185,169.506 C331.211389,169.195909 330.323998,168.661967 329.594,167.947 C327.67073,166.482694 325.332706,165.665891 322.916,165.614 C320.716,165.572 318.498,166.168 316.339,165.753 C316.552546,166.534098 317.11783,167.171105 317.868,167.476 C318.584,167.826 319.375,168.002 320.095,168.345 C321.247973,168.899053 322.162553,169.850201 322.671,171.024 C322.850985,171.583855 323.095637,172.120814 323.4,172.624 C324.243821,173.510382 325.471344,173.922177 326.679,173.724 C328.245,173.624 329.879,173.171 331.336,173.754 C332.3874,174.333875 333.345476,175.068783 334.178,175.934 C335.108,176.692 336.419,177.255 337.487,176.708 C335.209339,175.970677 333.675789,173.837888 333.702,171.444 C334.75,171.544 337.768,171.503 337.602,169.723 C337.467,168.216 334.891,169.238 333.991,169.4 Z" id="Path" fill="#3F3D56" fill-rule="nonzero"></path>
                <path d="M320.284,181.676 C320.47,180.656 321.484,179.755 321.171,178.767 C320.86278,178.099122 320.177356,177.687788 319.443,177.73 C318.726,177.713 318.021,177.93 317.305,177.947 C316.838413,177.922243 316.370689,177.928925 315.905,177.967 C314.482,178.201 313.605,179.693 312.263,180.223 C311.413331,180.435228 310.551817,180.596845 309.683,180.707 C307.758,181.213 306.539,183.033 305.193,184.499 C303.01841,186.858607 300.185442,188.51094 297.061,189.242 C295.941704,189.374325 294.867221,189.75973 293.919,190.369 C292.767,191.311 292.483,192.925 292.227,194.39 C291.518514,198.43819 290.435872,202.411895 288.993,206.26 L293.565,206.844 C294.426909,207.015835 295.315465,207.002883 296.172,206.806 C296.780557,206.576272 297.356971,206.269075 297.887,205.892 C299.92306,204.627697 302.201879,203.804951 304.576,203.477 C305.769847,203.253415 307.001092,203.339836 308.152,203.728 C309.316898,204.140048 310.157231,205.164084 310.334,206.387 C311.324013,206.079214 312.403071,206.341771 313.141,207.07 C313.856781,207.799334 314.325492,208.735006 314.481,209.745 C314.601,210.37 314.722,211.12 315.302,211.382 C315.776,211.596 316.319,211.366 316.837,211.324 C318.595,211.183 320.053,213.233 321.781,212.88 C323.634,212.502 324.089,209.726 325.896,209.171 C326.934,208.852 328.39,209.24 328.888,208.271 C329.326,207.42 328.452,206.438 328.542,205.484 C328.653,204.31 330.042,203.812 331.104,203.312 C334.858083,201.37303 336.453917,196.846682 334.746,192.982 C333.69,190.818 331.611,189.115 331.227,186.738 C330.927,184.909 331.653,182.776 330.487,181.338 C329.894,180.606 328.887,180.201 328.536,179.328 C328.39968,178.751714 328.315341,178.16436 328.284,177.573 C328.164,176.992 327.657,176.384 327.084,176.535 C325.418,176.972 324.884,182.118 323.995,183.368 C323.429402,184.204235 322.342679,184.509871 321.424103,184.091054 C320.505527,183.672236 320.023603,182.651389 320.284,181.676 L320.284,181.676 Z" id="Path" fill="#3F3D56" fill-rule="nonzero"></path>
                <path d="M289.498,171.345 C288.945277,171.123355 288.334492,171.092042 287.762,171.256 C287.217,171.484 286.898,172.285 287.336,172.682 C290.75695,172.44913 294.191717,172.516052 297.601,172.882 C301.513,173.418 305.384,174.745 309.313,174.354 C307.068749,173.692036 304.787468,173.162787 302.481,172.769 L298.635,172.034 C297.60329,171.817795 296.560821,171.656568 295.512,171.551 C293.316,171.37 291.655,171.95 289.498,171.345 Z" id="Path" fill="#3F3D56" fill-rule="nonzero"></path>
                <path d="M292.926,159.419 C292.642,159.395 292.29,159.375 292.143,159.619 C291.996,159.863 292.163,160.161 292.088,160.419 C291.988,160.777 291.516,160.868 291.147,160.819 C290.787961,160.708437 290.403326,160.712983 290.047,160.832 C289.706276,161.064884 289.560041,161.49463 289.688,161.887 C289.821711,162.266042 290.037914,162.610668 290.321,162.896 C290.804692,163.505601 291.355871,164.058458 291.964,164.544 C293.141,165.413 294.735,165.831 295.477,167.092 C295.581587,167.336259 295.742263,167.552435 295.946,167.723 C296.341641,167.881885 296.790043,167.836671 297.146,167.602 L298.489,166.988 C298.730971,166.90086 298.946993,166.753979 299.117,166.561 C299.353241,166.088739 299.299276,165.523073 298.978,165.104 C298.656574,164.695237 298.470609,164.196419 298.446,163.677 C298.546,162.76 299.723,162.409 300.208,161.625 C300.693,160.841 300.379,159.815 300.435,158.888 C300.501,157.803 301.183,156.388 300.086,155.581 C299.154,154.892 298.263,155.529 297.593,156.289 C296.188,157.898 295.521,159.635 292.926,159.419 Z" id="Path" fill="#3F3D56" fill-rule="nonzero"></path>
                <path d="M301.078,143.207 C301.536,144.085 302.492,144.607 302.992,145.464 C303.534,146.391 303.472,147.588 304.06,148.486 C304.66,149.408 305.877,149.897 306.215,150.945 C306.584,152.089 305.746,153.48 306.415,154.48 C306.666868,154.810503 307.045768,155.020266 307.459561,155.058281 C307.873354,155.096296 308.28413,154.95908 308.592,154.68 C309.176015,154.041643 309.146777,153.054667 308.526,152.452 C308.126,152.091 307.563,151.936 307.232,151.514 C307.059998,151.270868 306.945452,150.991854 306.897,150.698 C306.716941,149.850485 306.745769,148.971888 306.981,148.138 C307.069135,147.926513 307.091439,147.693361 307.045,147.469 C306.896,147.037 306.311,147.006 305.901,146.806 C304.968,146.351 304.991,145.034 305.154,144.006 C305.045,144.688 302.615,143.528 302.36,143.141 C301.854,142.373 302.13,140.892 302.029,140.041 C300.924952,140.679037 300.508278,142.066198 301.078,143.207 L301.078,143.207 Z" id="Path" fill="#3F3D56" fill-rule="nonzero"></path>
                <path d="M276.59,156.714 C276.141,156.214 275.466,155.686 274.864,155.989 C274.419651,156.279957 274.248787,156.848237 274.459,157.336 C274.678175,157.803594 275.015638,158.20586 275.438,158.503 C276.745165,159.46995 277.981641,160.528975 279.138,161.672 C281.095,163.823 282.132,166.724 284.26,168.706 C284.687846,169.165414 285.254394,169.472045 285.873,169.579 C286.513496,169.665423 287.114643,169.250511 287.261,168.621 C287.246837,168.102181 287.012681,167.613872 286.617,167.278 C285.79,166.378 284.885,165.551 284.105,164.611 C283.744637,164.250079 283.518167,163.777032 283.463,163.27 C283.463,162.764 283.92,162.235 284.411,162.36 C283.811,162.208 283.373,161.214 282.498,161.028 C281.767,160.872 281.59,161.328 280.72,160.951 C279.054,160.239 277.752,158.016 276.59,156.714 Z" id="Path" fill="#3F3D56" fill-rule="nonzero"></path>
                <path d="M315.59,107.81 C315.114648,107.668733 314.647297,107.501821 314.19,107.31 C312.958,106.94 311.327,107.846 311.49,109.122 C311.599,109.97 312.39,110.542 312.824,111.277 C313.363002,112.442468 313.411283,113.775595 312.958,114.977 C312.874699,115.355032 312.716224,115.712451 312.492,116.028 C312.179602,116.360711 311.806159,116.630268 311.392,116.822 C309.727662,117.755324 308.259944,119.002307 307.07,120.494 C306.940581,120.631718 306.850452,120.801616 306.809,120.986 C306.75,121.417 307.183,121.731 307.428,122.086 C307.972,122.886 307.579,123.958 307.628,124.923 C307.612115,125.199068 307.739926,125.463764 307.966,125.623 C308.294,125.79 308.682,125.507 308.86,125.185 C309.45,124.117 309.006,122.402 310.112,121.885 C310.321,121.785 310.575,121.746 310.712,121.563 C310.933,121.271 310.72,120.84 310.832,120.491 C311.001,119.968 311.716,119.944 312.266,119.967 C313.213883,120.007181 314.16149,119.881285 315.066,119.595 C315.420142,119.510703 315.741763,119.324337 315.991,119.059 C316.268512,118.602329 316.353055,118.054055 316.226,117.535 C315.895079,114.918994 315.066505,112.390504 313.785,110.086 C314.744664,110.315608 315.75348,110.218844 316.652,109.811 C317.122,109.527 317.685,108.679 317.452,108.102 C317.081,107.194 316.416,107.963 315.59,107.81 Z" id="Path" fill="#3F3D56" fill-rule="nonzero"></path>
                <path d="M191.013,122.197 C191.181699,122.811556 191.190649,123.459016 191.039,124.078 C190.859815,124.710829 190.232319,125.106734 189.584,124.996 C189.113,124.853 188.841,124.379 188.506,124.018 C186.645,122.009 182.447,123.172 181.297,120.687 C180.828,119.673 181.147,118.458 180.827,117.387 C180.411976,116.113929 179.188421,115.282734 177.852,115.366 C177.259384,115.451556 176.682556,115.623728 176.14,115.877 C172.505502,117.3327 168.689839,118.287121 164.798,118.714 C164.058342,118.760188 163.326838,118.89447 162.619,119.114 C161.059137,119.831801 159.822956,121.105421 159.152,122.686 C158.494397,124.253339 157.693674,125.756703 156.76,127.177 C155.56827,128.510082 154.202702,129.676869 152.7,130.646 C152.149251,131.000232 151.690362,131.480027 151.361,132.046 C151.103667,132.709274 151.011352,133.425142 151.092,134.132 L151.384,142.732 C151.343387,143.841701 151.541165,144.947211 151.964,145.974 C152.582,147.21 153.804,148.02 154.651,149.112 C155.515684,150.234274 155.96609,151.620819 155.926,153.037 C155.908,153.606 155.851,154.28 156.295,154.637 C156.564778,154.811982 156.880479,154.902828 157.202,154.898 L168.835,155.85 C170.881,156.017 173.149,156.293 174.485,157.85 C175.116,158.586 175.622,159.644 176.585,159.723 C176.999507,159.699515 177.41148,159.643002 177.817,159.554 C178.885181,159.595885 179.85194,160.198446 180.36,161.139 C181.237151,162.471061 181.635277,164.061798 181.489,165.65 C181.394,166.65 181.089,167.616 181.018,168.615 C180.764,172.415 183.988,175.72 184.05,179.53 C184.087,181.771 183.023,183.865 181.986,185.852 C183.66,188.388 182.286,191.765 182.956,194.73 C183.588,197.543 185.934,199.745 186.518,202.568 C186.786,203.86 186.801,205.451 187.941,206.116 C188.441162,206.359659 188.995597,206.470546 189.551,206.438 C192.900824,206.477715 196.212464,205.723823 199.215,204.238 C200.624,203.538 202.085,202.495 202.331,200.938 C202.531,199.685 201.894,198.283 202.541,197.192 C203.303,195.906 205.256,196.008 206.377,195.019 C208.196,193.419 206.777,190.354 207.515,188.043 C208.178,185.966 210.458,184.862 211.589,182.998 C212.034055,182.196139 212.353438,181.330736 212.536,180.432 C213.053855,178.284203 213.376171,176.093928 213.499,173.888 C213.530432,172.547751 213.630563,171.209994 213.799,169.88 C215.018,162.307 222.505,157.236 224.935,149.961 C225.167,149.266 225.276,148.341 224.658,147.948 C224.291399,147.773174 223.875825,147.729745 223.481,147.825 L218.118,148.501 C217.458677,148.645046 216.772484,148.605617 216.134,148.387 C215.483691,148.132547 215.159766,147.401708 215.408,146.749 C216.319,145.099 214.445,143.014 213.608,141.324 C211.366411,136.771428 208.697068,132.442283 205.636,128.395 C205.439834,128.186837 205.316948,127.92035 205.286,127.636 L206.808,127.687 C206.294,125.843 205.446,123.826 203.655,123.152 C202.612762,122.869201 201.523379,122.804519 200.455,122.962 C197.289893,123.027007 194.126358,122.770694 191.013,122.197 L191.013,122.197 Z" id="Path" fill="#3F3D56" fill-rule="nonzero"></path>
                <path d="M200.459,80.652 C201.172129,81.6000501 202.187987,82.2757597 203.338,82.567 C205.401,82.831 206.884,80.698 207.828,78.845 C207.900612,79.8280429 208.743407,80.5741385 209.728,80.527 C210.237032,80.4413062 210.72286,80.2513328 211.155,79.969 C215.241606,77.7355547 219.818974,76.5521258 224.476,76.525 C224.38395,75.7941307 224.858715,75.1117648 225.576,74.944 C226.523,74.756 227.376,75.575 227.832,76.425 C228.170705,77.3296973 228.667421,78.1670374 229.299,78.898 C230.025,79.535 231.43,79.507 231.716,78.585 C231.991,77.7 231.069,76.945 230.303,76.424 C229.537,75.903 228.73,74.937 229.246,74.167 C233.134194,73.1868347 237.100622,72.5484051 241.1,72.259 C241.783244,72.283312 242.464143,72.1661974 243.1,71.915 C243.745595,71.6417783 244.127662,70.9694725 244.032,70.275 C242.244864,70.6950126 240.381263,69.991864 239.317,68.496 C244.873,68.038 250.782,67.647 255.705,70.261 C256.296,71.529 253.285,72.585 254.09,73.729 C254.409509,74.0490632 254.859455,74.2027392 255.308,74.145 C258.72791,74.3052279 262.155251,74.1744235 265.553,73.754 C266.775495,73.4844701 268.02913,73.3835334 269.279,73.454 C271.346,73.709 273.114,75.088 275.148,75.538 C275.971526,75.7801905 276.8583,75.6746738 277.602,75.246 C277.956555,75.0159197 278.202256,74.6515035 278.282607,74.2365458 C278.362958,73.821588 278.271044,73.3917973 278.028,73.046 C279.943,71.169 283.121,71.634 285.647,72.533 C288.173,73.432 290.566,74.881 293.24,75.081 C295.157,75.225 297.101,74.709 298.996,75.037 C300.167144,75.3320925 301.32262,75.6862112 302.458,76.098 C304.697536,76.5633916 306.987955,76.7365008 309.272,76.613 C315.099015,76.6900322 320.862694,77.8332106 326.278,79.986 C326.982524,80.215367 327.628067,80.5966849 328.169,81.103 C328.71238,81.6313203 328.879491,82.4371738 328.591,83.138 L322.991,82.32 C323.518,83.358 324.883,83.535 325.991,83.893 C327.099,84.251 328.248,85.475 327.582,86.43 C326.382,86.048 325.293,87.248 324.682,88.353 C324.071,89.458 323.336,90.78 322.082,90.847 C320.955,90.907 319.593,89.947 318.858,90.804 C319.872432,92.0838699 320.741123,93.4727691 321.448,94.945 C322.174,96.457 322.69,98.361 321.71,99.721 C321.555631,99.9637141 321.321563,100.145099 321.048,100.234 C320.248,100.434 319.727,99.457 319.148,98.863 C318.326214,98.2192339 317.368707,97.7709154 316.348,97.552 C315.368,97.201 314.335,96.511 314.259,95.472 C314.294101,94.8235102 314.480763,94.1922841 314.804,93.629 C315.226495,92.6226236 315.411281,91.5323892 315.344,90.443 C315.338665,89.5560486 315.007705,88.7019581 314.414,88.043 C313.783406,87.3885259 312.772602,87.2845719 312.022,87.797 C311.707,88.059 311.454,88.477 311.045,88.497 C310.322,88.525 309.766,87.264 309.184,87.697 C309.252112,88.1555762 309.156898,88.6235043 308.915,89.019 C307.178,90.529 304.515,89.89 302.272,90.419 C301.207363,90.7238013 300.188067,91.1690497 299.241,91.743 C298.886869,91.8944871 298.585531,92.1474571 298.375,92.47 C298.150813,93.0594917 298.367695,93.7255385 298.896,94.07 C299.418452,94.390569 300.005596,94.5910657 300.615,94.657 C303.380614,95.0329159 306.010159,96.0876195 308.269,97.727 C310.424,99.48 311.837,102.378 311.155,105.071 L305.772,99.928 C305.976667,102.087333 306.092667,104.254 306.12,106.428 C306.154739,106.852148 306.096377,107.278765 305.949,107.678 C305.565,108.526 304.525,108.811 303.614,108.998 C303.102153,109.096408 302.656606,109.408521 302.389255,109.855952 C302.121904,110.303383 302.058148,110.843625 302.214,111.341 C302.634282,112.365893 303.272349,113.287166 304.084,114.041 C304.897419,114.799003 305.445412,115.798574 305.647,116.892 C305.747,117.992 304.914,119.231 303.813,119.155 C302.976404,118.989332 302.288773,118.395537 302.003,117.592 C301.732395,116.800306 301.362799,116.045994 300.903,115.347 C299.284,113.399 295.646,114.234 294.195,112.157 C293.443388,113.009928 293.186864,114.191151 293.517,115.279 C294.268325,114.944933 295.151019,115.189707 295.623,115.863 C296.061845,116.527131 296.444825,117.22653 296.768,117.954 C297.305,118.884 298.161,119.709 298.236,120.781 C298.216285,121.186355 298.2233,121.592568 298.257,121.997 C298.49572,122.616082 298.857318,123.18042 299.32,123.656 C300.135716,124.998236 300.237105,126.656379 299.591,128.088 C298.941092,129.490646 298.05789,130.772845 296.979,131.88 C295.255545,133.95326 293.352132,135.870059 291.291,137.608 C290.653279,138.04056 290.105219,138.592356 289.677,139.233 C289.252623,139.901796 289.326672,140.77157 289.858,141.359 C289.447,141.38 288.71,141.582 288.299,141.602 C288.154537,139.953416 288.12313,138.296875 288.205,136.644 C286.583,135.865 284.837,137.951 285.046,139.738 C285.255,141.525 286.546,142.959 287.468,144.505 C288.215558,145.602564 288.551316,146.928948 288.416,148.25 C288.230104,149.599662 287.085293,150.610565 285.723,150.628 C283.638,150.446 282.766,147.453 280.701,147.111 C280.519014,147.068378 280.328027,147.087371 280.158,147.165 C279.852,147.333 279.798,147.743 279.781,148.092 C279.56949,149.800922 279.744112,151.535526 280.292,153.168 C281.271,155.479 283.799,157.421 283.269,159.874 C280.412,158.546 278.927,155.342 278.252,152.264 C277.577,149.186 277.465,145.955 276.252,143.046 C275.334,144.223 273.404,143.246 272.566,142.016 C271.766,140.846 271.281,139.492 270.51,138.306 C269.817616,137.046013 268.571681,136.186236 267.148,135.986 C265.666,135.918 264.381,136.935 263.248,137.895 C262.265564,138.622524 261.440081,139.540861 260.821,140.595 C260.03,142.184 260.237,144.058 260.199,145.833 C260.28349,147.770591 259.661233,149.672902 258.448,151.186 C257.14,152.586 254.727,153.08 253.284,151.814 C252.586304,151.08682 252.089419,150.190911 251.842,149.214 C250.278264,144.645187 248.976153,139.990975 247.942,135.274 C247.7,136.351 246.754,137.738 245.851,137.104 C245.648192,136.933448 245.483903,136.721781 245.369,136.483 C243.684,133.628 240.569,131.915 237.412,130.888 C234.255,129.861 230.943,129.382 227.826,128.254 C226.077698,127.624521 224.407432,126.796434 222.848,125.786 C222.039449,126.974147 221.94768,128.510029 222.609,129.786 C223.327303,131.047572 224.807422,131.664288 226.209,131.286 C226.901,131.065 227.486,130.586 228.172,130.347 C228.854935,130.035239 229.663173,130.264289 230.081,130.888 C230.368,131.521 229.934,132.288 230.149,132.949 C230.477,133.956 231.996,134.034 232.527,134.949 C232.850763,135.692725 232.650213,136.560694 232.033,137.087 C231.421701,137.585299 230.747187,138.000566 230.027,138.322 C227.792,139.565 226.203,141.686 224.249,143.337 C222.295,144.988 219.54,146.193 217.212,145.137 C217.767,142.327 214.42,140.264 213.804,137.467 C213.604,136.546 213.704,135.567 213.417,134.667 C212.998,133.367 211.846,132.475 210.9,131.491 C208.583465,129.052675 207.350471,125.781763 207.481,122.421 C207.638272,121.273698 207.638272,120.110302 207.481,118.963 C207.289081,117.78566 206.318131,116.891494 205.129,116.797 C202.489,116.914 199.163,117.11 197.777,114.859 C197.283,114.059 197.067,112.879 197.782,112.259 C198.349352,111.898111 199.03778,111.77995 199.693,111.931 L205.642,112.516 C207.021023,112.79856 208.45433,112.631008 209.731,112.038 C210.925,111.311 211.442,109.38 210.337,108.524 C209.529,107.899 208.082,107.933 207.847,106.938 C207.647,106.11 208.568,105.171 208.073,104.479 C207.718,103.979 206.92,104.121 206.437,104.492 C206.014423,104.931211 205.554346,105.332732 205.062,105.692 C204.113,106.186 202.979,105.716 201.962,105.392 C200.945,105.068 199.572,105.045 199.076,105.992 C198.522,107.053 199.567,108.443 199.018,109.506 C198.291,110.911 195.829,110.111 194.809,111.32 C193.638,112.707 195.609,114.776 195.209,116.548 C194.183081,117.056174 192.965588,116.987818 192.003,116.368 C191.054465,115.723013 190.537311,114.60879 190.657,113.468 C190.757,112.668 191.17,111.857 190.892,111.104 C190.590123,110.522946 190.092433,110.067409 189.487,109.818 L183.706,106.624 C183.169,107.624 183.848,108.854 184.696,109.602 C185.640169,110.22731 186.474425,111.004462 187.165,111.902 C187.896858,113.317555 187.399904,115.058209 186.031,115.874 C185.863546,115.988867 185.654463,116.025356 185.458,115.974 C185.271512,115.864469 185.137316,115.684099 185.086,115.474 C184.066,112.864 182.535,110.29 180.086,108.927 C177.637,107.564 174.12,107.844 172.514,110.141 C172.133,110.687 171.877,111.308 171.545,111.885 C169.78,114.949 165.996,116.401 162.461,116.306 C162.115128,116.32531 161.771031,116.244408 161.47,116.073 C160.899,115.678 160.924,114.841 161.012,114.152 L161.383,111.229 C161.385091,110.632349 161.616777,110.0594 162.03,109.629 C162.685,109.112 163.63,109.438 164.464,109.429 C165.758439,109.368758 166.877153,108.505751 167.264,107.269 C167.607406,106.02632 167.234802,104.695647 166.296,103.812 C165.914,103.453 165.396,103.002 165.603,102.518 C165.766104,102.247119 166.040664,102.062249 166.353,102.013 C167.853,101.578 169.434,101.464 170.907,100.951 C172.439854,100.534259 173.661077,99.3757683 174.158,97.867 C174.265,97.401 174.314,96.837 174.732,96.606 C174.941828,96.5172551 175.167179,96.4710291 175.395,96.47 C177.050256,96.2341112 178.251662,94.7736795 178.164,93.104 C178.960933,92.7241833 179.91015,92.8814547 180.542,93.498 C181.148075,94.1111926 181.866915,94.6015113 182.659,94.942 C184.208,95.364 185.704,93.992 187.31,93.986 C187.974499,94.1013996 188.653713,94.1037662 189.319,93.993 C189.963,93.761 190.347,93.12 190.841,92.647 C191.335,92.174 192.202,91.885 192.658,92.395 L192.27,89.517 C193.851575,89.9157927 195.528314,89.6125216 196.87,88.685 L191.849,86.985 C191.674352,86.9413105 191.51323,86.8550809 191.38,86.734 C191.015,86.341 191.38,85.728 191.674,85.282 C192.384,84.213 192.503,82.452 191.336,81.92 C190.477439,81.6946518 189.56292,81.879254 188.859,82.42 L185.194,84.463 C185.078,85.163 185.929,85.554 186.457,86.024 C187.110019,86.6051596 187.338903,87.5278085 187.033222,88.3467954 C186.727541,89.1657823 185.950103,89.7128285 185.076,89.724 C185.564887,90.3596866 185.738197,91.1831857 185.547,91.962 L183.081,92.139 C182.804196,92.1948022 182.516558,92.1387128 182.281,91.983 C182.017,91.749 182.053,91.338 181.992,90.991 C181.765467,90.1477556 181.052081,89.5248264 180.186,89.414 C179.337228,89.3212001 178.478458,89.400445 177.661,89.647 C177.30878,89.7737051 176.922011,89.7647933 176.576,89.622 C176.377685,89.4929892 176.227022,89.3026409 176.147,89.08 C175.853801,88.1523568 176.066112,87.1389497 176.707,86.407 C177.343236,85.6966602 178.046491,85.0493308 178.807,84.474 C180.524533,82.9668993 181.786384,81.0095239 182.45,78.823 C183.807,78.254 185.213,77.482 186.57,76.913 C188.662552,75.853533 191.00917,75.3988239 193.346,75.6 L197.946,75.688 C199.309234,75.6303667 200.671319,75.826355 201.963,76.266 C203.273796,76.7331354 204.21763,77.8883785 204.414,79.266 C204.467245,79.578742 204.355786,79.8968719 204.119,80.108 C203.941325,80.2049566 203.74009,80.2503297 203.538,80.239 C202.269,80.291 201.728,80.607 200.459,80.652 Z" id="Path" fill="#3F3D56" fill-rule="nonzero"></path>
                <path d="M163.822,95.059 C164.188282,94.7124501 164.329959,94.1901384 164.189,93.706 C163.297681,93.3621257 162.288501,93.552727 161.584,94.198 C161.310947,94.4734184 161.075567,94.7837828 160.884,95.121 C160.169078,96.0474144 159.882503,97.2344451 160.096,98.385 C160.153621,98.6274686 160.306447,98.8365226 160.52,98.965 C160.677033,99.0278464 160.846297,99.0541763 161.015,99.042 C161.680534,99.0410119 162.345405,98.9999375 163.006,98.919 C163.412,98.869 163.883,98.755 164.04,98.377 C164.246,97.877 163.747,97.32 163.893,96.802 C163.988756,96.5708327 164.133796,96.3633409 164.318,96.194 C164.503567,96.0213141 164.596313,95.7709005 164.568,95.519 C164.509,95.276 164.138,95.139 164.004,95.35" id="Path" fill="#3F3D56" fill-rule="nonzero"></path>
                <path d="M167.273,90.586 C166.683125,90.4507819 166.075154,90.4126149 165.473,90.473 C165.339692,90.4689515 165.207546,90.4988908 165.089,90.56 C164.973986,90.64473 164.890572,90.7654518 164.852,90.903 C164.585765,91.7513223 165.018188,92.6615046 165.844,92.991 C166.060617,93.040788 166.268121,93.1241271 166.459,93.238 C166.969,93.638 166.644,94.438 166.741,95.081 C166.849,95.798 167.541,96.4 167.416,97.114 C167.316,97.676 166.716,98.122 166.816,98.685 C166.916,99.275 167.666,99.452 168.262,99.499 C168.607798,99.5597367 168.963784,99.5191022 169.287,99.382 C169.610571,99.1605198 169.840693,98.8270922 169.933,98.446 C170.176392,97.7190788 170.278228,96.9522505 170.233,96.187 C170.230729,95.8378712 170.143191,95.4945844 169.978,95.187 C169.796891,94.9437189 169.596225,94.7156281 169.378,94.505 C168.231,93.179 169.434,91.196 167.273,90.586 Z" id="Path" fill="#3F3D56" fill-rule="nonzero"></path>
                <path d="M317.545,194.718 C317.545,194.718 230.018,144.476 192.337,153.996 C192.337,153.996 112.479,162.59 103.224,181.496 C103.224,181.496 77.839,102.167 68.584,99.522" id="Path" stroke="#9D6B53" stroke-width="2" opacity="0.8"></path>
                <path d="M103.224,181.497 C117.9,142.361 250.115,98.997 250.115,98.997 C231.34,103.757 192.337,153.997 192.337,153.997 C192.337,153.997 109.837,93.971 68.583,99.524 C68.583,99.524 250.247,105.474 317.545,194.724" id="Path" stroke="#9D6B53" stroke-width="2" opacity="0.8"></path>
                <circle id="Oval" fill="#9D6B53" fill-rule="nonzero" cx="68.583" cy="99.523" r="3.834"></circle>
                <circle id="Oval" fill="#9D6B53" fill-rule="nonzero" cx="103.224" cy="181.496" r="3.834"></circle>
                <circle id="Oval" fill="#9D6B53" fill-rule="nonzero" cx="250.115" cy="98.994" r="3.834"></circle>
                <circle id="Oval" fill="#9D6B53" fill-rule="nonzero" cx="317.545" cy="194.718" r="3.834"></circle>
                <circle id="Oval" fill="#9D6B53" fill-rule="nonzero" cx="192.337" cy="153.996" r="3.834"></circle>
            </g>
        </g>
    </g>
</svg>